G04 #@! TF.FileFunction,Copper,L2,Bot,Signal*
%FSLAX46Y46*%
G04 Gerber Fmt 4.6, Leading zero omitted, Abs format (unit mm)*
G04 Created by KiCad (PCBNEW 4.0.0-rc1-stable) date 05/11/2015 13:36:28*
%MOMM*%
G01*
G04 APERTURE LIST*
%ADD10C,0.100000*%
%ADD11R,0.750000X0.800000*%
%ADD12R,1.300000X0.700000*%
%ADD13R,0.800100X0.800100*%
%ADD14R,3.657600X2.032000*%
%ADD15R,1.016000X2.032000*%
%ADD16R,2.199640X1.524000*%
%ADD17O,2.199640X1.524000*%
%ADD18R,0.900000X0.500000*%
%ADD19R,1.000760X0.599440*%
%ADD20R,1.524000X1.998980*%
%ADD21O,1.524000X1.998980*%
%ADD22R,1.200000X1.400000*%
%ADD23C,0.787400*%
%ADD24C,0.663800*%
%ADD25C,0.203200*%
%ADD26C,0.406000*%
%ADD27C,0.254000*%
%ADD28C,0.304800*%
G04 APERTURE END LIST*
D10*
D11*
X146812000Y-66814000D03*
X146812000Y-68314000D03*
X148590000Y-72124000D03*
X148590000Y-70624000D03*
D12*
X146431000Y-99375000D03*
X146431000Y-97475000D03*
D13*
X152461000Y-99425760D03*
X150561000Y-99425760D03*
X151511000Y-97426780D03*
D14*
X147066000Y-108458000D03*
D15*
X147066000Y-101854000D03*
X149352000Y-101854000D03*
X144780000Y-101854000D03*
D16*
X139700000Y-109347000D03*
D17*
X139700000Y-106807000D03*
X139700000Y-104267000D03*
X139700000Y-101727000D03*
X139700000Y-99187000D03*
X139700000Y-96647000D03*
X139700000Y-94107000D03*
X139700000Y-91567000D03*
X139700000Y-89027000D03*
X139700000Y-86487000D03*
X139700000Y-83947000D03*
X139700000Y-81407000D03*
X139700000Y-78867000D03*
X139700000Y-76327000D03*
X139700000Y-73787000D03*
X139700000Y-71247000D03*
X139700000Y-68707000D03*
X139700000Y-66167000D03*
X139700000Y-63627000D03*
X139700000Y-61087000D03*
D16*
X154942000Y-109347000D03*
D17*
X154942000Y-106807000D03*
X154942000Y-104267000D03*
X154942000Y-101727000D03*
X154942000Y-99187000D03*
X154942000Y-96647000D03*
X154942000Y-94107000D03*
X154942000Y-91567000D03*
X154942000Y-89027000D03*
X154942000Y-86487000D03*
X154942000Y-83947000D03*
X154942000Y-81407000D03*
X154942000Y-78867000D03*
X154942000Y-76327000D03*
X154942000Y-73787000D03*
X154942000Y-71247000D03*
X154942000Y-68707000D03*
X154942000Y-66167000D03*
X154942000Y-63627000D03*
X154942000Y-61087000D03*
D18*
X148463000Y-94373000D03*
X148463000Y-95873000D03*
X145288000Y-94373000D03*
X145288000Y-95873000D03*
X143256000Y-94373000D03*
X143256000Y-95873000D03*
X144780000Y-68822000D03*
X144780000Y-67322000D03*
X142494000Y-68822000D03*
X142494000Y-67322000D03*
X150749000Y-66687000D03*
X150749000Y-68187000D03*
X150749000Y-70497000D03*
X150749000Y-71997000D03*
D11*
X148717000Y-66814000D03*
X148717000Y-68314000D03*
D13*
X142306000Y-97424240D03*
X144206000Y-97424240D03*
X143256000Y-99423220D03*
D19*
X145120360Y-77152500D03*
X145120360Y-75247500D03*
X145120360Y-76200000D03*
X147233640Y-75247500D03*
X147233640Y-77152500D03*
D20*
X144780000Y-63875920D03*
D21*
X144780000Y-60838080D03*
X147320000Y-63875920D03*
X147320000Y-60838080D03*
X149860000Y-63875920D03*
X149860000Y-60838080D03*
D22*
X152565000Y-75354000D03*
X152565000Y-77554000D03*
X150965000Y-75354000D03*
X150965000Y-77554000D03*
D18*
X148717000Y-97929000D03*
X148717000Y-99429000D03*
X150749000Y-95873000D03*
X150749000Y-94373000D03*
D10*
G36*
X148769413Y-81788338D02*
X149688991Y-80868760D01*
X149900925Y-81080694D01*
X148981347Y-82000272D01*
X148769413Y-81788338D01*
X148769413Y-81788338D01*
G37*
G36*
X149123236Y-82142160D02*
X150042814Y-81222582D01*
X150254748Y-81434516D01*
X149335170Y-82354094D01*
X149123236Y-82142160D01*
X149123236Y-82142160D01*
G37*
G36*
X149477058Y-82495982D02*
X150396636Y-81576404D01*
X150608570Y-81788338D01*
X149688992Y-82707916D01*
X149477058Y-82495982D01*
X149477058Y-82495982D01*
G37*
G36*
X149829084Y-82848008D02*
X150748662Y-81928430D01*
X150960596Y-82140364D01*
X150041018Y-83059942D01*
X149829084Y-82848008D01*
X149829084Y-82848008D01*
G37*
G36*
X150182906Y-83201830D02*
X151102484Y-82282252D01*
X151314418Y-82494186D01*
X150394840Y-83413764D01*
X150182906Y-83201830D01*
X150182906Y-83201830D01*
G37*
G36*
X147707947Y-80726872D02*
X148627525Y-79807294D01*
X148839459Y-80019228D01*
X147919881Y-80938806D01*
X147707947Y-80726872D01*
X147707947Y-80726872D01*
G37*
G36*
X148061769Y-81080694D02*
X148981347Y-80161116D01*
X149193281Y-80373050D01*
X148273703Y-81292628D01*
X148061769Y-81080694D01*
X148061769Y-81080694D01*
G37*
G36*
X148415591Y-81434516D02*
X149335169Y-80514938D01*
X149547103Y-80726872D01*
X148627525Y-81646450D01*
X148415591Y-81434516D01*
X148415591Y-81434516D01*
G37*
G36*
X151598194Y-85816881D02*
X151810128Y-85604947D01*
X152729706Y-86524525D01*
X152517772Y-86736459D01*
X151598194Y-85816881D01*
X151598194Y-85816881D01*
G37*
G36*
X151244372Y-86170703D02*
X151456306Y-85958769D01*
X152375884Y-86878347D01*
X152163950Y-87090281D01*
X151244372Y-86170703D01*
X151244372Y-86170703D01*
G37*
G36*
X150890550Y-86524525D02*
X151102484Y-86312591D01*
X152022062Y-87232169D01*
X151810128Y-87444103D01*
X150890550Y-86524525D01*
X150890550Y-86524525D01*
G37*
G36*
X150536728Y-86878347D02*
X150748662Y-86666413D01*
X151668240Y-87585991D01*
X151456306Y-87797925D01*
X150536728Y-86878347D01*
X150536728Y-86878347D01*
G37*
G36*
X150182906Y-87232170D02*
X150394840Y-87020236D01*
X151314418Y-87939814D01*
X151102484Y-88151748D01*
X150182906Y-87232170D01*
X150182906Y-87232170D01*
G37*
G36*
X149829084Y-87585992D02*
X150041018Y-87374058D01*
X150960596Y-88293636D01*
X150748662Y-88505570D01*
X149829084Y-87585992D01*
X149829084Y-87585992D01*
G37*
G36*
X149477058Y-87938018D02*
X149688992Y-87726084D01*
X150608570Y-88645662D01*
X150396636Y-88857596D01*
X149477058Y-87938018D01*
X149477058Y-87938018D01*
G37*
G36*
X149123236Y-88291840D02*
X149335170Y-88079906D01*
X150254748Y-88999484D01*
X150042814Y-89211418D01*
X149123236Y-88291840D01*
X149123236Y-88291840D01*
G37*
G36*
X145800541Y-90414772D02*
X146720119Y-89495194D01*
X146932053Y-89707128D01*
X146012475Y-90626706D01*
X145800541Y-90414772D01*
X145800541Y-90414772D01*
G37*
G36*
X145446719Y-90060950D02*
X146366297Y-89141372D01*
X146578231Y-89353306D01*
X145658653Y-90272884D01*
X145446719Y-90060950D01*
X145446719Y-90060950D01*
G37*
G36*
X145092897Y-89707128D02*
X146012475Y-88787550D01*
X146224409Y-88999484D01*
X145304831Y-89919062D01*
X145092897Y-89707128D01*
X145092897Y-89707128D01*
G37*
G36*
X144739075Y-89353306D02*
X145658653Y-88433728D01*
X145870587Y-88645662D01*
X144951009Y-89565240D01*
X144739075Y-89353306D01*
X144739075Y-89353306D01*
G37*
G36*
X144385252Y-88999484D02*
X145304830Y-88079906D01*
X145516764Y-88291840D01*
X144597186Y-89211418D01*
X144385252Y-88999484D01*
X144385252Y-88999484D01*
G37*
G36*
X144031430Y-88645662D02*
X144951008Y-87726084D01*
X145162942Y-87938018D01*
X144243364Y-88857596D01*
X144031430Y-88645662D01*
X144031430Y-88645662D01*
G37*
G36*
X143679404Y-88293636D02*
X144598982Y-87374058D01*
X144810916Y-87585992D01*
X143891338Y-88505570D01*
X143679404Y-88293636D01*
X143679404Y-88293636D01*
G37*
G36*
X143325582Y-87939814D02*
X144245160Y-87020236D01*
X144457094Y-87232170D01*
X143537516Y-88151748D01*
X143325582Y-87939814D01*
X143325582Y-87939814D01*
G37*
G36*
X141910294Y-83909475D02*
X142122228Y-83697541D01*
X143041806Y-84617119D01*
X142829872Y-84829053D01*
X141910294Y-83909475D01*
X141910294Y-83909475D01*
G37*
G36*
X142264116Y-83555653D02*
X142476050Y-83343719D01*
X143395628Y-84263297D01*
X143183694Y-84475231D01*
X142264116Y-83555653D01*
X142264116Y-83555653D01*
G37*
G36*
X142617938Y-83201831D02*
X142829872Y-82989897D01*
X143749450Y-83909475D01*
X143537516Y-84121409D01*
X142617938Y-83201831D01*
X142617938Y-83201831D01*
G37*
G36*
X142971760Y-82848009D02*
X143183694Y-82636075D01*
X144103272Y-83555653D01*
X143891338Y-83767587D01*
X142971760Y-82848009D01*
X142971760Y-82848009D01*
G37*
G36*
X143325582Y-82494186D02*
X143537516Y-82282252D01*
X144457094Y-83201830D01*
X144245160Y-83413764D01*
X143325582Y-82494186D01*
X143325582Y-82494186D01*
G37*
G36*
X143679404Y-82140364D02*
X143891338Y-81928430D01*
X144810916Y-82848008D01*
X144598982Y-83059942D01*
X143679404Y-82140364D01*
X143679404Y-82140364D01*
G37*
G36*
X144031430Y-81788338D02*
X144243364Y-81576404D01*
X145162942Y-82495982D01*
X144951008Y-82707916D01*
X144031430Y-81788338D01*
X144031430Y-81788338D01*
G37*
G36*
X144385252Y-81434516D02*
X144597186Y-81222582D01*
X145516764Y-82142160D01*
X145304830Y-82354094D01*
X144385252Y-81434516D01*
X144385252Y-81434516D01*
G37*
G36*
X150536728Y-83555653D02*
X151456306Y-82636075D01*
X151668240Y-82848009D01*
X150748662Y-83767587D01*
X150536728Y-83555653D01*
X150536728Y-83555653D01*
G37*
G36*
X150890550Y-83909475D02*
X151810128Y-82989897D01*
X152022062Y-83201831D01*
X151102484Y-84121409D01*
X150890550Y-83909475D01*
X150890550Y-83909475D01*
G37*
G36*
X151244372Y-84263297D02*
X152163950Y-83343719D01*
X152375884Y-83555653D01*
X151456306Y-84475231D01*
X151244372Y-84263297D01*
X151244372Y-84263297D01*
G37*
G36*
X151598194Y-84617119D02*
X152517772Y-83697541D01*
X152729706Y-83909475D01*
X151810128Y-84829053D01*
X151598194Y-84617119D01*
X151598194Y-84617119D01*
G37*
G36*
X148769413Y-88645662D02*
X148981347Y-88433728D01*
X149900925Y-89353306D01*
X149688991Y-89565240D01*
X148769413Y-88645662D01*
X148769413Y-88645662D01*
G37*
G36*
X148415591Y-88999484D02*
X148627525Y-88787550D01*
X149547103Y-89707128D01*
X149335169Y-89919062D01*
X148415591Y-88999484D01*
X148415591Y-88999484D01*
G37*
G36*
X148061769Y-89353306D02*
X148273703Y-89141372D01*
X149193281Y-90060950D01*
X148981347Y-90272884D01*
X148061769Y-89353306D01*
X148061769Y-89353306D01*
G37*
G36*
X147707947Y-89707128D02*
X147919881Y-89495194D01*
X148839459Y-90414772D01*
X148627525Y-90626706D01*
X147707947Y-89707128D01*
X147707947Y-89707128D01*
G37*
G36*
X142971760Y-87585991D02*
X143891338Y-86666413D01*
X144103272Y-86878347D01*
X143183694Y-87797925D01*
X142971760Y-87585991D01*
X142971760Y-87585991D01*
G37*
G36*
X142617938Y-87232169D02*
X143537516Y-86312591D01*
X143749450Y-86524525D01*
X142829872Y-87444103D01*
X142617938Y-87232169D01*
X142617938Y-87232169D01*
G37*
G36*
X142264116Y-86878347D02*
X143183694Y-85958769D01*
X143395628Y-86170703D01*
X142476050Y-87090281D01*
X142264116Y-86878347D01*
X142264116Y-86878347D01*
G37*
G36*
X141910294Y-86524525D02*
X142829872Y-85604947D01*
X143041806Y-85816881D01*
X142122228Y-86736459D01*
X141910294Y-86524525D01*
X141910294Y-86524525D01*
G37*
G36*
X144739075Y-81080694D02*
X144951009Y-80868760D01*
X145870587Y-81788338D01*
X145658653Y-82000272D01*
X144739075Y-81080694D01*
X144739075Y-81080694D01*
G37*
G36*
X145092897Y-80726872D02*
X145304831Y-80514938D01*
X146224409Y-81434516D01*
X146012475Y-81646450D01*
X145092897Y-80726872D01*
X145092897Y-80726872D01*
G37*
G36*
X145446719Y-80373050D02*
X145658653Y-80161116D01*
X146578231Y-81080694D01*
X146366297Y-81292628D01*
X145446719Y-80373050D01*
X145446719Y-80373050D01*
G37*
G36*
X145800541Y-80019228D02*
X146012475Y-79807294D01*
X146932053Y-80726872D01*
X146720119Y-80938806D01*
X145800541Y-80019228D01*
X145800541Y-80019228D01*
G37*
D23*
X144653000Y-86360000D03*
D24*
X152654000Y-81280000D03*
D23*
X152019000Y-78994000D03*
X149860000Y-84201000D03*
X147701000Y-105918000D03*
X143637000Y-106807000D03*
X141859000Y-66294000D03*
X144526000Y-66167000D03*
X147828000Y-88392000D03*
X146812000Y-83058000D03*
X147828000Y-92202000D03*
X147574000Y-84836000D03*
X146939000Y-72898000D03*
X146685000Y-71755000D03*
X145542000Y-92964000D03*
X142367000Y-107315000D03*
X146177000Y-76200000D03*
X150825200Y-85217000D03*
X148082000Y-65557400D03*
X150774400Y-69367400D03*
X147828000Y-100584000D03*
D24*
X149860000Y-75819000D03*
D23*
X148844000Y-92329000D03*
X146558000Y-78740000D03*
D24*
X146431000Y-95631000D03*
X147320000Y-95631000D03*
X142875000Y-92456000D03*
X150495000Y-92329000D03*
X152527000Y-101854000D03*
X151130000Y-92964000D03*
X152400000Y-95758000D03*
X150495000Y-78867000D03*
X149707600Y-85877400D03*
X146558000Y-85572600D03*
D23*
X144526000Y-78232000D03*
X150495000Y-100330000D03*
D24*
X146304000Y-93599000D03*
X145643600Y-70891400D03*
X152298400Y-68605400D03*
X149352000Y-83439000D03*
X152019000Y-80137000D03*
X150749000Y-72263000D03*
D23*
X151892000Y-82042000D03*
D24*
X148082000Y-78867000D03*
D23*
X144907000Y-99441000D03*
D24*
X151384000Y-89890600D03*
X144653000Y-84328000D03*
X147447000Y-90551000D03*
X144780000Y-91821000D03*
X143002000Y-101219000D03*
X144145000Y-92456000D03*
X142240000Y-101981000D03*
X143510000Y-91821000D03*
X141478000Y-101473000D03*
X147193000Y-93599000D03*
D25*
X150749000Y-94373000D02*
X150749000Y-93980000D01*
X149606000Y-92837000D02*
X149606000Y-92456000D01*
X150749000Y-93980000D02*
X149606000Y-92837000D01*
X142829872Y-86524525D02*
X142837475Y-86524525D01*
X142837475Y-86524525D02*
X143510000Y-85852000D01*
X143510000Y-85852000D02*
X144145000Y-85852000D01*
D26*
X144145000Y-85852000D02*
X144653000Y-86360000D01*
X144993360Y-76200000D02*
X146050000Y-76200000D01*
D25*
X146004872Y-80726872D02*
X145161000Y-79883000D01*
D26*
X145288000Y-78867000D02*
X146050000Y-78105000D01*
X146050000Y-78105000D02*
X146050000Y-76200000D01*
X145161000Y-79883000D02*
X145161000Y-78994000D01*
X145161000Y-78994000D02*
X145288000Y-78867000D01*
X146812000Y-68314000D02*
X146812000Y-70104000D01*
X146812000Y-70104000D02*
X146685000Y-70231000D01*
D25*
X142837475Y-86524525D02*
X143510000Y-85852000D01*
D26*
X144780000Y-67322000D02*
X145300000Y-67322000D01*
X146292000Y-68314000D02*
X146812000Y-68314000D01*
X145300000Y-67322000D02*
X146292000Y-68314000D01*
X152019000Y-78994000D02*
X152273000Y-78994000D01*
X152273000Y-78994000D02*
X152781000Y-79502000D01*
X152781000Y-79502000D02*
X152781000Y-81153000D01*
X152781000Y-81153000D02*
X152654000Y-81280000D01*
X152565000Y-78448000D02*
X152565000Y-77554000D01*
X152565000Y-78448000D02*
X152019000Y-78994000D01*
X149987000Y-84074000D02*
X149860000Y-84201000D01*
D25*
X150704992Y-82848008D02*
X149987000Y-83566000D01*
X149987000Y-83566000D02*
X149987000Y-84074000D01*
D26*
X149860000Y-63627000D02*
X154942000Y-63627000D01*
X146812000Y-68314000D02*
X148717000Y-68314000D01*
X146050000Y-76200000D02*
X146050000Y-75692000D01*
D25*
X147828000Y-88900000D02*
X148627525Y-89699525D01*
D26*
X148070000Y-70624000D02*
X148590000Y-70624000D01*
X146050000Y-75692000D02*
X146050000Y-74295000D01*
X146050000Y-74295000D02*
X147320000Y-73025000D01*
X147320000Y-73025000D02*
X147320000Y-71374000D01*
X147320000Y-71374000D02*
X148070000Y-70624000D01*
X144780000Y-101854000D02*
X144780000Y-103886000D01*
X143637000Y-105029000D02*
X143637000Y-106807000D01*
X144780000Y-103886000D02*
X143637000Y-105029000D01*
D25*
X146012475Y-80726872D02*
X146004872Y-80726872D01*
X142837475Y-86524525D02*
X143510000Y-85852000D01*
X143510000Y-85852000D02*
X144145000Y-85852000D01*
X148627525Y-89707128D02*
X148627525Y-89699525D01*
X150748662Y-82848008D02*
X150704992Y-82848008D01*
D26*
X142494000Y-67322000D02*
X142494000Y-66929000D01*
X142494000Y-66929000D02*
X141859000Y-66294000D01*
X144780000Y-67322000D02*
X144780000Y-66421000D01*
X144780000Y-66421000D02*
X144526000Y-66167000D01*
D25*
X147828000Y-88900000D02*
X147828000Y-88392000D01*
D26*
X146939000Y-81661000D02*
X146939000Y-82931000D01*
X146939000Y-82931000D02*
X146812000Y-83058000D01*
D25*
X146012475Y-80734475D02*
X146939000Y-81661000D01*
X146012475Y-80726872D02*
X146012475Y-80734475D01*
D26*
X146304000Y-86868000D02*
X146304000Y-86487000D01*
D25*
X145923000Y-86106000D02*
X145923000Y-84963000D01*
X146304000Y-86487000D02*
X145923000Y-86106000D01*
D26*
X146685000Y-87249000D02*
X147828000Y-88392000D01*
X146685000Y-87249000D02*
X146304000Y-86868000D01*
X148209000Y-84201000D02*
X147828000Y-84582000D01*
X147828000Y-84582000D02*
X146304000Y-84582000D01*
X146304000Y-84582000D02*
X145923000Y-84963000D01*
X149860000Y-84201000D02*
X148209000Y-84201000D01*
D25*
X148627525Y-89707128D02*
X148635128Y-89707128D01*
X147828000Y-92837000D02*
X147828000Y-92202000D01*
X148209000Y-93218000D02*
X147828000Y-92837000D01*
X149352000Y-93218000D02*
X148209000Y-93218000D01*
X149606000Y-92964000D02*
X149352000Y-93218000D01*
X149606000Y-92125800D02*
X149606000Y-92456000D01*
X149606000Y-92456000D02*
X149606000Y-92964000D01*
D26*
X147828000Y-84582000D02*
X147574000Y-84836000D01*
X148590000Y-69758759D02*
X148717000Y-69631759D01*
X148590000Y-70624000D02*
X148590000Y-69758759D01*
X148717000Y-68314000D02*
X148717000Y-69631759D01*
X147320000Y-73025000D02*
X147066000Y-73025000D01*
X147066000Y-73025000D02*
X146939000Y-72898000D01*
X147828000Y-92202000D02*
X146304000Y-92202000D01*
X146304000Y-92202000D02*
X145542000Y-92964000D01*
D25*
X149402800Y-90500200D02*
X149402800Y-91922600D01*
X149402800Y-91922600D02*
X149606000Y-92125800D01*
X148627525Y-89724925D02*
X149402800Y-90500200D01*
X148627525Y-89707128D02*
X148627525Y-89724925D01*
X147106640Y-75247500D02*
X147106640Y-74762360D01*
X148590000Y-73279000D02*
X148590000Y-72124000D01*
X147106640Y-74762360D02*
X148590000Y-73279000D01*
X148717000Y-66192400D02*
X148717000Y-66814000D01*
X148082000Y-65557400D02*
X148717000Y-66192400D01*
D26*
X149733000Y-68199000D02*
X149733000Y-68732400D01*
X150749000Y-69748400D02*
X150749000Y-70497000D01*
X149733000Y-68732400D02*
X150749000Y-69748400D01*
X150749000Y-70497000D02*
X150749000Y-69392800D01*
X150749000Y-69392800D02*
X150774400Y-69367400D01*
D25*
X146366297Y-80373050D02*
X146413050Y-80373050D01*
D26*
X147828000Y-83312000D02*
X147193000Y-83947000D01*
X147828000Y-81788000D02*
X147828000Y-83312000D01*
X147193000Y-83947000D02*
X146685000Y-83947000D01*
X146558000Y-78740000D02*
X146558000Y-80181347D01*
D25*
X146558000Y-80181347D02*
X146366297Y-80373050D01*
D26*
X149733000Y-68199000D02*
X149733000Y-66687000D01*
X149733000Y-66687000D02*
X149733000Y-66675000D01*
X149733000Y-66675000D02*
X149733000Y-66687000D01*
X144399000Y-85090000D02*
X144526000Y-85090000D01*
X145415000Y-87249000D02*
X145923000Y-87757000D01*
X145415000Y-85979000D02*
X145415000Y-87249000D01*
X144716500Y-85280500D02*
X145415000Y-85979000D01*
X144526000Y-85090000D02*
X144716500Y-85280500D01*
X145923000Y-87757000D02*
X146304000Y-88138000D01*
X148226950Y-90060950D02*
X146812000Y-88646000D01*
X146304000Y-88138000D02*
X146812000Y-88646000D01*
D25*
X142476050Y-86170703D02*
X142476050Y-86123950D01*
D26*
X142476050Y-86123950D02*
X143510000Y-85090000D01*
X143510000Y-85090000D02*
X144399000Y-85090000D01*
X147066000Y-101346000D02*
X147828000Y-100584000D01*
X149860000Y-75819000D02*
X150500000Y-75819000D01*
X150500000Y-75819000D02*
X150965000Y-75354000D01*
X146812000Y-66814000D02*
X146570000Y-66814000D01*
X146570000Y-66814000D02*
X144780000Y-65024000D01*
X144780000Y-65024000D02*
X144780000Y-63627000D01*
X148717000Y-66814000D02*
X146812000Y-66814000D01*
X150749000Y-66687000D02*
X149733000Y-66687000D01*
X149733000Y-66687000D02*
X148844000Y-66687000D01*
X148844000Y-66687000D02*
X148717000Y-66814000D01*
D25*
X148353950Y-90060950D02*
X148273703Y-90060950D01*
X148273703Y-90060950D02*
X148226950Y-90060950D01*
D26*
X144780000Y-63627000D02*
X144780000Y-64262000D01*
X139700000Y-61087000D02*
X139827000Y-61087000D01*
X139827000Y-61087000D02*
X142367000Y-63627000D01*
X142367000Y-63627000D02*
X144780000Y-63627000D01*
X147066000Y-101854000D02*
X147066000Y-101346000D01*
D25*
X146177000Y-80183753D02*
X146366297Y-80373050D01*
X148844000Y-90631247D02*
X148273703Y-90060950D01*
D26*
X148844000Y-92329000D02*
X148844000Y-90631247D01*
X145796000Y-84201000D02*
X145923000Y-84074000D01*
X145923000Y-84074000D02*
X146050000Y-83947000D01*
X146050000Y-83947000D02*
X146685000Y-83947000D01*
X146685000Y-83947000D02*
X147193000Y-83947000D01*
X144716500Y-85280500D02*
X145796000Y-84201000D01*
X146558000Y-78740000D02*
X146558000Y-79121000D01*
D27*
X146366297Y-78931703D02*
X146558000Y-78740000D01*
X146366297Y-80373050D02*
X146366297Y-78931703D01*
D28*
X146558000Y-80518000D02*
X146905359Y-80865359D01*
X146558000Y-78740000D02*
X146558000Y-80518000D01*
D25*
X146413050Y-80373050D02*
X146905359Y-80865359D01*
D28*
X146905359Y-80865359D02*
X147828000Y-81788000D01*
D25*
X146189000Y-95873000D02*
X145288000Y-95873000D01*
X146431000Y-95631000D02*
X146189000Y-95873000D01*
X147383500Y-95567500D02*
X147689000Y-95873000D01*
X147320000Y-95631000D02*
X147383500Y-95567500D01*
X147689000Y-95873000D02*
X148463000Y-95873000D01*
X147689000Y-95873000D02*
X148082000Y-95873000D01*
X145304831Y-89010169D02*
X143319500Y-90995500D01*
X142875000Y-91440000D02*
X142875000Y-92456000D01*
X143319500Y-90995500D02*
X142875000Y-91440000D01*
X145304831Y-88999484D02*
X145304831Y-89010169D01*
X144951008Y-88645662D02*
X144907338Y-88645662D01*
X144907338Y-88645662D02*
X142240000Y-91313000D01*
X142240000Y-91313000D02*
X142240000Y-93218000D01*
X142240000Y-93218000D02*
X141732000Y-93726000D01*
X141732000Y-93726000D02*
X141732000Y-95631000D01*
X141732000Y-95631000D02*
X141224000Y-96139000D01*
X141224000Y-96139000D02*
X141224000Y-97663000D01*
X141224000Y-97663000D02*
X139700000Y-99187000D01*
X144597186Y-88291840D02*
X144499160Y-88291840D01*
X144499160Y-88291840D02*
X141859000Y-90932000D01*
X141859000Y-90932000D02*
X141859000Y-92964000D01*
X141859000Y-92964000D02*
X141351000Y-93472000D01*
X141351000Y-93472000D02*
X141351000Y-94996000D01*
X141351000Y-94996000D02*
X139700000Y-96647000D01*
X144245160Y-87939814D02*
X144216186Y-87939814D01*
X144216186Y-87939814D02*
X141351000Y-90805000D01*
X141351000Y-90805000D02*
X141351000Y-92456000D01*
X141351000Y-92456000D02*
X139700000Y-94107000D01*
X140589000Y-94107000D02*
X139700000Y-94107000D01*
X142829872Y-83909475D02*
X142829872Y-83901872D01*
X142829872Y-83901872D02*
X140335000Y-81407000D01*
X140335000Y-81407000D02*
X139700000Y-81407000D01*
X140081000Y-81407000D02*
X139700000Y-81407000D01*
X143183694Y-83555653D02*
X143183694Y-83493694D01*
X143183694Y-83493694D02*
X141478000Y-81788000D01*
X141478000Y-81788000D02*
X141478000Y-80899000D01*
X141478000Y-80899000D02*
X139700000Y-79121000D01*
X139700000Y-79121000D02*
X139700000Y-78867000D01*
X143537516Y-83201831D02*
X143526831Y-83201831D01*
X143526831Y-83201831D02*
X141986000Y-81661000D01*
X141986000Y-81661000D02*
X141986000Y-80010000D01*
X141986000Y-80010000D02*
X141351000Y-79375000D01*
X141351000Y-79375000D02*
X141351000Y-77851000D01*
X141351000Y-77851000D02*
X139827000Y-76327000D01*
X139827000Y-76327000D02*
X139700000Y-76327000D01*
X139700000Y-76454000D02*
X139700000Y-76327000D01*
X143891338Y-82848008D02*
X143891338Y-82804338D01*
X143891338Y-82804338D02*
X142367000Y-81280000D01*
X142367000Y-81280000D02*
X142367000Y-79629000D01*
X142367000Y-79629000D02*
X141732000Y-78994000D01*
X141732000Y-78994000D02*
X141732000Y-77216000D01*
X141732000Y-77216000D02*
X141351000Y-76835000D01*
X141351000Y-76835000D02*
X141351000Y-75438000D01*
X141351000Y-75438000D02*
X139700000Y-73787000D01*
X144245160Y-82494186D02*
X144216186Y-82494186D01*
X144216186Y-82494186D02*
X142875000Y-81153000D01*
X142875000Y-81153000D02*
X142875000Y-79502000D01*
X142875000Y-79502000D02*
X142240000Y-78867000D01*
X142240000Y-78867000D02*
X142240000Y-76962000D01*
X142240000Y-76962000D02*
X141859000Y-76581000D01*
X141859000Y-76581000D02*
X141859000Y-74803000D01*
X141859000Y-74803000D02*
X141351000Y-74295000D01*
X141351000Y-74295000D02*
X141351000Y-72898000D01*
X141351000Y-72898000D02*
X139700000Y-71247000D01*
X144597186Y-82142160D02*
X144499160Y-82142160D01*
X144499160Y-82142160D02*
X143383000Y-81026000D01*
X143383000Y-81026000D02*
X143383000Y-79375000D01*
X143383000Y-79375000D02*
X142748000Y-78740000D01*
X142748000Y-78740000D02*
X142748000Y-76708000D01*
X142748000Y-76708000D02*
X142367000Y-76327000D01*
X142367000Y-76327000D02*
X142367000Y-74676000D01*
X142367000Y-74676000D02*
X141859000Y-74168000D01*
X141859000Y-74168000D02*
X141859000Y-72390000D01*
X141859000Y-72390000D02*
X141351000Y-71882000D01*
X141351000Y-71882000D02*
X141351000Y-70358000D01*
X141351000Y-70358000D02*
X139700000Y-68707000D01*
X148981347Y-89353306D02*
X148981347Y-89418347D01*
X152527000Y-104267000D02*
X154942000Y-106682000D01*
X152527000Y-101854000D02*
X152527000Y-104267000D01*
X154942000Y-106682000D02*
X154942000Y-106807000D01*
X149860000Y-90246200D02*
X149860000Y-91617800D01*
X149860000Y-91617800D02*
X150495000Y-92252800D01*
X150495000Y-92252800D02*
X150495000Y-92329000D01*
X148981347Y-89367547D02*
X149860000Y-90246200D01*
X148981347Y-89353306D02*
X148981347Y-89367547D01*
X151257000Y-92329000D02*
X151257000Y-92837000D01*
X151257000Y-92837000D02*
X151130000Y-92964000D01*
X151257000Y-92202000D02*
X151257000Y-92329000D01*
X150876000Y-91821000D02*
X151257000Y-92202000D01*
X150317200Y-89992200D02*
X150317200Y-91262200D01*
X150317200Y-91262200D02*
X150876000Y-91821000D01*
X149335169Y-89010169D02*
X150317200Y-89992200D01*
X149335169Y-88999484D02*
X149335169Y-89010169D01*
X149688992Y-88645662D02*
X149732662Y-88645662D01*
X150723600Y-89687400D02*
X150723600Y-91059000D01*
X150723600Y-91059000D02*
X151790400Y-92125800D01*
X151790400Y-92125800D02*
X151790400Y-95148400D01*
X151790400Y-95148400D02*
X152400000Y-95758000D01*
X149688992Y-88652792D02*
X150723600Y-89687400D01*
X149688992Y-88645662D02*
X149688992Y-88652792D01*
X154942000Y-99187000D02*
X154686000Y-99187000D01*
X154686000Y-99187000D02*
X153289000Y-97790000D01*
X152273000Y-94615000D02*
X152273000Y-94107000D01*
X153289000Y-95631000D02*
X152273000Y-94615000D01*
X153289000Y-97790000D02*
X153289000Y-95631000D01*
X152273000Y-91694000D02*
X152273000Y-92075000D01*
X152146000Y-91567000D02*
X152273000Y-91694000D01*
X152273000Y-92075000D02*
X152273000Y-94107000D01*
X154178000Y-99187000D02*
X154942000Y-99187000D01*
X151993600Y-89509600D02*
X151993600Y-91414600D01*
X151993600Y-91414600D02*
X152146000Y-91567000D01*
X150423814Y-87939814D02*
X151993600Y-89509600D01*
X150394840Y-87939814D02*
X150423814Y-87939814D01*
X154942000Y-96647000D02*
X154942000Y-96522000D01*
X154942000Y-96522000D02*
X152781000Y-94361000D01*
X152781000Y-94361000D02*
X152781000Y-92456000D01*
X151574500Y-88455500D02*
X152400000Y-89281000D01*
X152781000Y-91567000D02*
X152781000Y-92202000D01*
X152400000Y-91186000D02*
X152781000Y-91567000D01*
X152400000Y-89281000D02*
X152400000Y-91186000D01*
X150748662Y-87585992D02*
X150748662Y-87629662D01*
X150748662Y-87629662D02*
X151574500Y-88455500D01*
X152781000Y-92202000D02*
X152781000Y-92456000D01*
X154942000Y-96395000D02*
X154942000Y-96647000D01*
X153136602Y-91440000D02*
X153136602Y-92938602D01*
X153136602Y-92938602D02*
X153416000Y-93218000D01*
X152209500Y-88328500D02*
X152781000Y-88900000D01*
X153136602Y-91287602D02*
X153136602Y-91440000D01*
X152781000Y-90932000D02*
X153136602Y-91287602D01*
X152781000Y-88900000D02*
X152781000Y-90932000D01*
X151102484Y-87232169D02*
X151113169Y-87232169D01*
X151113169Y-87232169D02*
X152209500Y-88328500D01*
X153416000Y-93218000D02*
X154305000Y-94107000D01*
X154305000Y-94107000D02*
X154942000Y-94107000D01*
X151456306Y-86878347D02*
X151456306Y-86940306D01*
X151456306Y-86940306D02*
X153162000Y-88646000D01*
X153162000Y-88646000D02*
X153162000Y-90424000D01*
X153162000Y-90424000D02*
X154305000Y-91567000D01*
X154305000Y-91567000D02*
X154942000Y-91567000D01*
X151810128Y-86524525D02*
X151810128Y-86532128D01*
X151810128Y-86532128D02*
X154305000Y-89027000D01*
X154305000Y-89027000D02*
X154942000Y-89027000D01*
X154942000Y-86612000D02*
X154942000Y-86487000D01*
X152527000Y-86487000D02*
X154942000Y-86487000D01*
X152210703Y-86170703D02*
X152527000Y-86487000D01*
X152163950Y-86170703D02*
X152210703Y-86170703D01*
X152527000Y-83947000D02*
X154942000Y-83947000D01*
X152210703Y-84263297D02*
X152527000Y-83947000D01*
X152163950Y-84263297D02*
X152210703Y-84263297D01*
X151810128Y-83909475D02*
X151810128Y-83901872D01*
X151810128Y-83901872D02*
X154305000Y-81407000D01*
X154305000Y-81407000D02*
X154942000Y-81407000D01*
X154686000Y-81407000D02*
X154942000Y-81407000D01*
X151456306Y-83555653D02*
X151521347Y-83555653D01*
X151521347Y-83555653D02*
X153289000Y-81788000D01*
X153289000Y-81788000D02*
X153289000Y-80520000D01*
X153289000Y-80520000D02*
X154942000Y-78867000D01*
X154942000Y-79119000D02*
X154942000Y-78867000D01*
X149335169Y-81434516D02*
X149335169Y-81423831D01*
X149335169Y-81423831D02*
X150495000Y-80264000D01*
X150495000Y-80264000D02*
X150495000Y-78867000D01*
X149669500Y-77470000D02*
X149669500Y-77406500D01*
X149225000Y-75184000D02*
X150241000Y-74168000D01*
X149225000Y-76962000D02*
X149225000Y-75184000D01*
X149669500Y-77406500D02*
X149225000Y-76962000D01*
X149669500Y-79502000D02*
X149669500Y-77470000D01*
X150241000Y-74168000D02*
X150368000Y-74041000D01*
X149669500Y-80454500D02*
X149669500Y-79502000D01*
X153543000Y-72517000D02*
X153543000Y-72136000D01*
X152019000Y-74041000D02*
X153543000Y-72517000D01*
X150368000Y-74041000D02*
X152019000Y-74041000D01*
X148981347Y-81080694D02*
X149043306Y-81080694D01*
X149043306Y-81080694D02*
X149669500Y-80454500D01*
X153543000Y-72136000D02*
X153543000Y-71882000D01*
X153543000Y-71882000D02*
X154178000Y-71247000D01*
X154178000Y-71247000D02*
X154942000Y-71247000D01*
X149225000Y-77851000D02*
X149225000Y-77724000D01*
X148717000Y-74676000D02*
X149352000Y-74041000D01*
X148717000Y-77216000D02*
X148717000Y-74676000D01*
X149225000Y-77724000D02*
X148717000Y-77216000D01*
X149860000Y-73533000D02*
X150622000Y-73533000D01*
X149352000Y-74041000D02*
X149860000Y-73533000D01*
X149225000Y-79375000D02*
X149225000Y-77851000D01*
X149225000Y-79883000D02*
X149225000Y-79375000D01*
X149225000Y-80137000D02*
X149225000Y-79883000D01*
X153035000Y-72263000D02*
X153035000Y-71755000D01*
X153035000Y-70231000D02*
X154559000Y-68707000D01*
X153035000Y-71755000D02*
X153035000Y-70231000D01*
X150622000Y-73533000D02*
X151765000Y-73533000D01*
X151765000Y-73533000D02*
X153035000Y-72263000D01*
X148627525Y-80726872D02*
X148635128Y-80726872D01*
X148635128Y-80726872D02*
X149225000Y-80137000D01*
X154559000Y-68707000D02*
X154942000Y-68707000D01*
X148717000Y-78105000D02*
X148717000Y-77851000D01*
X148209000Y-74422000D02*
X148717000Y-73914000D01*
X148209000Y-77343000D02*
X148209000Y-74422000D01*
X148717000Y-77851000D02*
X148209000Y-77343000D01*
X148273703Y-80373050D02*
X148273703Y-80326297D01*
X148273703Y-80326297D02*
X148717000Y-79883000D01*
X149479000Y-73152000D02*
X150241000Y-73152000D01*
X153162000Y-69215000D02*
X153162000Y-67183000D01*
X152527000Y-69850000D02*
X153162000Y-69215000D01*
X152527000Y-71628000D02*
X152527000Y-69850000D01*
X153162000Y-67183000D02*
X154178000Y-66167000D01*
X150241000Y-73152000D02*
X151511000Y-73152000D01*
X151511000Y-73152000D02*
X152527000Y-72136000D01*
X152527000Y-72136000D02*
X152527000Y-71628000D01*
X148717000Y-73914000D02*
X149479000Y-73152000D01*
X148717000Y-79883000D02*
X148717000Y-78105000D01*
X154178000Y-66167000D02*
X154942000Y-66167000D01*
X148273703Y-80373050D02*
X148353950Y-80373050D01*
X149707600Y-85877400D02*
X147066000Y-85877400D01*
X147066000Y-85877400D02*
X146761200Y-85572600D01*
X146761200Y-85572600D02*
X146558000Y-85572600D01*
D26*
X143954500Y-77161612D02*
X143954500Y-75247501D01*
X143954500Y-75247501D02*
X143954500Y-74485500D01*
X145120360Y-75247500D02*
X144416779Y-75247501D01*
X144416779Y-75247501D02*
X143954500Y-75247501D01*
X143954500Y-74485500D02*
X142875000Y-73406000D01*
X142875000Y-73406000D02*
X142875000Y-70358000D01*
X142875000Y-70358000D02*
X143637000Y-69596000D01*
X143637000Y-69596000D02*
X143637000Y-66802000D01*
X143637000Y-66802000D02*
X140462000Y-63627000D01*
X140462000Y-63627000D02*
X139700000Y-63627000D01*
X143954500Y-77161612D02*
X143954500Y-77660500D01*
X144416780Y-77152500D02*
X144407668Y-77161612D01*
X145120360Y-77152500D02*
X144416780Y-77152500D01*
X144407668Y-77161612D02*
X143954500Y-77161612D01*
X144526000Y-78232000D02*
X144084882Y-77790882D01*
X143954500Y-77660500D02*
X144084882Y-77790882D01*
X150561000Y-99425760D02*
X150561000Y-100264000D01*
X150561000Y-100264000D02*
X150495000Y-100330000D01*
X144993360Y-77152500D02*
X144081500Y-77152500D01*
X149352000Y-101854000D02*
X149352000Y-100064000D01*
X149352000Y-100064000D02*
X148717000Y-99429000D01*
X146431000Y-99375000D02*
X148663000Y-99375000D01*
X148663000Y-99375000D02*
X148717000Y-99429000D01*
X146431000Y-99375000D02*
X150510240Y-99375000D01*
X150510240Y-99375000D02*
X150561000Y-99425760D01*
D25*
X145288000Y-94373000D02*
X145911000Y-94373000D01*
X146304000Y-93980000D02*
X146304000Y-93599000D01*
X145911000Y-94373000D02*
X146304000Y-93980000D01*
X143891338Y-87585992D02*
X143808008Y-87585992D01*
X143808008Y-87585992D02*
X139827000Y-91567000D01*
X139827000Y-91567000D02*
X139700000Y-91567000D01*
X143256000Y-94373000D02*
X145669000Y-94373000D01*
X144780000Y-70027800D02*
X144780000Y-68822000D01*
X145643600Y-70891400D02*
X144780000Y-70027800D01*
X145304831Y-81434516D02*
X145304831Y-81423831D01*
X145304831Y-81423831D02*
X143891000Y-80010000D01*
X143891000Y-80010000D02*
X143891000Y-79756000D01*
X141859000Y-70612000D02*
X141859000Y-69457000D01*
X141859000Y-69457000D02*
X142494000Y-68822000D01*
X144951008Y-81788338D02*
X144907338Y-81788338D01*
X144907338Y-81788338D02*
X143891000Y-80772000D01*
X143891000Y-80772000D02*
X143891000Y-79756000D01*
X143891000Y-79756000D02*
X143891000Y-79248000D01*
X143891000Y-79248000D02*
X143256000Y-78613000D01*
X143256000Y-78613000D02*
X143256000Y-76454000D01*
X143256000Y-76454000D02*
X142875000Y-76073000D01*
X142875000Y-76073000D02*
X142875000Y-74422000D01*
X142875000Y-74422000D02*
X142367000Y-73914000D01*
X142367000Y-73914000D02*
X142367000Y-72136000D01*
X142367000Y-72136000D02*
X141859000Y-71628000D01*
X141859000Y-71628000D02*
X141859000Y-70612000D01*
X141859000Y-70612000D02*
X141859000Y-69596000D01*
X141859000Y-69596000D02*
X141478000Y-69215000D01*
X141478000Y-69215000D02*
X141478000Y-67945000D01*
X141478000Y-67945000D02*
X139700000Y-66167000D01*
X139954000Y-66167000D02*
X139700000Y-66167000D01*
X150749000Y-68187000D02*
X151880000Y-68187000D01*
X151880000Y-68187000D02*
X152298400Y-68605400D01*
X149352000Y-83439000D02*
X150296814Y-82494186D01*
X150296814Y-82494186D02*
X150394840Y-82494186D01*
X150394840Y-82494186D02*
X150423814Y-82494186D01*
X150423814Y-82494186D02*
X152019000Y-80899000D01*
X152019000Y-80899000D02*
X152019000Y-80137000D01*
X150749000Y-71997000D02*
X150749000Y-72263000D01*
X151102484Y-83201831D02*
X151113169Y-83201831D01*
X151113169Y-83201831D02*
X151892000Y-82423000D01*
D26*
X151892000Y-82423000D02*
X151892000Y-82042000D01*
X147106640Y-77152500D02*
X147129500Y-77152500D01*
X147129500Y-77152500D02*
X148082000Y-78105000D01*
X148082000Y-78105000D02*
X148082000Y-78867000D01*
X144907000Y-99441000D02*
X144907000Y-98298000D01*
X145730000Y-97475000D02*
X146431000Y-97475000D01*
X144907000Y-98298000D02*
X145730000Y-97475000D01*
X144889220Y-99423220D02*
X143256000Y-99423220D01*
X144907000Y-99441000D02*
X144889220Y-99423220D01*
X146431000Y-97475000D02*
X147254000Y-97475000D01*
X147254000Y-97475000D02*
X147828000Y-96901000D01*
X147828000Y-96901000D02*
X150985220Y-96901000D01*
X150985220Y-96901000D02*
X151511000Y-97426780D01*
X146111000Y-97475000D02*
X146431000Y-97475000D01*
D25*
X150013840Y-88291840D02*
X150042814Y-88291840D01*
X150042814Y-88291840D02*
X150042814Y-88320814D01*
X150042814Y-88291840D02*
X150042814Y-88295414D01*
X151384000Y-89636600D02*
X150042814Y-88295414D01*
X151384000Y-89636600D02*
X151384000Y-89890600D01*
X149688992Y-81788338D02*
X149732662Y-81788338D01*
X149732662Y-81788338D02*
X151257000Y-80264000D01*
X151257000Y-80264000D02*
X151257000Y-77846000D01*
X151257000Y-77846000D02*
X150965000Y-77554000D01*
X152527000Y-96774000D02*
X152527000Y-99359760D01*
X152527000Y-99359760D02*
X152461000Y-99425760D01*
X151626000Y-95873000D02*
X150749000Y-95873000D01*
X152527000Y-96774000D02*
X151626000Y-95873000D01*
D26*
X154942000Y-109347000D02*
X154178000Y-109347000D01*
X154178000Y-109347000D02*
X150495000Y-105664000D01*
X150495000Y-105664000D02*
X150495000Y-101473000D01*
X150495000Y-101473000D02*
X152461000Y-99507000D01*
X152461000Y-99507000D02*
X152461000Y-99425760D01*
X148717000Y-97929000D02*
X149872000Y-97929000D01*
X149872000Y-97929000D02*
X150241000Y-98298000D01*
X151765000Y-98425000D02*
X152461000Y-99121000D01*
X150368000Y-98425000D02*
X151765000Y-98425000D01*
X150241000Y-98298000D02*
X150368000Y-98425000D01*
X152461000Y-99121000D02*
X152461000Y-99425760D01*
D25*
X139700000Y-84074000D02*
X139700000Y-83947000D01*
X142113000Y-83947000D02*
X139700000Y-83947000D01*
X142429297Y-84263297D02*
X142113000Y-83947000D01*
X142476050Y-84263297D02*
X142429297Y-84263297D01*
X140843000Y-87630000D02*
X139700000Y-86487000D01*
X142494000Y-87630000D02*
X140843000Y-87630000D01*
X143183694Y-86940306D02*
X142494000Y-87630000D01*
X143183694Y-86878347D02*
X143183694Y-86940306D01*
X145658653Y-81080694D02*
X145658653Y-81142653D01*
X145658653Y-81142653D02*
X146431000Y-81915000D01*
X144653000Y-84201000D02*
X144653000Y-84328000D01*
X146431000Y-82423000D02*
X144653000Y-84201000D01*
X146431000Y-81915000D02*
X146431000Y-82423000D01*
X142306000Y-97424240D02*
X142306000Y-96713000D01*
X142240000Y-93853000D02*
X142303500Y-93789500D01*
X142303500Y-93789500D02*
X142367000Y-93726000D01*
X142240000Y-96647000D02*
X142240000Y-93853000D01*
X142306000Y-96713000D02*
X142240000Y-96647000D01*
X145658653Y-81080694D02*
X145658653Y-81142653D01*
X146939000Y-90551000D02*
X147447000Y-90551000D01*
X144145000Y-93345000D02*
X146939000Y-90551000D01*
X142748000Y-93345000D02*
X144145000Y-93345000D01*
X142303500Y-93789500D02*
X142748000Y-93345000D01*
X144206000Y-97424240D02*
X144206000Y-96823000D01*
X144206000Y-96823000D02*
X143256000Y-95873000D01*
X144206000Y-97424240D02*
X144206000Y-97221000D01*
X146366297Y-90060950D02*
X146286050Y-90060950D01*
X146286050Y-90060950D02*
X144780000Y-91567000D01*
X144780000Y-91567000D02*
X144780000Y-91821000D01*
X143002000Y-101219000D02*
X143002000Y-102362000D01*
X143002000Y-102362000D02*
X142621000Y-102743000D01*
X142621000Y-102743000D02*
X142621000Y-106045000D01*
X142621000Y-106045000D02*
X139700000Y-108966000D01*
X139700000Y-108966000D02*
X139700000Y-109347000D01*
X146012475Y-89707128D02*
X146004872Y-89707128D01*
X146004872Y-89707128D02*
X144145000Y-91567000D01*
X144145000Y-91567000D02*
X144145000Y-92456000D01*
X142240000Y-101981000D02*
X142113000Y-102108000D01*
X142113000Y-102108000D02*
X142113000Y-104648000D01*
X142113000Y-104648000D02*
X139954000Y-106807000D01*
X139954000Y-106807000D02*
X139700000Y-106807000D01*
X145658653Y-89353306D02*
X145596694Y-89353306D01*
X145596694Y-89353306D02*
X143510000Y-91440000D01*
X143510000Y-91440000D02*
X143510000Y-91821000D01*
X141478000Y-101473000D02*
X141478000Y-102997000D01*
X141478000Y-102997000D02*
X140208000Y-104267000D01*
X140208000Y-104267000D02*
X139700000Y-104267000D01*
X147193000Y-94107000D02*
X147193000Y-93599000D01*
X147459000Y-94373000D02*
X147193000Y-94107000D01*
X148463000Y-94373000D02*
X147459000Y-94373000D01*
X143537516Y-87232169D02*
X143526831Y-87232169D01*
X143526831Y-87232169D02*
X141732000Y-89027000D01*
X141732000Y-89027000D02*
X139700000Y-89027000D01*
D27*
G36*
X144907000Y-101727000D02*
X144927000Y-101727000D01*
X144927000Y-101981000D01*
X144907000Y-101981000D01*
X144907000Y-103346250D01*
X145065750Y-103505000D01*
X145414309Y-103505000D01*
X145647698Y-103408327D01*
X145826327Y-103229699D01*
X145923000Y-102996310D01*
X145923000Y-102936113D01*
X145954838Y-103105317D01*
X146093910Y-103321441D01*
X146306110Y-103466431D01*
X146558000Y-103517440D01*
X147574000Y-103517440D01*
X147809317Y-103473162D01*
X148025441Y-103334090D01*
X148170431Y-103121890D01*
X148208543Y-102933686D01*
X148240838Y-103105317D01*
X148379910Y-103321441D01*
X148592110Y-103466431D01*
X148844000Y-103517440D01*
X149657000Y-103517440D01*
X149657000Y-104985940D01*
X149304850Y-104985632D01*
X148906077Y-105150402D01*
X148600714Y-105455233D01*
X148435249Y-105853717D01*
X148434872Y-106285190D01*
X148599642Y-106683963D01*
X148710046Y-106794560D01*
X145932643Y-106794560D01*
X146041826Y-106685567D01*
X146207291Y-106287083D01*
X146207668Y-105855610D01*
X146042898Y-105456837D01*
X145738067Y-105151474D01*
X145339583Y-104986009D01*
X144908110Y-104985632D01*
X144509337Y-105150402D01*
X144203974Y-105455233D01*
X144038509Y-105853717D01*
X144038132Y-106285190D01*
X144202902Y-106683963D01*
X144507733Y-106989326D01*
X144718235Y-107076734D01*
X144640769Y-107190110D01*
X144589760Y-107442000D01*
X144589760Y-109474000D01*
X144634038Y-109709317D01*
X144773110Y-109925441D01*
X144985310Y-110070431D01*
X145237200Y-110121440D01*
X148894800Y-110121440D01*
X149130117Y-110077162D01*
X149346241Y-109938090D01*
X149491231Y-109725890D01*
X149542240Y-109474000D01*
X149542240Y-107442000D01*
X149497962Y-107206683D01*
X149464661Y-107154932D01*
X149734430Y-107155168D01*
X150133203Y-106990398D01*
X150384965Y-106739075D01*
X153194740Y-109548851D01*
X153194740Y-110109000D01*
X153209229Y-110186000D01*
X141431667Y-110186000D01*
X141447260Y-110109000D01*
X141447260Y-108585000D01*
X141402982Y-108349683D01*
X141385381Y-108322329D01*
X143141855Y-106565855D01*
X143169077Y-106525115D01*
X143301530Y-106326885D01*
X143357600Y-106045000D01*
X143357600Y-103048110D01*
X143522855Y-102882855D01*
X143637000Y-102712025D01*
X143637000Y-102996310D01*
X143733673Y-103229699D01*
X143912302Y-103408327D01*
X144145691Y-103505000D01*
X144494250Y-103505000D01*
X144653000Y-103346250D01*
X144653000Y-101981000D01*
X144633000Y-101981000D01*
X144633000Y-101727000D01*
X144653000Y-101727000D01*
X144653000Y-101707000D01*
X144907000Y-101707000D01*
X144907000Y-101727000D01*
X144907000Y-101727000D01*
G37*
X144907000Y-101727000D02*
X144927000Y-101727000D01*
X144927000Y-101981000D01*
X144907000Y-101981000D01*
X144907000Y-103346250D01*
X145065750Y-103505000D01*
X145414309Y-103505000D01*
X145647698Y-103408327D01*
X145826327Y-103229699D01*
X145923000Y-102996310D01*
X145923000Y-102936113D01*
X145954838Y-103105317D01*
X146093910Y-103321441D01*
X146306110Y-103466431D01*
X146558000Y-103517440D01*
X147574000Y-103517440D01*
X147809317Y-103473162D01*
X148025441Y-103334090D01*
X148170431Y-103121890D01*
X148208543Y-102933686D01*
X148240838Y-103105317D01*
X148379910Y-103321441D01*
X148592110Y-103466431D01*
X148844000Y-103517440D01*
X149657000Y-103517440D01*
X149657000Y-104985940D01*
X149304850Y-104985632D01*
X148906077Y-105150402D01*
X148600714Y-105455233D01*
X148435249Y-105853717D01*
X148434872Y-106285190D01*
X148599642Y-106683963D01*
X148710046Y-106794560D01*
X145932643Y-106794560D01*
X146041826Y-106685567D01*
X146207291Y-106287083D01*
X146207668Y-105855610D01*
X146042898Y-105456837D01*
X145738067Y-105151474D01*
X145339583Y-104986009D01*
X144908110Y-104985632D01*
X144509337Y-105150402D01*
X144203974Y-105455233D01*
X144038509Y-105853717D01*
X144038132Y-106285190D01*
X144202902Y-106683963D01*
X144507733Y-106989326D01*
X144718235Y-107076734D01*
X144640769Y-107190110D01*
X144589760Y-107442000D01*
X144589760Y-109474000D01*
X144634038Y-109709317D01*
X144773110Y-109925441D01*
X144985310Y-110070431D01*
X145237200Y-110121440D01*
X148894800Y-110121440D01*
X149130117Y-110077162D01*
X149346241Y-109938090D01*
X149491231Y-109725890D01*
X149542240Y-109474000D01*
X149542240Y-107442000D01*
X149497962Y-107206683D01*
X149464661Y-107154932D01*
X149734430Y-107155168D01*
X150133203Y-106990398D01*
X150384965Y-106739075D01*
X153194740Y-109548851D01*
X153194740Y-110109000D01*
X153209229Y-110186000D01*
X141431667Y-110186000D01*
X141447260Y-110109000D01*
X141447260Y-108585000D01*
X141402982Y-108349683D01*
X141385381Y-108322329D01*
X143141855Y-106565855D01*
X143169077Y-106525115D01*
X143301530Y-106326885D01*
X143357600Y-106045000D01*
X143357600Y-103048110D01*
X143522855Y-102882855D01*
X143637000Y-102712025D01*
X143637000Y-102996310D01*
X143733673Y-103229699D01*
X143912302Y-103408327D01*
X144145691Y-103505000D01*
X144494250Y-103505000D01*
X144653000Y-103346250D01*
X144653000Y-101981000D01*
X144633000Y-101981000D01*
X144633000Y-101727000D01*
X144653000Y-101727000D01*
X144653000Y-101707000D01*
X144907000Y-101707000D01*
X144907000Y-101727000D01*
G36*
X148006000Y-91712006D02*
X147972419Y-91745528D01*
X147815479Y-92123481D01*
X147815122Y-92532723D01*
X147971402Y-92910950D01*
X148260528Y-93200581D01*
X148638481Y-93357521D01*
X149047723Y-93357878D01*
X149425950Y-93201598D01*
X149713408Y-92914641D01*
X149946580Y-93148220D01*
X150204117Y-93255159D01*
X150300325Y-93488000D01*
X150172690Y-93488000D01*
X149939301Y-93584673D01*
X149760673Y-93763302D01*
X149664000Y-93996691D01*
X149664000Y-94089250D01*
X149822750Y-94248000D01*
X150622000Y-94248000D01*
X150622000Y-94226000D01*
X150876000Y-94226000D01*
X150876000Y-94248000D01*
X150896000Y-94248000D01*
X150896000Y-94498000D01*
X150876000Y-94498000D01*
X150876000Y-94520000D01*
X150622000Y-94520000D01*
X150622000Y-94498000D01*
X149822750Y-94498000D01*
X149664000Y-94656750D01*
X149664000Y-94749309D01*
X149760673Y-94982698D01*
X149901910Y-95123936D01*
X149847559Y-95158910D01*
X149702569Y-95371110D01*
X149651560Y-95623000D01*
X149651560Y-96063000D01*
X149560440Y-96063000D01*
X149560440Y-95623000D01*
X149516162Y-95387683D01*
X149377090Y-95171559D01*
X149307289Y-95123866D01*
X149364441Y-95087090D01*
X149509431Y-94874890D01*
X149560440Y-94623000D01*
X149560440Y-94123000D01*
X149516162Y-93887683D01*
X149377090Y-93671559D01*
X149164890Y-93526569D01*
X148913000Y-93475560D01*
X148160009Y-93475560D01*
X148160068Y-93407515D01*
X148013176Y-93052011D01*
X147741420Y-92779780D01*
X147386172Y-92632268D01*
X147001515Y-92631932D01*
X146748316Y-92736552D01*
X146497172Y-92632268D01*
X146112515Y-92631932D01*
X145757011Y-92778824D01*
X145484780Y-93050580D01*
X145337268Y-93405828D01*
X145337207Y-93475560D01*
X145056150Y-93475560D01*
X147084351Y-91447359D01*
X147253828Y-91517732D01*
X147638485Y-91518068D01*
X147993989Y-91371176D01*
X148006000Y-91359186D01*
X148006000Y-91712006D01*
X148006000Y-91712006D01*
G37*
X148006000Y-91712006D02*
X147972419Y-91745528D01*
X147815479Y-92123481D01*
X147815122Y-92532723D01*
X147971402Y-92910950D01*
X148260528Y-93200581D01*
X148638481Y-93357521D01*
X149047723Y-93357878D01*
X149425950Y-93201598D01*
X149713408Y-92914641D01*
X149946580Y-93148220D01*
X150204117Y-93255159D01*
X150300325Y-93488000D01*
X150172690Y-93488000D01*
X149939301Y-93584673D01*
X149760673Y-93763302D01*
X149664000Y-93996691D01*
X149664000Y-94089250D01*
X149822750Y-94248000D01*
X150622000Y-94248000D01*
X150622000Y-94226000D01*
X150876000Y-94226000D01*
X150876000Y-94248000D01*
X150896000Y-94248000D01*
X150896000Y-94498000D01*
X150876000Y-94498000D01*
X150876000Y-94520000D01*
X150622000Y-94520000D01*
X150622000Y-94498000D01*
X149822750Y-94498000D01*
X149664000Y-94656750D01*
X149664000Y-94749309D01*
X149760673Y-94982698D01*
X149901910Y-95123936D01*
X149847559Y-95158910D01*
X149702569Y-95371110D01*
X149651560Y-95623000D01*
X149651560Y-96063000D01*
X149560440Y-96063000D01*
X149560440Y-95623000D01*
X149516162Y-95387683D01*
X149377090Y-95171559D01*
X149307289Y-95123866D01*
X149364441Y-95087090D01*
X149509431Y-94874890D01*
X149560440Y-94623000D01*
X149560440Y-94123000D01*
X149516162Y-93887683D01*
X149377090Y-93671559D01*
X149164890Y-93526569D01*
X148913000Y-93475560D01*
X148160009Y-93475560D01*
X148160068Y-93407515D01*
X148013176Y-93052011D01*
X147741420Y-92779780D01*
X147386172Y-92632268D01*
X147001515Y-92631932D01*
X146748316Y-92736552D01*
X146497172Y-92632268D01*
X146112515Y-92631932D01*
X145757011Y-92778824D01*
X145484780Y-93050580D01*
X145337268Y-93405828D01*
X145337207Y-93475560D01*
X145056150Y-93475560D01*
X147084351Y-91447359D01*
X147253828Y-91517732D01*
X147638485Y-91518068D01*
X147993989Y-91371176D01*
X148006000Y-91359186D01*
X148006000Y-91712006D01*
G36*
X146364828Y-86539332D02*
X146749485Y-86539668D01*
X146753995Y-86537804D01*
X146784115Y-86557930D01*
X147066000Y-86614000D01*
X149076704Y-86614000D01*
X149159180Y-86696620D01*
X149514428Y-86844132D01*
X149677327Y-86844274D01*
X149665388Y-86861748D01*
X149583209Y-86916249D01*
X149371275Y-87128183D01*
X149312321Y-87214464D01*
X149231183Y-87268275D01*
X149019249Y-87480209D01*
X148959540Y-87567596D01*
X148877361Y-87622097D01*
X148665427Y-87834031D01*
X148605719Y-87921417D01*
X148523538Y-87975919D01*
X148311604Y-88187853D01*
X148251895Y-88275240D01*
X148169716Y-88329741D01*
X147957782Y-88541675D01*
X147931399Y-88580288D01*
X147404557Y-88053447D01*
X147404555Y-88053444D01*
X146896557Y-87545447D01*
X146896555Y-87545444D01*
X146515557Y-87164447D01*
X146515555Y-87164444D01*
X146253000Y-86901890D01*
X146253000Y-86492897D01*
X146364828Y-86539332D01*
X146364828Y-86539332D01*
G37*
X146364828Y-86539332D02*
X146749485Y-86539668D01*
X146753995Y-86537804D01*
X146784115Y-86557930D01*
X147066000Y-86614000D01*
X149076704Y-86614000D01*
X149159180Y-86696620D01*
X149514428Y-86844132D01*
X149677327Y-86844274D01*
X149665388Y-86861748D01*
X149583209Y-86916249D01*
X149371275Y-87128183D01*
X149312321Y-87214464D01*
X149231183Y-87268275D01*
X149019249Y-87480209D01*
X148959540Y-87567596D01*
X148877361Y-87622097D01*
X148665427Y-87834031D01*
X148605719Y-87921417D01*
X148523538Y-87975919D01*
X148311604Y-88187853D01*
X148251895Y-88275240D01*
X148169716Y-88329741D01*
X147957782Y-88541675D01*
X147931399Y-88580288D01*
X147404557Y-88053447D01*
X147404555Y-88053444D01*
X146896557Y-87545447D01*
X146896555Y-87545444D01*
X146515557Y-87164447D01*
X146515555Y-87164444D01*
X146253000Y-86901890D01*
X146253000Y-86492897D01*
X146364828Y-86539332D01*
G36*
X148531824Y-83985989D02*
X148803580Y-84258220D01*
X149158828Y-84405732D01*
X149543485Y-84406068D01*
X149898989Y-84259176D01*
X150111997Y-84046540D01*
X150290853Y-84225396D01*
X150378240Y-84285105D01*
X150432741Y-84367284D01*
X150644675Y-84579218D01*
X150732062Y-84638927D01*
X150786563Y-84721106D01*
X150998497Y-84933040D01*
X151085884Y-84992749D01*
X151140385Y-85074928D01*
X151282457Y-85217000D01*
X151140385Y-85359072D01*
X151080676Y-85446459D01*
X150998497Y-85500960D01*
X150786563Y-85712894D01*
X150726854Y-85800281D01*
X150674538Y-85834977D01*
X150674668Y-85685915D01*
X150527776Y-85330411D01*
X150256020Y-85058180D01*
X149900772Y-84910668D01*
X149516115Y-84910332D01*
X149160611Y-85057224D01*
X149076889Y-85140800D01*
X147425771Y-85140800D01*
X147378176Y-85025611D01*
X147137985Y-84785000D01*
X147193000Y-84785000D01*
X147513689Y-84721211D01*
X147785555Y-84539555D01*
X148420556Y-83904555D01*
X148468517Y-83832776D01*
X148531824Y-83985989D01*
X148531824Y-83985989D01*
G37*
X148531824Y-83985989D02*
X148803580Y-84258220D01*
X149158828Y-84405732D01*
X149543485Y-84406068D01*
X149898989Y-84259176D01*
X150111997Y-84046540D01*
X150290853Y-84225396D01*
X150378240Y-84285105D01*
X150432741Y-84367284D01*
X150644675Y-84579218D01*
X150732062Y-84638927D01*
X150786563Y-84721106D01*
X150998497Y-84933040D01*
X151085884Y-84992749D01*
X151140385Y-85074928D01*
X151282457Y-85217000D01*
X151140385Y-85359072D01*
X151080676Y-85446459D01*
X150998497Y-85500960D01*
X150786563Y-85712894D01*
X150726854Y-85800281D01*
X150674538Y-85834977D01*
X150674668Y-85685915D01*
X150527776Y-85330411D01*
X150256020Y-85058180D01*
X149900772Y-84910668D01*
X149516115Y-84910332D01*
X149160611Y-85057224D01*
X149076889Y-85140800D01*
X147425771Y-85140800D01*
X147378176Y-85025611D01*
X147137985Y-84785000D01*
X147193000Y-84785000D01*
X147513689Y-84721211D01*
X147785555Y-84539555D01*
X148420556Y-83904555D01*
X148468517Y-83832776D01*
X148531824Y-83985989D01*
G36*
X145686419Y-78156528D02*
X145529479Y-78534481D01*
X145529122Y-78943723D01*
X145604297Y-79125661D01*
X145604297Y-79316570D01*
X145554666Y-79349485D01*
X145342732Y-79561419D01*
X145301529Y-79621722D01*
X145298955Y-79622788D01*
X145268910Y-79652833D01*
X145268910Y-79669461D01*
X145207647Y-79759122D01*
X145178607Y-79892993D01*
X145061204Y-79915084D01*
X144958334Y-79983307D01*
X144938436Y-79983307D01*
X144922227Y-79999517D01*
X144627600Y-79704890D01*
X144627600Y-79260789D01*
X144729723Y-79260878D01*
X145107950Y-79104598D01*
X145397581Y-78815472D01*
X145554521Y-78437519D01*
X145554816Y-78099660D01*
X145620740Y-78099660D01*
X145771874Y-78071222D01*
X145686419Y-78156528D01*
X145686419Y-78156528D01*
G37*
X145686419Y-78156528D02*
X145529479Y-78534481D01*
X145529122Y-78943723D01*
X145604297Y-79125661D01*
X145604297Y-79316570D01*
X145554666Y-79349485D01*
X145342732Y-79561419D01*
X145301529Y-79621722D01*
X145298955Y-79622788D01*
X145268910Y-79652833D01*
X145268910Y-79669461D01*
X145207647Y-79759122D01*
X145178607Y-79892993D01*
X145061204Y-79915084D01*
X144958334Y-79983307D01*
X144938436Y-79983307D01*
X144922227Y-79999517D01*
X144627600Y-79704890D01*
X144627600Y-79260789D01*
X144729723Y-79260878D01*
X145107950Y-79104598D01*
X145397581Y-78815472D01*
X145554521Y-78437519D01*
X145554816Y-78099660D01*
X145620740Y-78099660D01*
X145771874Y-78071222D01*
X145686419Y-78156528D01*
G36*
X154004664Y-77597000D02*
X153736459Y-77776209D01*
X153641250Y-77681000D01*
X152692000Y-77681000D01*
X152692000Y-78730250D01*
X152850750Y-78889000D01*
X153177569Y-78889000D01*
X153279533Y-79401609D01*
X153314039Y-79453251D01*
X152938032Y-79829258D01*
X152839176Y-79590011D01*
X152567420Y-79317780D01*
X152212172Y-79170268D01*
X151993600Y-79170077D01*
X151993600Y-78889000D01*
X152279250Y-78889000D01*
X152438000Y-78730250D01*
X152438000Y-77681000D01*
X152418000Y-77681000D01*
X152418000Y-77427000D01*
X152438000Y-77427000D01*
X152438000Y-77407000D01*
X152692000Y-77407000D01*
X152692000Y-77427000D01*
X153641250Y-77427000D01*
X153684906Y-77383344D01*
X154004664Y-77597000D01*
X154004664Y-77597000D01*
G37*
X154004664Y-77597000D02*
X153736459Y-77776209D01*
X153641250Y-77681000D01*
X152692000Y-77681000D01*
X152692000Y-78730250D01*
X152850750Y-78889000D01*
X153177569Y-78889000D01*
X153279533Y-79401609D01*
X153314039Y-79453251D01*
X152938032Y-79829258D01*
X152839176Y-79590011D01*
X152567420Y-79317780D01*
X152212172Y-79170268D01*
X151993600Y-79170077D01*
X151993600Y-78889000D01*
X152279250Y-78889000D01*
X152438000Y-78730250D01*
X152438000Y-77681000D01*
X152418000Y-77681000D01*
X152418000Y-77427000D01*
X152438000Y-77427000D01*
X152438000Y-77407000D01*
X152692000Y-77407000D01*
X152692000Y-77427000D01*
X153641250Y-77427000D01*
X153684906Y-77383344D01*
X154004664Y-77597000D01*
G36*
X146269170Y-75998661D02*
X146481370Y-76143651D01*
X146733260Y-76194660D01*
X147472400Y-76194660D01*
X147472400Y-76205340D01*
X146733260Y-76205340D01*
X146497943Y-76249618D01*
X146281819Y-76388690D01*
X146231835Y-76461845D01*
X146096990Y-76327000D01*
X145976031Y-76327000D01*
X145872630Y-76256349D01*
X145620740Y-76205340D01*
X144973360Y-76205340D01*
X144973360Y-76194660D01*
X145620740Y-76194660D01*
X145856057Y-76150382D01*
X145976312Y-76073000D01*
X146096990Y-76073000D01*
X146230862Y-75939128D01*
X146269170Y-75998661D01*
X146269170Y-75998661D01*
G37*
X146269170Y-75998661D02*
X146481370Y-76143651D01*
X146733260Y-76194660D01*
X147472400Y-76194660D01*
X147472400Y-76205340D01*
X146733260Y-76205340D01*
X146497943Y-76249618D01*
X146281819Y-76388690D01*
X146231835Y-76461845D01*
X146096990Y-76327000D01*
X145976031Y-76327000D01*
X145872630Y-76256349D01*
X145620740Y-76205340D01*
X144973360Y-76205340D01*
X144973360Y-76194660D01*
X145620740Y-76194660D01*
X145856057Y-76150382D01*
X145976312Y-76073000D01*
X146096990Y-76073000D01*
X146230862Y-75939128D01*
X146269170Y-75998661D01*
G36*
X147865750Y-68187000D02*
X148590000Y-68187000D01*
X148590000Y-68167000D01*
X148844000Y-68167000D01*
X148844000Y-68187000D01*
X148864000Y-68187000D01*
X148864000Y-68441000D01*
X148844000Y-68441000D01*
X148844000Y-69190250D01*
X149002750Y-69349000D01*
X149164490Y-69349000D01*
X149746421Y-69930931D01*
X149702569Y-69995110D01*
X149651560Y-70247000D01*
X149651560Y-70747000D01*
X149695838Y-70982317D01*
X149834910Y-71198441D01*
X149904711Y-71246134D01*
X149847559Y-71282910D01*
X149702569Y-71495110D01*
X149651560Y-71747000D01*
X149651560Y-72247000D01*
X149683247Y-72415400D01*
X149612440Y-72415400D01*
X149612440Y-71724000D01*
X149568162Y-71488683D01*
X149501671Y-71385354D01*
X149503327Y-71383698D01*
X149600000Y-71150309D01*
X149600000Y-70909750D01*
X149441250Y-70751000D01*
X148717000Y-70751000D01*
X148717000Y-70771000D01*
X148463000Y-70771000D01*
X148463000Y-70751000D01*
X147738750Y-70751000D01*
X147580000Y-70909750D01*
X147580000Y-71150309D01*
X147676673Y-71383698D01*
X147678043Y-71385068D01*
X147618569Y-71472110D01*
X147567560Y-71724000D01*
X147567560Y-72524000D01*
X147611838Y-72759317D01*
X147750910Y-72975441D01*
X147810876Y-73016414D01*
X146585785Y-74241505D01*
X146519611Y-74340541D01*
X146497943Y-74344618D01*
X146281819Y-74483690D01*
X146176179Y-74638299D01*
X146084830Y-74496339D01*
X145872630Y-74351349D01*
X145620740Y-74300340D01*
X144755670Y-74300340D01*
X144728712Y-74164812D01*
X144547056Y-73892945D01*
X143713000Y-73058890D01*
X143713000Y-70705110D01*
X144103057Y-70315054D01*
X144259145Y-70548655D01*
X144676634Y-70966144D01*
X144676532Y-71082885D01*
X144823424Y-71438389D01*
X145095180Y-71710620D01*
X145450428Y-71858132D01*
X145835085Y-71858468D01*
X146190589Y-71711576D01*
X146462820Y-71439820D01*
X146610332Y-71084572D01*
X146610668Y-70699915D01*
X146463776Y-70344411D01*
X146217487Y-70097691D01*
X147580000Y-70097691D01*
X147580000Y-70338250D01*
X147738750Y-70497000D01*
X148463000Y-70497000D01*
X148463000Y-69747750D01*
X148717000Y-69747750D01*
X148717000Y-70497000D01*
X149441250Y-70497000D01*
X149600000Y-70338250D01*
X149600000Y-70097691D01*
X149503327Y-69864302D01*
X149324699Y-69685673D01*
X149091310Y-69589000D01*
X148875750Y-69589000D01*
X148717000Y-69747750D01*
X148463000Y-69747750D01*
X148304250Y-69589000D01*
X148088690Y-69589000D01*
X147855301Y-69685673D01*
X147676673Y-69864302D01*
X147580000Y-70097691D01*
X146217487Y-70097691D01*
X146192020Y-70072180D01*
X145836772Y-69924668D01*
X145718475Y-69924565D01*
X145516600Y-69722690D01*
X145516600Y-69642162D01*
X145681441Y-69536090D01*
X145826431Y-69323890D01*
X145877440Y-69072000D01*
X145877440Y-69022437D01*
X145898673Y-69073698D01*
X146077301Y-69252327D01*
X146310690Y-69349000D01*
X146526250Y-69349000D01*
X146685000Y-69190250D01*
X146685000Y-68441000D01*
X146939000Y-68441000D01*
X146939000Y-69190250D01*
X147097750Y-69349000D01*
X147313310Y-69349000D01*
X147546699Y-69252327D01*
X147725327Y-69073698D01*
X147764500Y-68979126D01*
X147803673Y-69073698D01*
X147982301Y-69252327D01*
X148215690Y-69349000D01*
X148431250Y-69349000D01*
X148590000Y-69190250D01*
X148590000Y-68441000D01*
X147865750Y-68441000D01*
X147764500Y-68542250D01*
X147663250Y-68441000D01*
X146939000Y-68441000D01*
X146685000Y-68441000D01*
X146665000Y-68441000D01*
X146665000Y-68187000D01*
X146685000Y-68187000D01*
X146685000Y-68167000D01*
X146939000Y-68167000D01*
X146939000Y-68187000D01*
X147663250Y-68187000D01*
X147764500Y-68085750D01*
X147865750Y-68187000D01*
X147865750Y-68187000D01*
G37*
X147865750Y-68187000D02*
X148590000Y-68187000D01*
X148590000Y-68167000D01*
X148844000Y-68167000D01*
X148844000Y-68187000D01*
X148864000Y-68187000D01*
X148864000Y-68441000D01*
X148844000Y-68441000D01*
X148844000Y-69190250D01*
X149002750Y-69349000D01*
X149164490Y-69349000D01*
X149746421Y-69930931D01*
X149702569Y-69995110D01*
X149651560Y-70247000D01*
X149651560Y-70747000D01*
X149695838Y-70982317D01*
X149834910Y-71198441D01*
X149904711Y-71246134D01*
X149847559Y-71282910D01*
X149702569Y-71495110D01*
X149651560Y-71747000D01*
X149651560Y-72247000D01*
X149683247Y-72415400D01*
X149612440Y-72415400D01*
X149612440Y-71724000D01*
X149568162Y-71488683D01*
X149501671Y-71385354D01*
X149503327Y-71383698D01*
X149600000Y-71150309D01*
X149600000Y-70909750D01*
X149441250Y-70751000D01*
X148717000Y-70751000D01*
X148717000Y-70771000D01*
X148463000Y-70771000D01*
X148463000Y-70751000D01*
X147738750Y-70751000D01*
X147580000Y-70909750D01*
X147580000Y-71150309D01*
X147676673Y-71383698D01*
X147678043Y-71385068D01*
X147618569Y-71472110D01*
X147567560Y-71724000D01*
X147567560Y-72524000D01*
X147611838Y-72759317D01*
X147750910Y-72975441D01*
X147810876Y-73016414D01*
X146585785Y-74241505D01*
X146519611Y-74340541D01*
X146497943Y-74344618D01*
X146281819Y-74483690D01*
X146176179Y-74638299D01*
X146084830Y-74496339D01*
X145872630Y-74351349D01*
X145620740Y-74300340D01*
X144755670Y-74300340D01*
X144728712Y-74164812D01*
X144547056Y-73892945D01*
X143713000Y-73058890D01*
X143713000Y-70705110D01*
X144103057Y-70315054D01*
X144259145Y-70548655D01*
X144676634Y-70966144D01*
X144676532Y-71082885D01*
X144823424Y-71438389D01*
X145095180Y-71710620D01*
X145450428Y-71858132D01*
X145835085Y-71858468D01*
X146190589Y-71711576D01*
X146462820Y-71439820D01*
X146610332Y-71084572D01*
X146610668Y-70699915D01*
X146463776Y-70344411D01*
X146217487Y-70097691D01*
X147580000Y-70097691D01*
X147580000Y-70338250D01*
X147738750Y-70497000D01*
X148463000Y-70497000D01*
X148463000Y-69747750D01*
X148717000Y-69747750D01*
X148717000Y-70497000D01*
X149441250Y-70497000D01*
X149600000Y-70338250D01*
X149600000Y-70097691D01*
X149503327Y-69864302D01*
X149324699Y-69685673D01*
X149091310Y-69589000D01*
X148875750Y-69589000D01*
X148717000Y-69747750D01*
X148463000Y-69747750D01*
X148304250Y-69589000D01*
X148088690Y-69589000D01*
X147855301Y-69685673D01*
X147676673Y-69864302D01*
X147580000Y-70097691D01*
X146217487Y-70097691D01*
X146192020Y-70072180D01*
X145836772Y-69924668D01*
X145718475Y-69924565D01*
X145516600Y-69722690D01*
X145516600Y-69642162D01*
X145681441Y-69536090D01*
X145826431Y-69323890D01*
X145877440Y-69072000D01*
X145877440Y-69022437D01*
X145898673Y-69073698D01*
X146077301Y-69252327D01*
X146310690Y-69349000D01*
X146526250Y-69349000D01*
X146685000Y-69190250D01*
X146685000Y-68441000D01*
X146939000Y-68441000D01*
X146939000Y-69190250D01*
X147097750Y-69349000D01*
X147313310Y-69349000D01*
X147546699Y-69252327D01*
X147725327Y-69073698D01*
X147764500Y-68979126D01*
X147803673Y-69073698D01*
X147982301Y-69252327D01*
X148215690Y-69349000D01*
X148431250Y-69349000D01*
X148590000Y-69190250D01*
X148590000Y-68441000D01*
X147865750Y-68441000D01*
X147764500Y-68542250D01*
X147663250Y-68441000D01*
X146939000Y-68441000D01*
X146685000Y-68441000D01*
X146665000Y-68441000D01*
X146665000Y-68187000D01*
X146685000Y-68187000D01*
X146685000Y-68167000D01*
X146939000Y-68167000D01*
X146939000Y-68187000D01*
X147663250Y-68187000D01*
X147764500Y-68085750D01*
X147865750Y-68187000D01*
G36*
X153279533Y-60552391D02*
X153173193Y-61087000D01*
X153279533Y-61621609D01*
X153582365Y-62074828D01*
X154017606Y-62365647D01*
X153952239Y-62384941D01*
X153526550Y-62728974D01*
X153264920Y-63209723D01*
X153249960Y-63283930D01*
X153372460Y-63500000D01*
X154815000Y-63500000D01*
X154815000Y-63480000D01*
X155069000Y-63480000D01*
X155069000Y-63500000D01*
X155089000Y-63500000D01*
X155089000Y-63754000D01*
X155069000Y-63754000D01*
X155069000Y-63774000D01*
X154815000Y-63774000D01*
X154815000Y-63754000D01*
X153372460Y-63754000D01*
X153249960Y-63970070D01*
X153264920Y-64044277D01*
X153526550Y-64525026D01*
X153952239Y-64869059D01*
X154017606Y-64888353D01*
X153582365Y-65179172D01*
X153279533Y-65632391D01*
X153182356Y-66120934D01*
X152641145Y-66662145D01*
X152481470Y-66901115D01*
X152425400Y-67183000D01*
X152425400Y-67638610D01*
X152359560Y-67638553D01*
X152161885Y-67506470D01*
X151880000Y-67450400D01*
X151611633Y-67450400D01*
X151593289Y-67437866D01*
X151650441Y-67401090D01*
X151795431Y-67188890D01*
X151846440Y-66937000D01*
X151846440Y-66437000D01*
X151802162Y-66201683D01*
X151663090Y-65985559D01*
X151450890Y-65840569D01*
X151199000Y-65789560D01*
X150299000Y-65789560D01*
X150063683Y-65833838D01*
X150040121Y-65849000D01*
X149793328Y-65849000D01*
X149733000Y-65837000D01*
X149672672Y-65849000D01*
X149389891Y-65849000D01*
X149343890Y-65817569D01*
X149334101Y-65815587D01*
X149237855Y-65671545D01*
X149110712Y-65544402D01*
X149110878Y-65353677D01*
X149068455Y-65251005D01*
X149425272Y-65450882D01*
X149516930Y-65467630D01*
X149733000Y-65345130D01*
X149733000Y-64002920D01*
X149987000Y-64002920D01*
X149987000Y-65345130D01*
X150203070Y-65467630D01*
X150294728Y-65450882D01*
X150773465Y-65182710D01*
X151113135Y-64751747D01*
X151262027Y-64223602D01*
X151103254Y-64002920D01*
X149987000Y-64002920D01*
X149733000Y-64002920D01*
X149713000Y-64002920D01*
X149713000Y-63748920D01*
X149733000Y-63748920D01*
X149733000Y-63728920D01*
X149987000Y-63728920D01*
X149987000Y-63748920D01*
X151103254Y-63748920D01*
X151262027Y-63528238D01*
X151113135Y-63000093D01*
X150773465Y-62569130D01*
X150428267Y-62375762D01*
X150847828Y-62095420D01*
X151150660Y-61642201D01*
X151257000Y-61107592D01*
X151257000Y-60568568D01*
X151193235Y-60248000D01*
X153482921Y-60248000D01*
X153279533Y-60552391D01*
X153279533Y-60552391D01*
G37*
X153279533Y-60552391D02*
X153173193Y-61087000D01*
X153279533Y-61621609D01*
X153582365Y-62074828D01*
X154017606Y-62365647D01*
X153952239Y-62384941D01*
X153526550Y-62728974D01*
X153264920Y-63209723D01*
X153249960Y-63283930D01*
X153372460Y-63500000D01*
X154815000Y-63500000D01*
X154815000Y-63480000D01*
X155069000Y-63480000D01*
X155069000Y-63500000D01*
X155089000Y-63500000D01*
X155089000Y-63754000D01*
X155069000Y-63754000D01*
X155069000Y-63774000D01*
X154815000Y-63774000D01*
X154815000Y-63754000D01*
X153372460Y-63754000D01*
X153249960Y-63970070D01*
X153264920Y-64044277D01*
X153526550Y-64525026D01*
X153952239Y-64869059D01*
X154017606Y-64888353D01*
X153582365Y-65179172D01*
X153279533Y-65632391D01*
X153182356Y-66120934D01*
X152641145Y-66662145D01*
X152481470Y-66901115D01*
X152425400Y-67183000D01*
X152425400Y-67638610D01*
X152359560Y-67638553D01*
X152161885Y-67506470D01*
X151880000Y-67450400D01*
X151611633Y-67450400D01*
X151593289Y-67437866D01*
X151650441Y-67401090D01*
X151795431Y-67188890D01*
X151846440Y-66937000D01*
X151846440Y-66437000D01*
X151802162Y-66201683D01*
X151663090Y-65985559D01*
X151450890Y-65840569D01*
X151199000Y-65789560D01*
X150299000Y-65789560D01*
X150063683Y-65833838D01*
X150040121Y-65849000D01*
X149793328Y-65849000D01*
X149733000Y-65837000D01*
X149672672Y-65849000D01*
X149389891Y-65849000D01*
X149343890Y-65817569D01*
X149334101Y-65815587D01*
X149237855Y-65671545D01*
X149110712Y-65544402D01*
X149110878Y-65353677D01*
X149068455Y-65251005D01*
X149425272Y-65450882D01*
X149516930Y-65467630D01*
X149733000Y-65345130D01*
X149733000Y-64002920D01*
X149987000Y-64002920D01*
X149987000Y-65345130D01*
X150203070Y-65467630D01*
X150294728Y-65450882D01*
X150773465Y-65182710D01*
X151113135Y-64751747D01*
X151262027Y-64223602D01*
X151103254Y-64002920D01*
X149987000Y-64002920D01*
X149733000Y-64002920D01*
X149713000Y-64002920D01*
X149713000Y-63748920D01*
X149733000Y-63748920D01*
X149733000Y-63728920D01*
X149987000Y-63728920D01*
X149987000Y-63748920D01*
X151103254Y-63748920D01*
X151262027Y-63528238D01*
X151113135Y-63000093D01*
X150773465Y-62569130D01*
X150428267Y-62375762D01*
X150847828Y-62095420D01*
X151150660Y-61642201D01*
X151257000Y-61107592D01*
X151257000Y-60568568D01*
X151193235Y-60248000D01*
X153482921Y-60248000D01*
X153279533Y-60552391D01*
G36*
X142621000Y-67197000D02*
X142641000Y-67197000D01*
X142641000Y-67447000D01*
X142621000Y-67447000D01*
X142621000Y-67469000D01*
X142367000Y-67469000D01*
X142367000Y-67447000D01*
X142347000Y-67447000D01*
X142347000Y-67197000D01*
X142367000Y-67197000D01*
X142367000Y-67175000D01*
X142621000Y-67175000D01*
X142621000Y-67197000D01*
X142621000Y-67197000D01*
G37*
X142621000Y-67197000D02*
X142641000Y-67197000D01*
X142641000Y-67447000D01*
X142621000Y-67447000D01*
X142621000Y-67469000D01*
X142367000Y-67469000D01*
X142367000Y-67447000D01*
X142347000Y-67447000D01*
X142347000Y-67197000D01*
X142367000Y-67197000D01*
X142367000Y-67175000D01*
X142621000Y-67175000D01*
X142621000Y-67197000D01*
G36*
X143370560Y-64875410D02*
X143414838Y-65110727D01*
X143553910Y-65326851D01*
X143766110Y-65471841D01*
X144018000Y-65522850D01*
X144124833Y-65522850D01*
X144147919Y-65557400D01*
X144187445Y-65616555D01*
X145036820Y-66465930D01*
X144907000Y-66595750D01*
X144907000Y-67197000D01*
X144927000Y-67197000D01*
X144927000Y-67447000D01*
X144907000Y-67447000D01*
X144907000Y-67469000D01*
X144653000Y-67469000D01*
X144653000Y-67447000D01*
X144633000Y-67447000D01*
X144633000Y-67197000D01*
X144653000Y-67197000D01*
X144653000Y-66595750D01*
X144494250Y-66437000D01*
X144381603Y-66437000D01*
X144326352Y-66354311D01*
X144229555Y-66209444D01*
X142485110Y-64465000D01*
X143370560Y-64465000D01*
X143370560Y-64875410D01*
X143370560Y-64875410D01*
G37*
X143370560Y-64875410D02*
X143414838Y-65110727D01*
X143553910Y-65326851D01*
X143766110Y-65471841D01*
X144018000Y-65522850D01*
X144124833Y-65522850D01*
X144147919Y-65557400D01*
X144187445Y-65616555D01*
X145036820Y-66465930D01*
X144907000Y-66595750D01*
X144907000Y-67197000D01*
X144927000Y-67197000D01*
X144927000Y-67447000D01*
X144907000Y-67447000D01*
X144907000Y-67469000D01*
X144653000Y-67469000D01*
X144653000Y-67447000D01*
X144633000Y-67447000D01*
X144633000Y-67197000D01*
X144653000Y-67197000D01*
X144653000Y-66595750D01*
X144494250Y-66437000D01*
X144381603Y-66437000D01*
X144326352Y-66354311D01*
X144229555Y-66209444D01*
X142485110Y-64465000D01*
X143370560Y-64465000D01*
X143370560Y-64875410D01*
G36*
X142086889Y-66437000D02*
X141917690Y-66437000D01*
X141684301Y-66533673D01*
X141505673Y-66712302D01*
X141441629Y-66866919D01*
X141327961Y-66753251D01*
X141362467Y-66701609D01*
X141468807Y-66167000D01*
X141382377Y-65732488D01*
X142086889Y-66437000D01*
X142086889Y-66437000D01*
G37*
X142086889Y-66437000D02*
X141917690Y-66437000D01*
X141684301Y-66533673D01*
X141505673Y-66712302D01*
X141441629Y-66866919D01*
X141327961Y-66753251D01*
X141362467Y-66701609D01*
X141468807Y-66167000D01*
X141382377Y-65732488D01*
X142086889Y-66437000D01*
M02*
