G04 #@! TF.FileFunction,Soldermask,Top*
%FSLAX46Y46*%
G04 Gerber Fmt 4.6, Leading zero omitted, Abs format (unit mm)*
G04 Created by KiCad (PCBNEW 4.0.0-rc1-stable) date 05/11/2015 13:36:29*
%MOMM*%
G01*
G04 APERTURE LIST*
%ADD10C,0.100000*%
%ADD11R,1.000760X1.000760*%
%ADD12R,2.199640X1.524000*%
%ADD13O,2.199640X1.524000*%
%ADD14R,0.797560X0.797560*%
%ADD15R,0.500000X0.900000*%
%ADD16R,1.524000X1.998980*%
%ADD17O,1.524000X1.998980*%
%ADD18R,2.197100X2.197100*%
%ADD19R,0.497840X2.197100*%
%ADD20C,0.899160*%
%ADD21R,0.900000X0.500000*%
G04 APERTURE END LIST*
D10*
D11*
X143593820Y-80137000D03*
X150792180Y-80137000D03*
X143593820Y-72263000D03*
X150792180Y-72263000D03*
D12*
X139700000Y-109347000D03*
D13*
X139700000Y-106807000D03*
X139700000Y-104267000D03*
X139700000Y-101727000D03*
X139700000Y-99187000D03*
X139700000Y-96647000D03*
X139700000Y-94107000D03*
X139700000Y-91567000D03*
X139700000Y-89027000D03*
X139700000Y-86487000D03*
X139700000Y-83947000D03*
X139700000Y-81407000D03*
X139700000Y-78867000D03*
X139700000Y-76327000D03*
X139700000Y-73787000D03*
X139700000Y-71247000D03*
X139700000Y-68707000D03*
X139700000Y-66167000D03*
X139700000Y-63627000D03*
X139700000Y-61087000D03*
D12*
X154942000Y-109347000D03*
D13*
X154942000Y-106807000D03*
X154942000Y-104267000D03*
X154942000Y-101727000D03*
X154942000Y-99187000D03*
X154942000Y-96647000D03*
X154942000Y-94107000D03*
X154942000Y-91567000D03*
X154942000Y-89027000D03*
X154942000Y-86487000D03*
X154942000Y-83947000D03*
X154942000Y-81407000D03*
X154942000Y-78867000D03*
X154942000Y-76327000D03*
X154942000Y-73787000D03*
X154942000Y-71247000D03*
X154942000Y-68707000D03*
X154942000Y-66167000D03*
X154942000Y-63627000D03*
X154942000Y-61087000D03*
D14*
X147447000Y-85864700D03*
X147447000Y-87363300D03*
D15*
X150735600Y-91008200D03*
X152235600Y-91008200D03*
D16*
X144780000Y-63875920D03*
D17*
X144780000Y-60838080D03*
X147320000Y-63875920D03*
X147320000Y-60838080D03*
X149860000Y-63875920D03*
X149860000Y-60838080D03*
D18*
X151749760Y-103822500D03*
D19*
X145722340Y-103543100D03*
X146522440Y-103543100D03*
X147320000Y-103543100D03*
X148117560Y-103543100D03*
X148917660Y-103543100D03*
D20*
X145122900Y-106070400D03*
X149519640Y-106070400D03*
D18*
X142890240Y-103822500D03*
X142890240Y-109321600D03*
X151749760Y-109321600D03*
D21*
X146812000Y-68898200D03*
X146812000Y-67398200D03*
X148742400Y-68898200D03*
X148742400Y-67398200D03*
M02*
