G04 CAM350 V9.5.1 (Build 211) Date:  Tue May 10 22:39:24 2016 *
G04 Database: (Untitled) *
G04 Layer 1: STM32Mini-B_Cu. *
%FSLAX45Y45*%
%MOMM*%
%SFA1.000B1.000*%

%MIA0B0*%
%IPPOS*%
%ADD11R,0.75000X0.80000*%
%ADD12R,1.30000X0.70000*%
%ADD13R,0.80010X0.80010*%
%ADD14R,3.65760X2.03200*%
%ADD15R,1.01600X2.03200*%
%ADD16R,2.19964X1.52400*%
%ADD17O,2.19964X1.52400*%
%ADD18R,0.90000X0.50000*%
%ADD19R,1.00076X0.59944*%
%ADD20R,1.52400X1.99898*%
%ADD21O,1.52400X1.99898*%
%ADD22R,1.20000X1.40000*%
%ADD23C,0.78740*%
%ADD24C,0.66380*%
%ADD25C,0.20320*%
%ADD26C,0.40600*%
%ADD27C,0.25400*%
%ADD28C,0.30480*%
%LNSTM32Mini-B_Cu.*%
%LPD*%
G36*
X14144159Y-6686688D02*
G01X14132797Y-6675324D01*
X14136246Y-6670163*
X14136248Y-6670158*
X14146880Y-6616702*
Y-6616697*
X14138244Y-6573255*
X14208684Y-6643700*
X14191771*
X14191766Y-6643701*
X14168432Y-6653366*
X14168428Y-6653369*
X14150566Y-6671233*
X14144159Y-6686688*
G37*
G36*
X14212221Y-8673643D02*
G01X14191030Y-8652452D01*
X14282990Y-8560498*
X14304179Y-8581690*
X14212221Y-8673643*
G37*
G36*
X15251776D02*
G01X15159820Y-8581688D01*
X15181016Y-8560498*
X15272969Y-8652454*
X15251776Y-8673643*
G37*
G36*
X14791987Y-8093878D02*
G01X14770796Y-8072687D01*
X14862756Y-7980733*
X14883944Y-8001924*
X14791987Y-8093878*
G37*
G36*
X14389132Y-8376756D02*
G01X14297177Y-8284801D01*
X14318373Y-8263611*
X14410326Y-8355567*
X14389132Y-8376756*
G37*
G36*
X14623181Y-7646181D02*
G01X14609702Y-7632704D01*
X14609693Y-7632700*
X14597605*
X14587265Y-7625636*
X14587260Y-7625634*
X14562075Y-7620534*
X14497341Y-7620532*
X14497336Y-7620527*
X14497338Y-7619471*
X14497343Y-7619466*
X14562073*
X14585604Y-7615038*
X14585608Y-7615037*
X14597630Y-7607301*
X14609694Y-7607299*
X14609703Y-7607296*
X14623089Y-7593918*
X14626919Y-7599868*
X14648135Y-7614364*
X14648140Y-7614366*
X14673327Y-7619466*
X14747235Y-7619468*
X14747240Y-7619473*
X14747238Y-7620529*
X14747233Y-7620534*
X14673325*
X14649797Y-7624962*
X14649792Y-7624963*
X14628180Y-7638871*
X14623181Y-7646181*
G37*
G36*
X14492221Y-7999949D02*
G01X14462762Y-7970490D01*
X14462760Y-7970486*
X14462762Y-7926084*
X14462767Y-7926079*
X14472970Y-7926088*
X14472975Y-7926087*
X14510793Y-7910461*
X14510797Y-7910458*
X14539757Y-7881549*
X14555451Y-7843754*
X14555452Y-7843749*
X14555484Y-7809971*
X14555489Y-7809966*
X14562073*
X14577181Y-7807128*
X14568641Y-7815655*
X14552949Y-7853446*
X14552948Y-7853451*
X14552912Y-7894370*
X14552913Y-7894375*
X14560430Y-7912568*
X14560429Y-7931654*
X14560426Y-7931659*
X14555466Y-7934950*
X14534272Y-7956143*
X14530151Y-7962173*
X14529894Y-7962281*
X14526895Y-7965280*
X14526891Y-7965289*
X14526890Y-7966948*
X14520766Y-7975911*
X14520764Y-7975915*
X14517861Y-7989296*
X14517856Y-7989300*
X14506123Y-7991508*
X14506118Y-7991510*
X14495831Y-7998331*
X14493848*
X14493839Y-7998335*
X14492221Y-7999949*
G37*
G36*
X15293804Y-7982921D02*
G01X15283918Y-7959003D01*
X15283916Y-7958999*
X15256743Y-7931780*
X15221219Y-7917028*
X15221214Y-7917027*
X15199365Y-7917006*
X15199360Y-7917000*
X15199362Y-7888905*
X15199367Y-7888900*
X15227920Y-7888899*
X15227929Y-7888896*
X15243796Y-7873028*
X15243800Y-7873019*
X15243798Y-7768113*
X15243785Y-7768100*
X15241805Y-7768098*
X15241800Y-7768093*
X15241802Y-7742705*
X15241807Y-7742700*
X15243787Y-7742698*
X15243800Y-7742685*
X15243802Y-7740705*
X15243807Y-7740700*
X15269195Y-7740702*
X15269200Y-7740707*
X15269202Y-7742687*
X15269215Y-7742700*
X15364120Y-7742699*
X15364129Y-7742696*
X15368490Y-7738337*
X15400464Y-7759702*
X15373646Y-7777619*
X15364128Y-7768104*
X15364119Y-7768100*
X15269213Y-7768102*
X15269200Y-7768115*
X15269201Y-7873020*
X15269204Y-7873029*
X15285072Y-7888896*
X15285081Y-7888900*
X15317753Y-7888902*
X15317758Y-7888906*
X15327953Y-7940159*
X15327955Y-7940163*
X15331403Y-7945326*
X15293804Y-7982921*
G37*
G36*
X14793138Y-8858026D02*
G01X14625302Y-8690190D01*
X14625300Y-8690186*
X14625303Y-8649296*
X14636481Y-8653932*
X14636486Y-8653933*
X14674946Y-8653967*
X14674951Y-8653966*
X14675402Y-8653782*
X14678410Y-8655792*
X14678415Y-8655794*
X14706601Y-8661400*
X14907668Y-8661401*
X14907673Y-8661402*
X14915921Y-8669663*
X14951441Y-8684412*
X14951446Y-8684413*
X14967730Y-8684431*
X14966536Y-8686176*
X14958320Y-8691626*
X14937127Y-8712819*
X14931230Y-8721448*
X14923117Y-8726829*
X14901924Y-8748022*
X14895952Y-8756761*
X14887735Y-8762211*
X14866542Y-8783404*
X14860570Y-8792143*
X14852353Y-8797593*
X14831160Y-8818786*
X14825187Y-8827526*
X14816971Y-8832975*
X14795777Y-8854168*
X14793138Y-8858026*
G37*
G36*
X14490693Y-6746900D02*
G01X14465305Y-6746898D01*
X14465300Y-6746893*
X14465298Y-6744713*
X14465285Y-6744700*
X14463305Y-6744698*
X14463300Y-6744693*
X14463302Y-6719705*
X14463307Y-6719700*
X14465287Y-6719698*
X14465300Y-6719685*
X14465299Y-6659580*
X14465296Y-6659571*
X14449428Y-6643704*
X14449419Y-6643700*
X14438163Y-6643699*
X14438158Y-6643697*
X14422956Y-6620945*
X14248516Y-6446500*
X14337051Y-6446502*
X14337056Y-6446507*
Y-6487542*
X14341484Y-6511070*
X14341485Y-6511075*
X14355393Y-6532687*
X14376609Y-6547183*
X14376614Y-6547185*
X14401801Y-6552285*
X14412481Y-6552286*
X14412486Y-6552288*
X14418746Y-6561657*
X14503680Y-6646595*
X14490704Y-6659572*
X14490700Y-6659581*
X14490702Y-6719687*
X14490715Y-6719700*
X14492695Y-6719702*
X14492700Y-6719707*
X14492698Y-6744695*
X14492693Y-6744700*
X14490713Y-6744702*
X14490700Y-6744715*
X14490698Y-6746895*
X14490693Y-6746900*
G37*
G36*
X15067457Y-8583492D02*
G01X15067467Y-8568594D01*
X15067466Y-8568589*
X15052778Y-8533043*
X15052776Y-8533039*
X15025603Y-8505820*
X14990079Y-8491068*
X14990074Y-8491067*
X14951614Y-8491033*
X14951609Y-8491034*
X14916063Y-8505722*
X14916059Y-8505724*
X14907690Y-8514078*
X14907686Y-8514080*
X14742581Y-8514079*
X14742575Y-8514075*
X14737818Y-8502563*
X14737816Y-8502559*
X14713804Y-8478500*
X14719299*
X14751367Y-8472121*
X14751372Y-8472119*
X14778555Y-8453956*
X14842055Y-8390456*
X14846855Y-8383285*
X14853182Y-8398597*
X14853184Y-8398601*
X14880361Y-8425823*
X14915881Y-8440572*
X14915886Y-8440573*
X14954346Y-8440607*
X14954351Y-8440606*
X14989897Y-8425918*
X14989901Y-8425916*
X15011203Y-8404657*
X15029086Y-8422540*
X15037826Y-8428513*
X15043275Y-8436729*
X15064469Y-8457923*
X15073208Y-8463895*
X15078658Y-8472112*
X15099851Y-8493305*
X15108590Y-8499277*
X15114040Y-8507494*
X15128244Y-8521702*
X15114038Y-8535908*
X15108065Y-8544647*
X15099849Y-8550097*
X15078656Y-8571290*
X15072683Y-8580030*
X15067457Y-8583492*
G37*
G36*
X14965149Y-9606300D02*
G01X14956049Y-9606298D01*
X14956044Y-9606293*
Y-9562301*
X14951616Y-9538770*
X14951615Y-9538766*
X14937710Y-9517158*
X14930732Y-9512385*
X14936442Y-9508710*
X14950942Y-9487491*
X14950944Y-9487486*
X14956044Y-9462301*
Y-9412301*
X14951616Y-9388770*
X14951615Y-9388766*
X14937710Y-9367158*
X14916491Y-9352658*
X14916486Y-9352656*
X14891301Y-9347556*
X14816006Y-9347554*
X14816001Y-9347549*
X14816007Y-9340754*
X14816006Y-9340749*
X14801318Y-9305203*
X14801316Y-9305199*
X14774143Y-9277980*
X14738619Y-9263228*
X14738614Y-9263227*
X14700154Y-9263193*
X14700149Y-9263194*
X14674832Y-9273654*
X14649719Y-9263228*
X14649714Y-9263227*
X14611254Y-9263193*
X14611249Y-9263194*
X14575703Y-9277882*
X14575699Y-9277884*
X14548477Y-9305061*
X14533728Y-9340581*
X14533727Y-9340586*
X14533719Y-9347551*
X14533713Y-9347556*
X14505619Y-9347552*
X14708435Y-9144738*
X14725381Y-9151772*
X14725386Y-9151773*
X14763846Y-9151807*
X14763851Y-9151806*
X14799397Y-9137118*
X14799401Y-9137116*
X14800600Y-9135929*
X14800599Y-9171199*
X14800598Y-9171203*
X14797241Y-9174555*
X14781549Y-9212346*
X14781548Y-9212351*
X14781512Y-9253270*
X14781513Y-9253275*
X14797139Y-9291093*
X14797142Y-9291097*
X14826055Y-9320059*
X14863846Y-9335751*
X14863851Y-9335752*
X14904770Y-9335788*
X14904775Y-9335787*
X14942593Y-9320161*
X14942597Y-9320158*
X14971344Y-9291467*
X14994661Y-9314823*
X15020413Y-9325519*
X15030029Y-9348800*
X15017271*
X15017266Y-9348801*
X14993932Y-9358466*
X14993928Y-9358469*
X14976069Y-9376329*
X14976066Y-9376333*
X14966401Y-9399667*
X14966400Y-9399672*
X14966401Y-9408920*
X14966404Y-9408929*
X14982272Y-9424796*
X14982281Y-9424800*
X15062187Y-9424798*
X15062200Y-9424785*
X15062202Y-9422605*
X15062207Y-9422600*
X15087595Y-9422602*
X15087600Y-9422607*
X15087602Y-9424787*
X15087615Y-9424800*
X15089595Y-9424802*
X15089600Y-9424807*
X15089598Y-9449795*
X15089593Y-9449800*
X15087613Y-9449802*
X15087600Y-9449815*
X15087598Y-9451995*
X15087593Y-9452000*
X15062205Y-9451998*
X15062200Y-9451993*
X15062198Y-9449813*
X15062185Y-9449800*
X14982280Y-9449801*
X14982271Y-9449804*
X14966404Y-9465672*
X14966400Y-9465681*
Y-9474929*
X14966401Y-9474933*
X14976067Y-9498268*
X14976069Y-9498272*
X14990189Y-9512395*
X14984754Y-9515893*
X14970258Y-9537109*
X14970256Y-9537114*
X14965156Y-9562301*
X14965154Y-9606295*
X14965149Y-9606300*
G37*
G36*
X14617616Y-7463825D02*
G01X14608484Y-7449636D01*
X14587265Y-7435136*
X14587260Y-7435134*
X14562075Y-7430034*
X14475571Y-7430032*
X14475566Y-7430028*
X14472872Y-7416483*
X14472870Y-7416479*
X14454706Y-7389295*
X14371302Y-7305890*
X14371300Y-7305886*
X14371301Y-7070513*
X14371302Y-7070509*
X14410309Y-7031510*
X14425916Y-7054866*
X14467662Y-7096613*
X14467663Y-7096618*
X14467653Y-7108286*
X14467654Y-7108291*
X14482342Y-7143837*
X14482344Y-7143841*
X14509521Y-7171063*
X14545041Y-7185812*
X14545046Y-7185813*
X14583506Y-7185847*
X14583511Y-7185846*
X14619057Y-7171158*
X14619061Y-7171156*
X14646280Y-7143983*
X14661032Y-7108459*
X14661033Y-7108454*
X14661067Y-7069994*
X14661066Y-7069989*
X14646378Y-7034443*
X14646376Y-7034439*
X14621749Y-7009769*
X14619203Y-7007220*
X14583679Y-6992468*
X14583674Y-6992467*
X14571850Y-6992456*
X14571845Y-6992454*
X14551662Y-6972270*
X14551660Y-6972266*
X14551661Y-6964219*
X14551664Y-6964214*
X14568142Y-6953610*
X14582642Y-6932391*
X14582644Y-6932386*
X14587744Y-6907201*
X14587749Y-6902257*
X14589867Y-6907368*
X14589869Y-6907372*
X14607729Y-6925231*
X14607733Y-6925234*
X14631067Y-6934899*
X14631072Y-6934900*
X14652620Y-6934899*
X14652629Y-6934896*
X14668496Y-6919028*
X14668500Y-6919019*
Y-6844113*
X14668487Y-6844100*
X14666505Y-6844098*
X14666500Y-6844093*
X14666502Y-6818705*
X14666507Y-6818700*
X14668487Y-6818698*
X14668500Y-6818685*
X14668502Y-6816705*
X14668507Y-6816700*
X14693895Y-6816702*
X14693900Y-6816707*
X14693902Y-6818687*
X14693915Y-6818700*
X14766320Y-6818699*
X14766329Y-6818696*
X14776453Y-6808578*
X14786572Y-6818696*
X14786581Y-6818700*
X14858987Y-6818698*
X14859000Y-6818685*
X14859002Y-6816705*
X14859007Y-6816700*
X14884395Y-6816702*
X14884400Y-6816707*
X14884402Y-6818687*
X14884415Y-6818700*
X14886395Y-6818702*
X14886400Y-6818707*
X14886398Y-6844095*
X14886393Y-6844100*
X14884413Y-6844102*
X14884400Y-6844115*
X14884401Y-6919020*
X14884404Y-6919029*
X14900272Y-6934896*
X14900281Y-6934900*
X14916447Y-6934901*
X14916451Y-6934902*
X14974641Y-6993095*
X14970258Y-6999509*
X14970256Y-6999514*
X14965156Y-7024701*
Y-7074701*
X14969584Y-7098229*
X14969585Y-7098234*
X14983493Y-7119846*
X14990468Y-7124615*
X14984754Y-7128293*
X14970258Y-7149509*
X14970256Y-7149514*
X14965156Y-7174701*
Y-7224701*
X14968322Y-7241540*
X14961249Y-7241538*
X14961244Y-7241533*
Y-7172401*
X14956816Y-7148870*
X14956815Y-7148866*
X14950168Y-7138534*
X14950331Y-7138371*
X14950334Y-7138367*
X14959999Y-7115033*
X14960000Y-7115028*
X14959999Y-7090980*
X14959996Y-7090971*
X14944128Y-7075104*
X14944119Y-7075100*
X14871713Y-7075102*
X14871700Y-7075115*
X14871698Y-7077095*
X14871693Y-7077100*
X14846305Y-7077098*
X14846300Y-7077093*
X14846298Y-7075113*
X14846285Y-7075100*
X14773880Y-7075101*
X14773871Y-7075104*
X14758004Y-7090972*
X14758000Y-7090981*
Y-7115029*
X14758001Y-7115033*
X14767667Y-7138368*
X14767669Y-7138372*
X14767803Y-7138508*
X14761858Y-7147209*
X14761856Y-7147214*
X14756756Y-7172401*
Y-7252401*
X14761184Y-7275929*
X14761185Y-7275934*
X14775093Y-7297546*
X14781086Y-7301643*
X14658578Y-7424151*
X14651958Y-7434055*
X14649797Y-7434462*
X14649792Y-7434463*
X14628180Y-7448371*
X14617616Y-7463825*
G37*
G36*
X15242533Y-6763861D02*
G01X15235957Y-6763855D01*
X15216190Y-6750648*
X15216186Y-6750646*
X15188001Y-6745040*
X15161165*
X15159332Y-6743785*
X15165042Y-6740110*
X15179542Y-6718891*
X15179544Y-6718886*
X15184644Y-6693701*
Y-6643701*
X15180216Y-6620170*
X15180215Y-6620166*
X15166310Y-6598558*
X15145091Y-6584058*
X15145086Y-6584056*
X15119901Y-6578956*
X15029899*
X15006371Y-6583384*
X15006366Y-6583385*
X15004010Y-6584900*
X14979334*
X14973302Y-6583700*
X14973297*
X14967266Y-6584900*
X14938991*
X14934391Y-6581758*
X14934386Y-6581756*
X14933412Y-6581559*
X14923786Y-6567155*
X14911073Y-6554441*
X14911071Y-6554437*
X14911088Y-6535370*
X14911087Y-6535365*
X14906849Y-6525106*
X14942529Y-6545089*
X14951691Y-6546762*
X14951698Y-6546761*
X14973294Y-6534516*
X14973300Y-6534504*
Y-6400305*
X14973287Y-6400292*
X14971305Y-6400290*
X14971300Y-6400285*
X14971302Y-6374897*
X14971307Y-6374892*
X14973287Y-6374890*
X14973300Y-6374877*
X14973302Y-6372897*
X14973307Y-6372892*
X14998695Y-6372894*
X14998700Y-6372899*
X14998702Y-6374879*
X14998715Y-6374892*
X15110319Y-6374891*
X15110330Y-6374886*
X15126199Y-6352828*
X15126201Y-6352817*
X15111314Y-6300012*
X15111312Y-6300007*
X15077348Y-6256915*
X15042829Y-6237574*
X15084781Y-6209543*
X15115065Y-6164222*
X15115067Y-6164217*
X15125700Y-6110760*
Y-6056858*
X15119326Y-6024800*
X15348290Y-6024803*
X15327955Y-6055237*
X15327953Y-6055242*
X15317320Y-6108698*
Y-6108703*
X15327953Y-6162159*
X15327955Y-6162163*
X15358239Y-6207484*
X15401756Y-6236566*
X15395226Y-6238494*
X15395222Y-6238496*
X15352654Y-6272900*
X15326492Y-6320974*
X15324997Y-6328389*
X15324999Y-6328398*
X15337243Y-6349994*
X15337255Y-6350000*
X15481487Y-6349998*
X15481500Y-6349985*
X15481502Y-6348005*
X15481507Y-6348000*
X15506895Y-6348002*
X15506900Y-6348007*
X15506902Y-6349987*
X15506915Y-6350000*
X15508895Y-6350002*
X15508900Y-6350007*
X15508898Y-6375395*
X15508893Y-6375400*
X15506913Y-6375402*
X15506900Y-6375415*
X15506898Y-6377395*
X15506893Y-6377400*
X15481505Y-6377398*
X15481500Y-6377393*
X15481498Y-6375413*
X15481485Y-6375400*
X15337253Y-6375401*
X15337242Y-6375407*
X15324998Y-6397004*
X15324997Y-6397013*
X15326493Y-6404430*
X15352657Y-6452504*
X15395222Y-6486904*
X15395227Y-6486907*
X15401757Y-6488838*
X15358235Y-6517919*
X15327955Y-6563237*
X15327953Y-6563242*
X15318234Y-6612095*
X15264114Y-6666215*
X15248148Y-6690110*
X15248146Y-6690115*
X15242540Y-6718301*
X15242538Y-6763856*
X15242533Y-6763861*
G37*
G36*
X15320920Y-11018600D02*
G01X14143167Y-11018597D01*
X14144726Y-11010901*
Y-10858501*
X14140298Y-10834970*
X14140297Y-10834966*
X14138539Y-10832232*
X14314185Y-10656586*
X14330152Y-10632690*
X14330154Y-10632685*
X14335760Y-10604501*
X14335761Y-10304813*
X14335762Y-10304809*
X14352285Y-10288286*
X14363700Y-10271214*
Y-10299629*
X14363701Y-10299634*
X14373367Y-10322968*
X14373369Y-10322972*
X14391229Y-10340831*
X14391233Y-10340834*
X14414567Y-10350499*
X14414572Y-10350500*
X14449420Y-10350499*
X14449429Y-10350496*
X14465296Y-10334628*
X14465300Y-10334619*
X14465298Y-10198113*
X14465285Y-10198100*
X14463305Y-10198098*
X14463300Y-10198093*
X14463302Y-10172705*
X14463307Y-10172700*
X14465287Y-10172698*
X14465300Y-10172685*
X14465302Y-10170705*
X14465307Y-10170700*
X14490695Y-10170702*
X14490700Y-10170707*
X14490702Y-10172687*
X14490715Y-10172700*
X14492695Y-10172702*
X14492700Y-10172707*
X14492698Y-10198095*
X14492693Y-10198100*
X14490713Y-10198102*
X14490700Y-10198115*
X14490701Y-10334620*
X14490704Y-10334629*
X14506572Y-10350496*
X14506581Y-10350500*
X14541429*
X14541434Y-10350499*
X14564768Y-10340833*
X14564772Y-10340831*
X14582631Y-10322971*
X14582634Y-10322967*
X14592299Y-10299633*
X14592300Y-10299628*
X14592305Y-10293637*
X14595484Y-10310529*
X14595485Y-10310534*
X14609393Y-10332146*
X14630609Y-10346642*
X14630614Y-10346644*
X14655801Y-10351744*
X14757399*
X14780930Y-10347316*
X14780934Y-10347315*
X14802542Y-10333410*
X14817042Y-10312191*
X14817044Y-10312186*
X14820857Y-10293383*
X14824084Y-10310529*
X14824085Y-10310534*
X14837993Y-10332146*
X14859209Y-10346642*
X14859214Y-10346644*
X14884401Y-10351744*
X14965695Y-10351746*
X14965700Y-10351751*
X14965698Y-10498589*
X14965693Y-10498594*
X14930487Y-10498563*
X14930482Y-10498564*
X14890610Y-10515039*
X14890606Y-10515042*
X14860070Y-10545526*
X14843526Y-10585370*
X14843525Y-10585375*
X14843487Y-10628517*
X14843488Y-10628522*
X14859963Y-10668394*
X14859966Y-10668398*
X14870999Y-10679456*
X14593268Y-10679452*
X14604181Y-10668558*
X14620728Y-10628710*
X14620729Y-10628705*
X14620767Y-10585563*
X14620766Y-10585558*
X14604291Y-10545686*
X14604288Y-10545682*
X14573808Y-10515149*
X14533960Y-10498602*
X14533955Y-10498601*
X14490813Y-10498563*
X14490808Y-10498564*
X14450936Y-10515039*
X14450932Y-10515042*
X14420396Y-10545526*
X14403852Y-10585370*
X14403851Y-10585375*
X14403813Y-10628517*
X14403814Y-10628522*
X14420289Y-10668394*
X14420292Y-10668398*
X14450776Y-10698934*
X14471822Y-10707676*
X14464078Y-10719009*
X14464076Y-10719014*
X14458976Y-10744201*
Y-10947401*
X14463404Y-10970929*
X14463405Y-10970934*
X14477313Y-10992546*
X14498529Y-11007042*
X14498534Y-11007044*
X14523721Y-11012144*
X14889479*
X14913010Y-11007716*
X14913014Y-11007715*
X14934622Y-10993810*
X14949122Y-10972591*
X14949124Y-10972586*
X14954224Y-10947401*
Y-10744201*
X14949796Y-10720670*
X14949795Y-10720666*
X14946470Y-10715493*
X14973441Y-10715517*
X14973446Y-10715516*
X15013318Y-10699041*
X15013322Y-10699038*
X15038500Y-10673911*
X15319472Y-10954884*
X15319474Y-10954888*
Y-11010901*
X15320920Y-11018600*
G37*
%LPC*%
G36*
X14846287Y-7049698D02*
G01X14846300Y-7049685D01*
Y-6974780*
X14846296Y-6974771*
X14830428Y-6958904*
X14830419Y-6958900*
X14808871*
X14808866Y-6958901*
X14785532Y-6968566*
X14785528Y-6968569*
X14767669Y-6986429*
X14767666Y-6986433*
X14757999Y-7009769*
X14757998Y-7009774*
X14758000Y-7033819*
X14758004Y-7033828*
X14773872Y-7049696*
X14773881Y-7049700*
X14846287Y-7049698*
G37*
G36*
X14843120Y-6934899D02*
G01X14843129Y-6934896D01*
X14858996Y-6919028*
X14859000Y-6919019*
X14858998Y-6844113*
X14858985Y-6844100*
X14786580Y-6844101*
X14786571Y-6844104*
X14776450Y-6854222*
X14766328Y-6844104*
X14766319Y-6844100*
X14693911Y-6844102*
X14693898Y-6844115*
X14693900Y-6919019*
X14693904Y-6919028*
X14709772Y-6934896*
X14709781Y-6934900*
X14731329*
X14731334Y-6934899*
X14754668Y-6925233*
X14754672Y-6925231*
X14772531Y-6907371*
X14776453Y-6897921*
X14780367Y-6907368*
X14780369Y-6907372*
X14798229Y-6925231*
X14798233Y-6925234*
X14821567Y-6934899*
X14821572Y-6934900*
X14843120Y-6934899*
G37*
G36*
X14944129Y-7049696D02*
G01X14959996Y-7033828D01*
X14960000Y-7033819*
Y-7009771*
X14959999Y-7009766*
X14950334Y-6986432*
X14950331Y-6986428*
X14932471Y-6968569*
X14932467Y-6968566*
X14909133Y-6958901*
X14909128Y-6958900*
X14887580Y-6958901*
X14887571Y-6958904*
X14871702Y-6974773*
X14871698Y-6974782*
X14871700Y-7049685*
X14871713Y-7049698*
X14944120Y-7049699*
X14944129Y-7049696*
G37*
G36*
X15029471Y-6545088D02*
G01X15077345Y-6518272D01*
X15111312Y-6475176*
X15111315Y-6475172*
X15126201Y-6422365*
X15126199Y-6422354*
X15110328Y-6400297*
X15110318Y-6400292*
X14998711Y-6400294*
X14998698Y-6400307*
X14998700Y-6534504*
X14998706Y-6534516*
X15020304Y-6546761*
X15020310Y-6546762*
X15029471Y-6545088*
G37*
%LPD*%
G36*
X14247604Y-8709026D02*
G01X14226413Y-8687834D01*
X14318373Y-8595880*
X14339561Y-8617072*
X14247604Y-8709026*
G37*
G36*
X15216394D02*
G01X15124438Y-8617070D01*
X15145634Y-8595880*
X15237587Y-8687836*
X15216394Y-8709026*
G37*
G36*
X14827369Y-8129260D02*
G01X14806178Y-8108069D01*
X14898138Y-8016115*
X14919327Y-8037307*
X14827369Y-8129260*
G37*
G36*
X14282986Y-8482903D02*
G01X14191030Y-8390947D01*
X14212226Y-8369757*
X14304179Y-8461713*
X14282986Y-8482903*
G37*
G36*
X14424515Y-8341374D02*
G01X14332559Y-8249418D01*
X14353755Y-8228228*
X14445708Y-8320185*
X14424515Y-8341374*
G37*
G36*
X14262093Y-6746900D02*
G01X14236705Y-6746898D01*
X14236700Y-6746893*
X14236698Y-6744713*
X14236685Y-6744700*
X14234705Y-6744698*
X14234700Y-6744693*
X14234702Y-6719705*
X14234707Y-6719700*
X14236687Y-6719698*
X14236700Y-6719685*
X14236702Y-6717505*
X14236707Y-6717500*
X14262095Y-6717502*
X14262100Y-6717507*
X14262102Y-6719687*
X14262115Y-6719700*
X14264095Y-6719702*
X14264100Y-6719707*
X14264098Y-6744695*
X14264093Y-6744700*
X14262113Y-6744702*
X14262100Y-6744715*
X14262098Y-6746895*
X14262093Y-6746900*
G37*
G36*
X14282986Y-8744408D02*
G01X14261795Y-8723217D01*
X14353755Y-8631262*
X14374943Y-8652454*
X14282986Y-8744408*
G37*
G36*
X15181011D02*
G01X15089056Y-8652452D01*
X15110252Y-8631262*
X15202205Y-8723218*
X15181011Y-8744408*
G37*
G36*
X14862751Y-8164643D02*
G01X14841560Y-8143451D01*
X14933520Y-8051497*
X14954709Y-8072689*
X14862751Y-8164643*
G37*
G36*
X14318368Y-8447521D02*
G01X14226413Y-8355565D01*
X14247608Y-8334375*
X14339561Y-8426331*
X14318368Y-8447521*
G37*
G36*
X14459897Y-8305992D02*
G01X14367941Y-8214036D01*
X14389137Y-8192846*
X14481090Y-8284802*
X14459897Y-8305992*
G37*
G36*
X14318368Y-8779790D02*
G01X14297177Y-8758599D01*
X14389137Y-8666644*
X14410326Y-8687836*
X14318368Y-8779790*
G37*
G36*
X15145629D02*
G01X15053674Y-8687834D01*
X15074869Y-8666644*
X15166822Y-8758601*
X15145629Y-8779790*
G37*
G36*
X14898133Y-8200025D02*
G01X14876942Y-8178834D01*
X14968902Y-8086879*
X14990091Y-8108071*
X14898133Y-8200025*
G37*
G36*
X14353750Y-8412138D02*
G01X14261795Y-8320183D01*
X14282990Y-8298993*
X14374943Y-8390949*
X14353750Y-8412138*
G37*
G36*
X14495099Y-8270789D02*
G01X14403144Y-8178834D01*
X14424340Y-8157644*
X14516293Y-8249600*
X14495099Y-8270789*
G37*
G36*
X14353750Y-8815172D02*
G01X14332559Y-8793981D01*
X14424519Y-8702027*
X14445708Y-8723219*
X14353750Y-8815172*
G37*
G36*
X15110247D02*
G01X15018292Y-8723217D01*
X15039487Y-8702027*
X15131440Y-8793983*
X15110247Y-8815172*
G37*
G36*
X14933516Y-8235407D02*
G01X14912325Y-8214216D01*
X15004285Y-8122261*
X15025473Y-8143453*
X14933516Y-8235407*
G37*
G36*
X14530482D02*
G01X14438526Y-8143451D01*
X14459722Y-8122261*
X14551675Y-8214218*
X14530482Y-8235407*
G37*
G36*
X14389132Y-8850555D02*
G01X14367941Y-8829363D01*
X14459901Y-8737409*
X14481090Y-8758601*
X14389132Y-8850555*
G37*
G36*
X15074865D02*
G01X14982909Y-8758599D01*
X15004105Y-8737409*
X15096058Y-8829365*
X15074865Y-8850555*
G37*
G36*
X14968898Y-8270789D02*
G01X14947707Y-8249598D01*
X15039667Y-8157644*
X15060855Y-8178835*
X14968898Y-8270789*
G37*
G36*
X14565864Y-8200025D02*
G01X14473909Y-8108069D01*
X14495104Y-8086879*
X14587057Y-8178835*
X14565864Y-8200025*
G37*
G36*
X14424335Y-8885757D02*
G01X14403144Y-8864566D01*
X14495104Y-8772612*
X14516293Y-8793803*
X14424335Y-8885757*
G37*
G36*
X15039662D02*
G01X14947707Y-8793802D01*
X14968902Y-8772612*
X15060855Y-8864568*
X15039662Y-8885757*
G37*
G36*
X15004100Y-8305992D02*
G01X14982909Y-8284801D01*
X15074869Y-8192846*
X15096058Y-8214038*
X15004100Y-8305992*
G37*
G36*
X14601246Y-8164643D02*
G01X14509291Y-8072687D01*
X14530486Y-8051497*
X14622439Y-8143453*
X14601246Y-8164643*
G37*
G36*
X14459717Y-8921139D02*
G01X14438526Y-8899948D01*
X14530486Y-8807994*
X14551675Y-8829186*
X14459717Y-8921139*
G37*
G36*
X15004280D02*
G01X14912325Y-8829184D01*
X14933520Y-8807994*
X15025473Y-8899950*
X15004280Y-8921139*
G37*
G36*
X15039483Y-8341374D02*
G01X15018292Y-8320183D01*
X15110252Y-8228228*
X15131440Y-8249420*
X15039483Y-8341374*
G37*
G36*
X14636628Y-8129260D02*
G01X14544673Y-8037305D01*
X14565869Y-8016115*
X14657822Y-8108071*
X14636628Y-8129260*
G37*
G36*
X14495100Y-8956522D02*
G01X14473909Y-8935330D01*
X14565869Y-8843376*
X14587057Y-8864568*
X14495100Y-8956522*
G37*
G36*
X14968898D02*
G01X14876942Y-8864566D01*
X14898138Y-8843376*
X14990091Y-8935332*
X14968898Y-8956522*
G37*
G36*
X15074865Y-8376756D02*
G01X15053674Y-8355565D01*
X15145634Y-8263611*
X15166822Y-8284802*
X15074865Y-8376756*
G37*
G36*
X14672011Y-8093878D02*
G01X14580055Y-8001923D01*
X14601251Y-7980733*
X14693204Y-8072689*
X14672011Y-8093878*
G37*
G36*
X14530482Y-8991904D02*
G01X14509291Y-8970713D01*
X14601251Y-8878758*
X14622439Y-8899950*
X14530482Y-8991904*
G37*
G36*
X14933516D02*
G01X14841560Y-8899948D01*
X14862756Y-8878758*
X14954709Y-8970714*
X14933516Y-8991904*
G37*
G36*
X15110247Y-8412138D02*
G01X15089056Y-8390947D01*
X15181016Y-8298993*
X15202205Y-8320185*
X15110247Y-8412138*
G37*
G36*
X14565864Y-9027286D02*
G01X14544673Y-9006095D01*
X14636633Y-8914140*
X14657822Y-8935332*
X14565864Y-9027286*
G37*
G36*
X14898133D02*
G01X14806178Y-8935330D01*
X14827374Y-8914140*
X14919327Y-9006097*
X14898133Y-9027286*
G37*
G36*
X15145629Y-8447521D02*
G01X15124438Y-8426329D01*
X15216398Y-8334375*
X15237587Y-8355567*
X15145629Y-8447521*
G37*
G36*
X14601246Y-9062668D02*
G01X14580055Y-9041477D01*
X14672015Y-8949523*
X14693204Y-8970714*
X14601246Y-9062668*
G37*
G36*
X14862751D02*
G01X14770796Y-8970713D01*
X14791991Y-8949523*
X14883944Y-9041479*
X14862751Y-9062668*
G37*
G36*
X15181011Y-8482903D02*
G01X15159820Y-8461712D01*
X15251780Y-8369757*
X15272969Y-8390949*
X15181011Y-8482903*
G37*
G54D11*
X14681200Y-6681400D03*
Y-6831400D03*
X14859000Y-7212400D03*
Y-7062400D03*
G54D12*
X14643100Y-9937500D03*
Y-9747500D03*
G54D13*
X15246100Y-9942576D03*
X15056100D03*
X15151100Y-9742678D03*
G54D14*
X14706600Y-10845800D03*
G54D15*
Y-10185400D03*
X14935200D03*
X14478000D03*
G54D16*
X13970000Y-10934700D03*
G54D17*
Y-10680700D03*
Y-10426700D03*
Y-10172700D03*
Y-9918700D03*
Y-9664700D03*
Y-9410700D03*
Y-9156700D03*
Y-8902700D03*
Y-8648700D03*
Y-8394700D03*
Y-8140700D03*
Y-7886700D03*
Y-7632700D03*
Y-7378700D03*
Y-7124700D03*
Y-6870700D03*
Y-6616700D03*
Y-6362700D03*
Y-6108700D03*
G54D16*
X15494200Y-10934700D03*
G54D17*
Y-10680700D03*
Y-10426700D03*
Y-10172700D03*
Y-9918700D03*
Y-9664700D03*
Y-9410700D03*
Y-9156700D03*
Y-8902700D03*
Y-8648700D03*
Y-8394700D03*
Y-8140700D03*
Y-7886700D03*
Y-7632700D03*
Y-7378700D03*
Y-7124700D03*
Y-6870700D03*
Y-6616700D03*
Y-6362700D03*
Y-6108700D03*
G54D18*
X14846300Y-9437300D03*
Y-9587300D03*
X14528800Y-9437300D03*
Y-9587300D03*
X14325600Y-9437300D03*
Y-9587300D03*
X14478000Y-6882200D03*
Y-6732200D03*
X14249400Y-6882200D03*
Y-6732200D03*
X15074900Y-6668700D03*
Y-6818700D03*
Y-7049700D03*
Y-7199700D03*
G54D11*
X14871700Y-6681400D03*
Y-6831400D03*
G54D13*
X14230600Y-9742424D03*
X14420600D03*
X14325600Y-9942322D03*
G54D19*
X14512036Y-7715250D03*
Y-7524750D03*
Y-7620000D03*
X14723364Y-7524750D03*
Y-7715250D03*
G54D20*
X14478000Y-6387592D03*
G54D21*
Y-6083808D03*
X14732000Y-6387592D03*
Y-6083808D03*
X14986000Y-6387592D03*
Y-6083808D03*
G54D22*
X15256500Y-7535400D03*
Y-7755400D03*
X15096500Y-7535400D03*
Y-7755400D03*
G54D18*
X14871700Y-9792900D03*
Y-9942900D03*
X15074900Y-9587300D03*
Y-9437300D03*
G54D23*
X14465300Y-8636000D03*
G54D24*
X15265400Y-8128000D03*
G54D23*
X15201900Y-7899400D03*
X14986000Y-8420100D03*
X14770100Y-10591800D03*
X14363700Y-10680700D03*
X14185900Y-6629400D03*
X14452600Y-6616700D03*
X14782800Y-8839200D03*
X14681200Y-8305800D03*
X14782800Y-9220200D03*
X14757400Y-8483600D03*
X14693900Y-7289800D03*
X14668500Y-7175500D03*
X14554200Y-9296400D03*
X14236700Y-10731500D03*
X14617700Y-7620000D03*
X15082520Y-8521700D03*
X14808200Y-6555740D03*
X15077440Y-6936740D03*
X14782800Y-10058400D03*
G54D24*
X14986000Y-7581900D03*
G54D23*
X14884400Y-9232900D03*
X14655800Y-7874000D03*
G54D24*
X14643100Y-9563100D03*
X14732000D03*
X14287500Y-9245600D03*
X15049500Y-9232900D03*
X15252700Y-10185400D03*
X15113000Y-9296400D03*
X15240000Y-9575800D03*
X15049500Y-7886700D03*
X14970760Y-8587740D03*
X14655800Y-8557260D03*
G54D23*
X14452600Y-7823200D03*
X15049500Y-10033000D03*
G54D24*
X14630400Y-9359900D03*
X14564360Y-7089140D03*
X15229840Y-6860540D03*
X14935200Y-8343900D03*
X15201900Y-8013700D03*
X15074900Y-7226300D03*
G54D23*
X15189200Y-8204200D03*
G54D24*
X14808200Y-7886700D03*
G54D23*
X14490700Y-9944100D03*
G54D24*
X15138400Y-8989060D03*
X14465300Y-8432800D03*
X14744700Y-9055100D03*
X14478000Y-9182100D03*
X14300200Y-10121900D03*
X14414500Y-9245600D03*
X14224000Y-10198100D03*
X14351000Y-9182100D03*
X14147800Y-10147300D03*
X14719300Y-9359900D03*
G54D25*
X15074900Y-9437300D02*
G01Y-9398000D01*
X14960600Y-9283700D02*
G01Y-9245600D01*
X15074900Y-9398000D02*
G01X14960600Y-9283700D01*
X14282987Y-8652452D02*
G01X14283748D01*
Y-8652452D02*
G01X14351000Y-8585200D01*
Y-8585200D02*
G01X14414500D01*
G54D26*
Y-8585200D02*
G01X14465300Y-8636000D01*
X14499336Y-7620000D02*
G01X14605000D01*
G54D25*
X14600487Y-8072687D02*
G01X14516100Y-7988300D01*
G54D26*
X14528800Y-7886700D02*
G01X14605000Y-7810500D01*
Y-7810500D02*
G01Y-7620000D01*
X14516100Y-7988300D02*
G01Y-7899400D01*
Y-7899400D02*
G01X14528800Y-7886700D01*
X14681200Y-6831400D02*
G01Y-7010400D01*
Y-7010400D02*
G01X14668500Y-7023100D01*
G54D25*
X14283748Y-8652452D02*
G01X14351000Y-8585200D01*
G54D26*
X14478000Y-6732200D02*
G01X14530000D01*
X14629200Y-6831400D02*
G01X14681200D01*
X14530000Y-6732200D02*
G01X14629200Y-6831400D01*
X15201900Y-7899400D02*
G01X15227300D01*
Y-7899400D02*
G01X15278100Y-7950200D01*
Y-7950200D02*
G01Y-8115300D01*
Y-8115300D02*
G01X15265400Y-8128000D01*
X15256500Y-7844800D02*
G01Y-7755400D01*
Y-7844800D02*
G01X15201900Y-7899400D01*
X14998700Y-8407400D02*
G01X14986000Y-8420100D01*
G54D25*
X15070499Y-8284801D02*
G01X14998700Y-8356600D01*
Y-8356600D02*
G01Y-8407400D01*
G54D26*
X14986000Y-6362700D02*
G01X15494200D01*
X14681200Y-6831400D02*
G01X14871700D01*
X14605000Y-7620000D02*
G01Y-7569200D01*
G54D25*
X14782800Y-8890000D02*
G01X14862753Y-8969952D01*
G54D26*
X14807000Y-7062400D02*
G01X14859000D01*
X14605000Y-7569200D02*
G01Y-7429500D01*
Y-7429500D02*
G01X14732000Y-7302500D01*
Y-7302500D02*
G01Y-7137400D01*
Y-7137400D02*
G01X14807000Y-7062400D01*
X14478000Y-10185400D02*
G01Y-10388600D01*
X14363700Y-10502900D02*
G01Y-10680700D01*
X14478000Y-10388600D02*
G01X14363700Y-10502900D01*
G54D25*
X14601248Y-8072687D02*
G01X14600487D01*
X14283748Y-8652452D02*
G01X14351000Y-8585200D01*
Y-8585200D02*
G01X14414500D01*
X14862753Y-8970713D02*
G01Y-8969952D01*
X15074866Y-8284801D02*
G01X15070499D01*
G54D26*
X14249400Y-6732200D02*
G01Y-6692900D01*
Y-6692900D02*
G01X14185900Y-6629400D01*
X14478000Y-6732200D02*
G01Y-6642100D01*
Y-6642100D02*
G01X14452600Y-6616700D01*
G54D25*
X14782800Y-8890000D02*
G01Y-8839200D01*
G54D26*
X14693900Y-8166100D02*
G01Y-8293100D01*
Y-8293100D02*
G01X14681200Y-8305800D01*
G54D25*
X14601248Y-8073447D02*
G01X14693900Y-8166100D01*
X14601248Y-8072687D02*
G01Y-8073447D01*
G54D26*
X14630400Y-8686800D02*
G01Y-8648700D01*
G54D25*
X14592300Y-8610600D02*
G01Y-8496300D01*
X14630400Y-8648700D02*
G01X14592300Y-8610600D01*
G54D26*
X14668500Y-8724900D02*
G01X14782800Y-8839200D01*
X14668500Y-8724900D02*
G01X14630400Y-8686800D01*
X14820900Y-8420100D02*
G01X14782800Y-8458200D01*
Y-8458200D02*
G01X14630400D01*
Y-8458200D02*
G01X14592300Y-8496300D01*
X14986000Y-8420100D02*
G01X14820900D01*
G54D25*
X14862753Y-8970713D02*
G01X14863513D01*
X14782800Y-9283700D02*
G01Y-9220200D01*
X14820900Y-9321800D02*
G01X14782800Y-9283700D01*
X14935200Y-9321800D02*
G01X14820900D01*
X14960600Y-9296400D02*
G01X14935200Y-9321800D01*
X14960600Y-9212580D02*
G01Y-9245600D01*
Y-9245600D02*
G01Y-9296400D01*
G54D26*
X14782800Y-8458200D02*
G01X14757400Y-8483600D01*
X14859000Y-6975876D02*
G01X14871700Y-6963176D01*
X14859000Y-7062400D02*
G01Y-6975876D01*
X14871700Y-6831400D02*
G01Y-6963176D01*
X14732000Y-7302500D02*
G01X14706600D01*
Y-7302500D02*
G01X14693900Y-7289800D01*
X14782800Y-9220200D02*
G01X14630400D01*
Y-9220200D02*
G01X14554200Y-9296400D01*
G54D25*
X14940280Y-9050020D02*
G01Y-9192260D01*
Y-9192260D02*
G01X14960600Y-9212580D01*
X14862753Y-8972492D02*
G01X14940280Y-9050020D01*
X14862753Y-8970713D02*
G01Y-8972492D01*
X14710664Y-7524750D02*
G01Y-7476236D01*
X14859000Y-7327900D02*
G01Y-7212400D01*
X14710664Y-7476236D02*
G01X14859000Y-7327900D01*
X14871700Y-6619240D02*
G01Y-6681400D01*
X14808200Y-6555740D02*
G01X14871700Y-6619240D01*
G54D26*
X14973300Y-6819900D02*
G01Y-6873240D01*
X15074900Y-6974840D02*
G01Y-7049700D01*
X14973300Y-6873240D02*
G01X15074900Y-6974840D01*
Y-7049700D02*
G01Y-6939280D01*
Y-6939280D02*
G01X15077440Y-6936740D01*
G54D25*
X14636630Y-8037305D02*
G01X14641305D01*
G54D26*
X14782800Y-8331200D02*
G01X14719300Y-8394700D01*
X14782800Y-8178800D02*
G01Y-8331200D01*
X14719300Y-8394700D02*
G01X14668500D01*
X14655800Y-7874000D02*
G01Y-8018135D01*
G54D25*
Y-8018135D02*
G01X14636630Y-8037305D01*
G54D26*
X14973300Y-6819900D02*
G01Y-6668700D01*
Y-6668700D02*
G01Y-6667500D01*
Y-6667500D02*
G01Y-6668700D01*
X14439900Y-8509000D02*
G01X14452600D01*
X14541500Y-8724900D02*
G01X14592300Y-8775700D01*
X14541500Y-8597900D02*
G01Y-8724900D01*
X14471650Y-8528050D02*
G01X14541500Y-8597900D01*
X14452600Y-8509000D02*
G01X14471650Y-8528050D01*
X14592300Y-8775700D02*
G01X14630400Y-8813800D01*
X14822695Y-9006095D02*
G01X14681200Y-8864600D01*
X14630400Y-8813800D02*
G01X14681200Y-8864600D01*
G54D25*
X14247605Y-8617070D02*
G01Y-8612395D01*
G54D26*
Y-8612395D02*
G01X14351000Y-8509000D01*
Y-8509000D02*
G01X14439900D01*
X14706600Y-10134600D02*
G01X14782800Y-10058400D01*
X14986000Y-7581900D02*
G01X15050000D01*
Y-7581900D02*
G01X15096500Y-7535400D01*
X14681200Y-6681400D02*
G01X14657000D01*
Y-6681400D02*
G01X14478000Y-6502400D01*
Y-6502400D02*
G01Y-6362700D01*
X14871700Y-6681400D02*
G01X14681200D01*
X15074900Y-6668700D02*
G01X14973300D01*
Y-6668700D02*
G01X14884400D01*
Y-6668700D02*
G01X14871700Y-6681400D01*
G54D25*
X14835395Y-9006095D02*
G01X14827370D01*
Y-9006095D02*
G01X14822695D01*
G54D26*
X14478000Y-6362700D02*
G01Y-6426200D01*
X13970000Y-6108700D02*
G01X13982700D01*
Y-6108700D02*
G01X14236700Y-6362700D01*
Y-6362700D02*
G01X14478000D01*
X14706600Y-10185400D02*
G01Y-10134600D01*
G54D25*
X14617700Y-8018375D02*
G01X14636630Y-8037305D01*
X14884400Y-9063125D02*
G01X14827370Y-9006095D01*
G54D26*
X14884400Y-9232900D02*
G01Y-9063125D01*
X14579600Y-8420100D02*
G01X14592300Y-8407400D01*
Y-8407400D02*
G01X14605000Y-8394700D01*
Y-8394700D02*
G01X14668500D01*
Y-8394700D02*
G01X14719300D01*
X14471650Y-8528050D02*
G01X14579600Y-8420100D01*
X14655800Y-7874000D02*
G01Y-7912100D01*
G54D27*
X14636630Y-7893170D02*
G01X14655800Y-7874000D01*
X14636630Y-8037305D02*
G01Y-7893170D01*
G54D28*
X14655800Y-8051800D02*
G01X14690536Y-8086536D01*
X14655800Y-7874000D02*
G01Y-8051800D01*
G54D25*
X14641305Y-8037305D02*
G01X14690536Y-8086536D01*
G54D28*
Y-8086536D02*
G01X14782800Y-8178800D01*
G54D25*
X14618900Y-9587300D02*
G01X14528800D01*
X14643100Y-9563100D02*
G01X14618900Y-9587300D01*
X14738350Y-9556750D02*
G01X14768900Y-9587300D01*
X14732000Y-9563100D02*
G01X14738350Y-9556750D01*
X14768900Y-9587300D02*
G01X14846300D01*
X14768900D02*
G01X14808200D01*
X14530483Y-8901017D02*
G01X14331950Y-9099550D01*
X14287500Y-9144000D02*
G01Y-9245600D01*
X14331950Y-9099550D02*
G01X14287500Y-9144000D01*
X14530483Y-8899948D02*
G01Y-8901017D01*
X14495101Y-8864566D02*
G01X14490734D01*
Y-8864566D02*
G01X14224000Y-9131300D01*
Y-9131300D02*
G01Y-9321800D01*
Y-9321800D02*
G01X14173200Y-9372600D01*
Y-9372600D02*
G01Y-9563100D01*
Y-9563100D02*
G01X14122400Y-9613900D01*
Y-9613900D02*
G01Y-9766300D01*
Y-9766300D02*
G01X13970000Y-9918700D01*
X14459719Y-8829184D02*
G01X14449916D01*
Y-8829184D02*
G01X14185900Y-9093200D01*
Y-9093200D02*
G01Y-9296400D01*
Y-9296400D02*
G01X14135100Y-9347200D01*
Y-9347200D02*
G01Y-9499600D01*
Y-9499600D02*
G01X13970000Y-9664700D01*
X14424516Y-8793981D02*
G01X14421619D01*
Y-8793981D02*
G01X14135100Y-9080500D01*
Y-9080500D02*
G01Y-9245600D01*
Y-9245600D02*
G01X13970000Y-9410700D01*
X14058900D02*
G01X13970000D01*
X14282987Y-8390947D02*
G01Y-8390187D01*
Y-8390187D02*
G01X14033500Y-8140700D01*
Y-8140700D02*
G01X13970000D01*
X14008100D02*
G01X13970000D01*
X14318369Y-8355565D02*
G01Y-8349369D01*
Y-8349369D02*
G01X14147800Y-8178800D01*
Y-8178800D02*
G01Y-8089900D01*
Y-8089900D02*
G01X13970000Y-7912100D01*
Y-7912100D02*
G01Y-7886700D01*
X14353752Y-8320183D02*
G01X14352683D01*
Y-8320183D02*
G01X14198600Y-8166100D01*
Y-8166100D02*
G01Y-8001000D01*
Y-8001000D02*
G01X14135100Y-7937500D01*
Y-7937500D02*
G01Y-7785100D01*
Y-7785100D02*
G01X13982700Y-7632700D01*
Y-7632700D02*
G01X13970000D01*
Y-7645400D02*
G01Y-7632700D01*
X14389134Y-8284801D02*
G01Y-8280434D01*
Y-8280434D02*
G01X14236700Y-8128000D01*
Y-8128000D02*
G01Y-7962900D01*
Y-7962900D02*
G01X14173200Y-7899400D01*
Y-7899400D02*
G01Y-7721600D01*
Y-7721600D02*
G01X14135100Y-7683500D01*
Y-7683500D02*
G01Y-7543800D01*
Y-7543800D02*
G01X13970000Y-7378700D01*
X14424516Y-8249419D02*
G01X14421619D01*
Y-8249419D02*
G01X14287500Y-8115300D01*
Y-8115300D02*
G01Y-7950200D01*
Y-7950200D02*
G01X14224000Y-7886700D01*
Y-7886700D02*
G01Y-7696200D01*
Y-7696200D02*
G01X14185900Y-7658100D01*
Y-7658100D02*
G01Y-7480300D01*
Y-7480300D02*
G01X14135100Y-7429500D01*
Y-7429500D02*
G01Y-7289800D01*
Y-7289800D02*
G01X13970000Y-7124700D01*
X14459719Y-8214216D02*
G01X14449916D01*
Y-8214216D02*
G01X14338300Y-8102600D01*
Y-8102600D02*
G01Y-7937500D01*
Y-7937500D02*
G01X14274800Y-7874000D01*
Y-7874000D02*
G01Y-7670800D01*
Y-7670800D02*
G01X14236700Y-7632700D01*
Y-7632700D02*
G01Y-7467600D01*
Y-7467600D02*
G01X14185900Y-7416800D01*
Y-7416800D02*
G01Y-7239000D01*
Y-7239000D02*
G01X14135100Y-7188200D01*
Y-7188200D02*
G01Y-7035800D01*
Y-7035800D02*
G01X13970000Y-6870700D01*
X14898135Y-8935331D02*
G01Y-8941835D01*
X15252700Y-10426700D02*
G01X15494200Y-10668200D01*
X15252700Y-10185400D02*
G01Y-10426700D01*
X15494200Y-10668200D02*
G01Y-10680700D01*
X14986000Y-9024620D02*
G01Y-9161780D01*
Y-9161780D02*
G01X15049500Y-9225280D01*
Y-9225280D02*
G01Y-9232900D01*
X14898135Y-8936755D02*
G01X14986000Y-9024620D01*
X14898135Y-8935331D02*
G01Y-8936755D01*
X15125700Y-9232900D02*
G01Y-9283700D01*
Y-9283700D02*
G01X15113000Y-9296400D01*
X15125700Y-9220200D02*
G01Y-9232900D01*
X15087600Y-9182100D02*
G01X15125700Y-9220200D01*
X15031720Y-8999220D02*
G01Y-9126220D01*
Y-9126220D02*
G01X15087600Y-9182100D01*
X14933517Y-8901017D02*
G01X15031720Y-8999220D01*
X14933517Y-8899948D02*
G01Y-8901017D01*
X14968899Y-8864566D02*
G01X14973266D01*
X15072360Y-8968740D02*
G01Y-9105900D01*
Y-9105900D02*
G01X15179040Y-9212580D01*
Y-9212580D02*
G01Y-9514840D01*
Y-9514840D02*
G01X15240000Y-9575800D01*
X14968899Y-8865279D02*
G01X15072360Y-8968740D01*
X14968899Y-8864566D02*
G01Y-8865279D01*
X15494200Y-9918700D02*
G01X15468600D01*
Y-9918700D02*
G01X15328900Y-9779000D01*
X15227300Y-9461500D02*
G01Y-9410700D01*
X15328900Y-9563100D02*
G01X15227300Y-9461500D01*
X15328900Y-9779000D02*
G01Y-9563100D01*
X15227300Y-9169400D02*
G01Y-9207500D01*
X15214600Y-9156700D02*
G01X15227300Y-9169400D01*
Y-9207500D02*
G01Y-9410700D01*
X15417800Y-9918700D02*
G01X15494200D01*
X15199360Y-8950960D02*
G01Y-9141460D01*
Y-9141460D02*
G01X15214600Y-9156700D01*
X15042381Y-8793981D02*
G01X15199360Y-8950960D01*
X15039484Y-8793981D02*
G01X15042381D01*
X15494200Y-9664700D02*
G01Y-9652200D01*
Y-9652200D02*
G01X15278100Y-9436100D01*
Y-9436100D02*
G01Y-9245600D01*
X15157450Y-8845550D02*
G01X15240000Y-8928100D01*
X15278100Y-9156700D02*
G01Y-9220200D01*
X15240000Y-9118600D02*
G01X15278100Y-9156700D01*
X15240000Y-8928100D02*
G01Y-9118600D01*
X15074866Y-8758599D02*
G01Y-8762966D01*
Y-8762966D02*
G01X15157450Y-8845550D01*
X15278100Y-9220200D02*
G01Y-9245600D01*
X15494200Y-9639500D02*
G01Y-9664700D01*
X15313660Y-9144000D02*
G01Y-9293860D01*
Y-9293860D02*
G01X15341600Y-9321800D01*
X15220950Y-8832850D02*
G01X15278100Y-8890000D01*
X15313660Y-9128760D02*
G01Y-9144000D01*
X15278100Y-9093200D02*
G01X15313660Y-9128760D01*
X15278100Y-8890000D02*
G01Y-9093200D01*
X15110248Y-8723217D02*
G01X15111317D01*
Y-8723217D02*
G01X15220950Y-8832850D01*
X15341600Y-9321800D02*
G01X15430500Y-9410700D01*
Y-9410700D02*
G01X15494200D01*
X15145631Y-8687835D02*
G01Y-8694031D01*
Y-8694031D02*
G01X15316200Y-8864600D01*
Y-8864600D02*
G01Y-9042400D01*
Y-9042400D02*
G01X15430500Y-9156700D01*
Y-9156700D02*
G01X15494200D01*
X15181013Y-8652452D02*
G01Y-8653213D01*
Y-8653213D02*
G01X15430500Y-8902700D01*
Y-8902700D02*
G01X15494200D01*
Y-8661200D02*
G01Y-8648700D01*
X15252700D02*
G01X15494200D01*
X15221070Y-8617070D02*
G01X15252700Y-8648700D01*
X15216395Y-8617070D02*
G01X15221070D01*
X15252700Y-8394700D02*
G01X15494200D01*
X15221070Y-8426330D02*
G01X15252700Y-8394700D01*
X15216395Y-8426330D02*
G01X15221070D01*
X15181013Y-8390947D02*
G01Y-8390187D01*
Y-8390187D02*
G01X15430500Y-8140700D01*
Y-8140700D02*
G01X15494200D01*
X15468600D02*
G01X15494200D01*
X15145631Y-8355565D02*
G01X15152135D01*
Y-8355565D02*
G01X15328900Y-8178800D01*
Y-8178800D02*
G01Y-8052000D01*
Y-8052000D02*
G01X15494200Y-7886700D01*
Y-7911900D02*
G01Y-7886700D01*
X14933517Y-8143452D02*
G01Y-8142383D01*
Y-8142383D02*
G01X15049500Y-8026400D01*
Y-8026400D02*
G01Y-7886700D01*
X14966950Y-7747000D02*
G01Y-7740650D01*
X14922500Y-7518400D02*
G01X15024100Y-7416800D01*
X14922500Y-7696200D02*
G01Y-7518400D01*
X14966950Y-7740650D02*
G01X14922500Y-7696200D01*
X14966950Y-7950200D02*
G01Y-7747000D01*
X15024100Y-7416800D02*
G01X15036800Y-7404100D01*
X14966950Y-8045450D02*
G01Y-7950200D01*
X15354300Y-7251700D02*
G01Y-7213600D01*
X15201900Y-7404100D02*
G01X15354300Y-7251700D01*
X15036800Y-7404100D02*
G01X15201900D01*
X14898135Y-8108069D02*
G01X14904331D01*
Y-8108069D02*
G01X14966950Y-8045450D01*
X15354300Y-7213600D02*
G01Y-7188200D01*
Y-7188200D02*
G01X15417800Y-7124700D01*
Y-7124700D02*
G01X15494200D01*
X14922500Y-7785100D02*
G01Y-7772400D01*
X14871700Y-7467600D02*
G01X14935200Y-7404100D01*
X14871700Y-7721600D02*
G01Y-7467600D01*
X14922500Y-7772400D02*
G01X14871700Y-7721600D01*
X14986000Y-7353300D02*
G01X15062200D01*
X14935200Y-7404100D02*
G01X14986000Y-7353300D01*
X14922500Y-7937500D02*
G01Y-7785100D01*
Y-7988300D02*
G01Y-7937500D01*
Y-8013700D02*
G01Y-7988300D01*
X15303500Y-7226300D02*
G01Y-7175500D01*
Y-7023100D02*
G01X15455900Y-6870700D01*
X15303500Y-7175500D02*
G01Y-7023100D01*
X15062200Y-7353300D02*
G01X15176500D01*
Y-7353300D02*
G01X15303500Y-7226300D01*
X14862753Y-8072687D02*
G01X14863513D01*
Y-8072687D02*
G01X14922500Y-8013700D01*
X15455900Y-6870700D02*
G01X15494200D01*
X14871700Y-7810500D02*
G01Y-7785100D01*
X14820900Y-7442200D02*
G01X14871700Y-7391400D01*
X14820900Y-7734300D02*
G01Y-7442200D01*
X14871700Y-7785100D02*
G01X14820900Y-7734300D01*
X14827370Y-8037305D02*
G01Y-8032630D01*
Y-8032630D02*
G01X14871700Y-7988300D01*
X14947900Y-7315200D02*
G01X15024100D01*
X15316200Y-6921500D02*
G01Y-6718300D01*
X15252700Y-6985000D02*
G01X15316200Y-6921500D01*
X15252700Y-7162800D02*
G01Y-6985000D01*
X15316200Y-6718300D02*
G01X15417800Y-6616700D01*
X15024100Y-7315200D02*
G01X15151100D01*
Y-7315200D02*
G01X15252700Y-7213600D01*
Y-7213600D02*
G01Y-7162800D01*
X14871700Y-7391400D02*
G01X14947900Y-7315200D01*
X14871700Y-7988300D02*
G01Y-7810500D01*
X15417800Y-6616700D02*
G01X15494200D01*
X14827370Y-8037305D02*
G01X14835395D01*
X14970760Y-8587740D02*
G01X14706600D01*
Y-8587740D02*
G01X14676120Y-8557260D01*
Y-8557260D02*
G01X14655800D01*
G54D26*
X14395450Y-7716161D02*
G01Y-7524750D01*
Y-7524750D02*
G01Y-7448550D01*
X14512036Y-7524750D02*
G01X14441678D01*
Y-7524750D02*
G01X14395450D01*
Y-7448550D02*
G01X14287500Y-7340600D01*
Y-7340600D02*
G01Y-7035800D01*
Y-7035800D02*
G01X14363700Y-6959600D01*
Y-6959600D02*
G01Y-6680200D01*
Y-6680200D02*
G01X14046200Y-6362700D01*
Y-6362700D02*
G01X13970000D01*
X14395450Y-7716161D02*
G01Y-7766050D01*
X14441678Y-7715250D02*
G01X14440767Y-7716161D01*
X14512036Y-7715250D02*
G01X14441678D01*
X14440767Y-7716161D02*
G01X14395450D01*
X14452600Y-7823200D02*
G01X14408488Y-7779088D01*
X14395450Y-7766050D02*
G01X14408488Y-7779088D01*
X15056100Y-9942576D02*
G01Y-10026400D01*
Y-10026400D02*
G01X15049500Y-10033000D01*
X14499336Y-7715250D02*
G01X14408150D01*
X14935200Y-10185400D02*
G01Y-10006400D01*
Y-10006400D02*
G01X14871700Y-9942900D01*
X14643100Y-9937500D02*
G01X14866300D01*
Y-9937500D02*
G01X14871700Y-9942900D01*
X14643100Y-9937500D02*
G01X15051024D01*
Y-9937500D02*
G01X15056100Y-9942576D01*
G54D25*
X14528800Y-9437300D02*
G01X14591100D01*
X14630400Y-9398000D02*
G01Y-9359900D01*
X14591100Y-9437300D02*
G01X14630400Y-9398000D01*
X14389134Y-8758599D02*
G01X14380801D01*
Y-8758599D02*
G01X13982700Y-9156700D01*
Y-9156700D02*
G01X13970000D01*
X14325600Y-9437300D02*
G01X14566900D01*
X14478000Y-7002780D02*
G01Y-6882200D01*
X14564360Y-7089140D02*
G01X14478000Y-7002780D01*
X14530483Y-8143452D02*
G01Y-8142383D01*
Y-8142383D02*
G01X14389100Y-8001000D01*
Y-8001000D02*
G01Y-7975600D01*
X14185900Y-7061200D02*
G01Y-6945700D01*
Y-6945700D02*
G01X14249400Y-6882200D01*
X14495101Y-8178834D02*
G01X14490734D01*
Y-8178834D02*
G01X14389100Y-8077200D01*
Y-8077200D02*
G01Y-7975600D01*
Y-7975600D02*
G01Y-7924800D01*
Y-7924800D02*
G01X14325600Y-7861300D01*
Y-7861300D02*
G01Y-7645400D01*
Y-7645400D02*
G01X14287500Y-7607300D01*
Y-7607300D02*
G01Y-7442200D01*
Y-7442200D02*
G01X14236700Y-7391400D01*
Y-7391400D02*
G01Y-7213600D01*
Y-7213600D02*
G01X14185900Y-7162800D01*
Y-7162800D02*
G01Y-7061200D01*
Y-7061200D02*
G01Y-6959600D01*
Y-6959600D02*
G01X14147800Y-6921500D01*
Y-6921500D02*
G01Y-6794500D01*
Y-6794500D02*
G01X13970000Y-6616700D01*
X13995400D02*
G01X13970000D01*
X15074900Y-6818700D02*
G01X15188000D01*
Y-6818700D02*
G01X15229840Y-6860540D01*
X14935200Y-8343900D02*
G01X15029681Y-8249419D01*
Y-8249419D02*
G01X15039484D01*
Y-8249419D02*
G01X15042381D01*
Y-8249419D02*
G01X15201900Y-8089900D01*
Y-8089900D02*
G01Y-8013700D01*
X15074900Y-7199700D02*
G01Y-7226300D01*
X15110248Y-8320183D02*
G01X15111317D01*
Y-8320183D02*
G01X15189200Y-8242300D01*
G54D26*
Y-8242300D02*
G01Y-8204200D01*
X14710664Y-7715250D02*
G01X14712950D01*
Y-7715250D02*
G01X14808200Y-7810500D01*
Y-7810500D02*
G01Y-7886700D01*
X14490700Y-9944100D02*
G01Y-9829800D01*
X14573000Y-9747500D02*
G01X14643100D01*
X14490700Y-9829800D02*
G01X14573000Y-9747500D01*
X14488922Y-9942322D02*
G01X14325600D01*
X14490700Y-9944100D02*
G01X14488922Y-9942322D01*
X14643100Y-9747500D02*
G01X14725400D01*
Y-9747500D02*
G01X14782800Y-9690100D01*
Y-9690100D02*
G01X15098522D01*
Y-9690100D02*
G01X15151100Y-9742678D01*
X14611100Y-9747500D02*
G01X14643100D01*
G54D25*
X15001384Y-8829184D02*
G01X15004281D01*
Y-8829184D02*
G01Y-8832081D01*
Y-8829184D02*
G01Y-8829541D01*
X15138400Y-8963660D02*
G01X15004281Y-8829541D01*
X15138400Y-8963660D02*
G01Y-8989060D01*
X14968899Y-8178834D02*
G01X14973266D01*
Y-8178834D02*
G01X15125700Y-8026400D01*
Y-8026400D02*
G01Y-7784600D01*
Y-7784600D02*
G01X15096500Y-7755400D01*
X15252700Y-9677400D02*
G01Y-9935976D01*
Y-9935976D02*
G01X15246100Y-9942576D01*
X15162600Y-9587300D02*
G01X15074900D01*
X15252700Y-9677400D02*
G01X15162600Y-9587300D01*
G54D26*
X15494200Y-10934700D02*
G01X15417800D01*
Y-10934700D02*
G01X15049500Y-10566400D01*
Y-10566400D02*
G01Y-10147300D01*
Y-10147300D02*
G01X15246100Y-9950700D01*
Y-9950700D02*
G01Y-9942576D01*
X14871700Y-9792900D02*
G01X14987200D01*
Y-9792900D02*
G01X15024100Y-9829800D01*
X15176500Y-9842500D02*
G01X15246100Y-9912100D01*
X15036800Y-9842500D02*
G01X15176500D01*
X15024100Y-9829800D02*
G01X15036800Y-9842500D01*
X15246100Y-9912100D02*
G01Y-9942576D01*
G54D25*
X13970000Y-8407400D02*
G01Y-8394700D01*
X14211300D02*
G01X13970000D01*
X14242930Y-8426330D02*
G01X14211300Y-8394700D01*
X14247605Y-8426330D02*
G01X14242930D01*
X14084300Y-8763000D02*
G01X13970000Y-8648700D01*
X14249400Y-8763000D02*
G01X14084300D01*
X14318369Y-8694031D02*
G01X14249400Y-8763000D01*
X14318369Y-8687835D02*
G01Y-8694031D01*
X14565865Y-8108069D02*
G01Y-8114265D01*
Y-8114265D02*
G01X14643100Y-8191500D01*
X14465300Y-8420100D02*
G01Y-8432800D01*
X14643100Y-8242300D02*
G01X14465300Y-8420100D01*
X14643100Y-8191500D02*
G01Y-8242300D01*
X14230600Y-9742424D02*
G01Y-9671300D01*
X14224000Y-9385300D02*
G01X14230350Y-9378950D01*
Y-9378950D02*
G01X14236700Y-9372600D01*
X14224000Y-9664700D02*
G01Y-9385300D01*
X14230600Y-9671300D02*
G01X14224000Y-9664700D01*
X14565865Y-8108069D02*
G01Y-8114265D01*
X14693900Y-9055100D02*
G01X14744700D01*
X14414500Y-9334500D02*
G01X14693900Y-9055100D01*
X14274800Y-9334500D02*
G01X14414500D01*
X14230350Y-9378950D02*
G01X14274800Y-9334500D01*
X14420600Y-9742424D02*
G01Y-9682300D01*
Y-9682300D02*
G01X14325600Y-9587300D01*
X14420600Y-9742424D02*
G01Y-9722100D01*
X14636630Y-9006095D02*
G01X14628605D01*
Y-9006095D02*
G01X14478000Y-9156700D01*
Y-9156700D02*
G01Y-9182100D01*
X14300200Y-10121900D02*
G01Y-10236200D01*
Y-10236200D02*
G01X14262100Y-10274300D01*
Y-10274300D02*
G01Y-10604500D01*
Y-10604500D02*
G01X13970000Y-10896600D01*
Y-10896600D02*
G01Y-10934700D01*
X14601248Y-8970713D02*
G01X14600487D01*
Y-8970713D02*
G01X14414500Y-9156700D01*
Y-9156700D02*
G01Y-9245600D01*
X14224000Y-10198100D02*
G01X14211300Y-10210800D01*
Y-10210800D02*
G01Y-10464800D01*
Y-10464800D02*
G01X13995400Y-10680700D01*
Y-10680700D02*
G01X13970000D01*
X14565865Y-8935331D02*
G01X14559669D01*
Y-8935331D02*
G01X14351000Y-9144000D01*
Y-9144000D02*
G01Y-9182100D01*
X14147800Y-10147300D02*
G01Y-10299700D01*
Y-10299700D02*
G01X14020800Y-10426700D01*
Y-10426700D02*
G01X13970000D01*
X14719300Y-9410700D02*
G01Y-9359900D01*
X14745900Y-9437300D02*
G01X14719300Y-9410700D01*
X14846300Y-9437300D02*
G01X14745900D01*
X14353752Y-8723217D02*
G01X14352683D01*
Y-8723217D02*
G01X14173200Y-8902700D01*
Y-8902700D02*
G01X13970000D01*
G54D27*
X14490700Y-10172700D02*
G01X14492700D01*
Y-10198100*
X14490700*
Y-10334625*
X14506575Y-10350500*
X14541431*
X14564770Y-10340833*
X14582633Y-10322970*
X14592300Y-10299631*
Y-10293611*
X14595484Y-10310532*
X14609391Y-10332144*
X14630611Y-10346643*
X14655800Y-10351744*
X14757400*
X14780932Y-10347316*
X14802544Y-10333409*
X14817043Y-10312189*
X14820854Y-10293369*
X14824084Y-10310532*
X14837991Y-10332144*
X14859211Y-10346643*
X14884400Y-10351744*
X14965700*
Y-10498594*
X14930485Y-10498563*
X14890608Y-10515040*
X14860071Y-10545523*
X14843525Y-10585372*
X14843487Y-10628519*
X14859964Y-10668396*
X14871005Y-10679456*
X14593264*
X14604183Y-10668557*
X14620729Y-10628708*
X14620767Y-10585561*
X14604290Y-10545684*
X14573807Y-10515147*
X14533958Y-10498601*
X14490811Y-10498563*
X14450934Y-10515040*
X14420397Y-10545523*
X14403851Y-10585372*
X14403813Y-10628519*
X14420290Y-10668396*
X14450773Y-10698933*
X14471824Y-10707673*
X14464077Y-10719011*
X14458976Y-10744200*
Y-10947400*
X14463404Y-10970932*
X14477311Y-10992544*
X14498531Y-11007043*
X14523720Y-11012144*
X14889480*
X14913012Y-11007716*
X14934624Y-10993809*
X14949123Y-10972589*
X14954224Y-10947400*
Y-10744200*
X14949796Y-10720668*
X14946466Y-10715493*
X14973443Y-10715517*
X15013320Y-10699040*
X15038497Y-10673907*
X15319474Y-10954885*
Y-11010900*
X15320923Y-11018600*
X14143167*
X14144726Y-11010900*
Y-10858500*
X14140298Y-10834968*
X14138538Y-10832233*
X14314186Y-10656585*
X14316908Y-10652511*
X14330153Y-10632688*
X14335760Y-10604500*
Y-10304811*
X14352286Y-10288285*
X14363700Y-10271202*
Y-10299631*
X14373367Y-10322970*
X14391230Y-10340833*
X14414569Y-10350500*
X14449425*
X14465300Y-10334625*
Y-10198100*
X14463300*
Y-10172700*
X14465300*
Y-10170700*
X14490700*
Y-10172700*
X14800600Y-9171201D02*
G01X14797242Y-9174553D01*
X14781548Y-9212348*
X14781512Y-9253272*
X14797140Y-9291095*
X14826053Y-9320058*
X14863848Y-9335752*
X14904772Y-9335788*
X14942595Y-9320160*
X14971341Y-9291464*
X14994658Y-9314822*
X15020412Y-9325516*
X15030033Y-9348800*
X15017269*
X14993930Y-9358467*
X14976067Y-9376330*
X14966400Y-9399669*
Y-9408925*
X14982275Y-9424800*
X15062200*
Y-9422600*
X15087600*
Y-9424800*
X15089600*
Y-9449800*
X15087600*
Y-9452000*
X15062200*
Y-9449800*
X14982275*
X14966400Y-9465675*
Y-9474931*
X14976067Y-9498270*
X14990191Y-9512394*
X14984756Y-9515891*
X14970257Y-9537111*
X14965156Y-9562300*
Y-9606300*
X14956044*
Y-9562300*
X14951616Y-9538768*
X14937709Y-9517156*
X14930729Y-9512387*
X14936444Y-9508709*
X14950943Y-9487489*
X14956044Y-9462300*
Y-9412300*
X14951616Y-9388768*
X14937709Y-9367156*
X14916489Y-9352657*
X14891300Y-9347556*
X14816001*
X14816007Y-9340751*
X14801318Y-9305201*
X14774142Y-9277978*
X14738617Y-9263227*
X14700152Y-9263193*
X14674832Y-9273655*
X14649717Y-9263227*
X14611252Y-9263193*
X14575701Y-9277882*
X14548478Y-9305058*
X14533727Y-9340583*
X14533721Y-9347556*
X14505615*
X14708435Y-9144736*
X14725383Y-9151773*
X14763849Y-9151807*
X14799399Y-9137118*
X14800600Y-9135919*
Y-9171201*
X14636483Y-8653933D02*
G01X14674949Y-8653967D01*
X14675400Y-8653780*
X14678412Y-8655793*
X14706600Y-8661400*
X14907670*
X14915918Y-8669662*
X14951443Y-8684413*
X14967733Y-8684427*
X14966539Y-8686175*
X14958321Y-8691625*
X14937128Y-8712818*
X14931232Y-8721446*
X14923118Y-8726827*
X14901925Y-8748021*
X14895954Y-8756760*
X14887736Y-8762210*
X14866543Y-8783403*
X14860572Y-8792142*
X14852354Y-8797592*
X14831160Y-8818785*
X14825190Y-8827524*
X14816972Y-8832974*
X14795778Y-8854167*
X14793140Y-8858029*
X14740456Y-8805345*
Y-8805344*
X14689656Y-8754545*
Y-8754544*
X14651556Y-8716445*
Y-8716444*
X14625300Y-8690189*
Y-8649290*
X14636483Y-8653933*
X14853182Y-8398599D02*
G01X14880358Y-8425822D01*
X14915883Y-8440573*
X14954349Y-8440607*
X14989899Y-8425918*
X15011200Y-8404654*
X15029085Y-8422540*
X15037824Y-8428510*
X15043274Y-8436728*
X15064468Y-8457922*
X15073206Y-8463893*
X15078656Y-8472111*
X15099850Y-8493304*
X15108588Y-8499275*
X15114039Y-8507493*
X15128246Y-8521700*
X15114039Y-8535907*
X15108068Y-8544646*
X15099850Y-8550096*
X15078656Y-8571289*
X15072685Y-8580028*
X15067454Y-8583498*
X15067467Y-8568591*
X15052778Y-8533041*
X15025602Y-8505818*
X14990077Y-8491067*
X14951612Y-8491033*
X14916061Y-8505722*
X14907689Y-8514080*
X14742577*
X14737818Y-8502561*
X14713799Y-8478500*
X14719300*
X14751369Y-8472121*
X14778556Y-8453955*
X14842056Y-8390455*
X14846852Y-8383278*
X14853182Y-8398599*
X14568642Y-7815653D02*
G01X14552948Y-7853448D01*
X14552912Y-7894372*
X14560430Y-7912566*
Y-7931657*
X14555467Y-7934948*
X14534273Y-7956142*
X14530153Y-7962172*
X14529896Y-7962279*
X14526891Y-7965283*
Y-7966946*
X14520765Y-7975912*
X14517861Y-7989299*
X14506120Y-7991508*
X14495833Y-7998331*
X14493844*
X14492223Y-7999952*
X14462760Y-7970489*
Y-7926079*
X14472972Y-7926088*
X14510795Y-7910460*
X14539758Y-7881547*
X14555452Y-7843752*
X14555482Y-7809966*
X14562074*
X14577187Y-7807122*
X14568642Y-7815653*
X15400466Y-7759700D02*
G01X15373646Y-7777621D01*
X15364125Y-7768100*
X15269200*
Y-7873025*
X15285075Y-7888900*
X15317757*
X15327953Y-7940161*
X15331404Y-7945325*
X15293803Y-7982926*
X15283918Y-7959001*
X15256742Y-7931778*
X15221217Y-7917027*
X15199360Y-7917008*
Y-7888900*
X15227925*
X15243800Y-7873025*
Y-7768100*
X15241800*
Y-7742700*
X15243800*
Y-7740700*
X15269200*
Y-7742700*
X15364125*
X15368491Y-7738334*
X15400466Y-7759700*
X14626917Y-7599866D02*
G01X14648137Y-7614365D01*
X14673326Y-7619466*
X14747240*
Y-7620534*
X14673326*
X14649794Y-7624962*
X14628182Y-7638869*
X14623184Y-7646184*
X14609699Y-7632700*
X14597603*
X14587263Y-7625635*
X14562074Y-7620534*
X14497336*
Y-7619466*
X14562074*
X14585606Y-7615038*
X14597631Y-7607300*
X14609699*
X14623086Y-7593913*
X14626917Y-7599866*
X14786575Y-6818700D02*
G01X14859000D01*
Y-6816700*
X14884400*
Y-6818700*
X14886400*
Y-6844100*
X14884400*
Y-6919025*
X14900275Y-6934900*
X14916449*
X14974642Y-6993093*
X14970257Y-6999511*
X14965156Y-7024700*
Y-7074700*
X14969584Y-7098232*
X14983491Y-7119844*
X14990471Y-7124613*
X14984756Y-7128291*
X14970257Y-7149511*
X14965156Y-7174700*
Y-7224700*
X14968325Y-7241540*
X14961244*
Y-7172400*
X14956816Y-7148868*
X14950167Y-7138535*
X14950333Y-7138370*
X14960000Y-7115031*
Y-7090975*
X14944125Y-7075100*
X14871700*
Y-7077100*
X14846300*
Y-7075100*
X14773875*
X14758000Y-7090975*
Y-7115031*
X14767667Y-7138370*
X14767804Y-7138507*
X14761857Y-7147211*
X14756756Y-7172400*
Y-7252400*
X14761184Y-7275932*
X14775091Y-7297544*
X14781088Y-7301641*
X14658579Y-7424150*
X14651961Y-7434054*
X14649794Y-7434462*
X14628182Y-7448369*
X14617618Y-7463830*
X14608483Y-7449634*
X14587263Y-7435135*
X14562074Y-7430034*
X14475567*
X14472871Y-7416481*
X14454706Y-7389294*
X14371300Y-7305889*
Y-7070511*
X14410306Y-7031505*
X14425915Y-7054865*
X14467663Y-7096614*
X14467653Y-7108288*
X14482342Y-7143839*
X14509518Y-7171062*
X14545043Y-7185813*
X14583509Y-7185847*
X14619059Y-7171158*
X14646282Y-7143982*
X14661033Y-7108457*
X14661067Y-7069991*
X14646378Y-7034441*
X14621749Y-7009769*
X14758000*
Y-7033825*
X14773875Y-7049700*
X14846300*
Y-6974775*
X14871700*
Y-7049700*
X14944125*
X14960000Y-7033825*
Y-7009769*
X14950333Y-6986430*
X14932470Y-6968567*
X14909131Y-6958900*
X14887575*
X14871700Y-6974775*
X14846300*
X14830425Y-6958900*
X14808869*
X14785530Y-6968567*
X14767667Y-6986430*
X14758000Y-7009769*
X14621749*
X14619202Y-7007218*
X14583677Y-6992467*
X14571848Y-6992456*
X14551660Y-6972269*
Y-6964216*
X14568144Y-6953609*
X14582643Y-6932389*
X14587744Y-6907200*
Y-6902244*
X14589867Y-6907370*
X14607730Y-6925233*
X14631069Y-6934900*
X14652625*
X14668500Y-6919025*
Y-6844100*
X14693900*
Y-6919025*
X14709775Y-6934900*
X14731331*
X14754670Y-6925233*
X14772533Y-6907370*
X14776450Y-6897913*
X14780367Y-6907370*
X14798230Y-6925233*
X14821569Y-6934900*
X14843125*
X14859000Y-6919025*
Y-6844100*
X14786575*
X14776450Y-6854225*
X14766325Y-6844100*
X14693900*
X14668500*
X14666500*
Y-6818700*
X14668500*
Y-6816700*
X14693900*
Y-6818700*
X14766325*
X14776450Y-6808575*
X14786575Y-6818700*
X15327953Y-6055239D02*
G01X15317319Y-6108700D01*
X15327953Y-6162161*
X15358237Y-6207483*
X15401761Y-6236565*
X15395224Y-6238494*
X15352655Y-6272897*
X15326492Y-6320972*
X15324996Y-6328393*
X15337246Y-6350000*
X15481500*
Y-6348000*
X15506900*
Y-6350000*
X15508900*
Y-6375400*
X15506900*
Y-6377400*
X15481500*
Y-6375400*
X15337246*
X15324996Y-6397007*
X15326492Y-6404428*
X15352655Y-6452503*
X15395224Y-6486906*
X15401761Y-6488835*
X15358237Y-6517917*
X15327953Y-6563239*
X15318236Y-6612093*
X15264115Y-6666214*
X15248147Y-6690112*
X15242540Y-6718300*
Y-6763861*
X15235956Y-6763855*
X15216189Y-6750647*
X15188000Y-6745040*
X15161163*
X15159329Y-6743787*
X15165044Y-6740109*
X15179543Y-6718889*
X15184644Y-6693700*
Y-6643700*
X15180216Y-6620168*
X15166309Y-6598556*
X15145089Y-6584057*
X15119900Y-6578956*
X15029900*
X15006368Y-6583384*
X15004012Y-6584900*
X14979333*
X14973300Y-6583700*
X14967267Y-6584900*
X14938989*
X14934389Y-6581757*
X14933410Y-6581559*
X14923786Y-6567154*
X14911071Y-6554440*
X14911088Y-6535368*
X14906846Y-6525101*
X14942527Y-6545088*
X14951693Y-6546763*
X14973300Y-6534513*
Y-6400292*
X14998700*
Y-6534513*
X15020307Y-6546763*
X15029473Y-6545088*
X15077347Y-6518271*
X15111314Y-6475175*
X15126203Y-6422360*
X15110325Y-6400292*
X14998700*
X14973300*
X14971300*
Y-6374892*
X14973300*
Y-6372892*
X14998700*
Y-6374892*
X15110325*
X15126203Y-6352824*
X15111314Y-6300009*
X15077347Y-6256913*
X15042827Y-6237576*
X15084783Y-6209542*
X15115066Y-6164220*
X15125700Y-6110759*
Y-6056857*
X15119324Y-6024800*
X15348292*
X15327953Y-6055239*
X14262100Y-6719700D02*
G01X14264100D01*
Y-6744700*
X14262100*
Y-6746900*
X14236700*
Y-6744700*
X14234700*
Y-6719700*
X14236700*
Y-6717500*
X14262100*
Y-6719700*
X14337056Y-6487541D02*
G01X14341484Y-6511073D01*
X14355391Y-6532685*
X14376611Y-6547184*
X14401800Y-6552285*
X14412483*
X14414792Y-6555740*
X14418745Y-6561656*
X14503682Y-6646593*
X14490700Y-6659575*
Y-6719700*
X14492700*
Y-6744700*
X14490700*
Y-6746900*
X14465300*
Y-6744700*
X14463300*
Y-6719700*
X14465300*
Y-6659575*
X14449425Y-6643700*
X14438160*
X14432635Y-6635431*
X14422956Y-6620944*
X14248511Y-6446500*
X14337056*
Y-6487541*
X14208689Y-6643700D02*
G01X14191769D01*
X14168430Y-6653367*
X14150567Y-6671230*
X14144163Y-6686692*
X14132796Y-6675325*
X14136247Y-6670161*
X14146881Y-6616700*
X14138238Y-6573249*
X14208689Y-6643700*
M02*
