<?xml version="1.0" standalone="no"?>
 <!DOCTYPE svg PUBLIC "-//W3C//DTD SVG 1.1//EN" 
 "http://www.w3.org/Graphics/SVG/1.1/DTD/svg11.dtd"> 
<svg xmlns="http://www.w3.org/2000/svg" version="1.1" 
    width="29.7002cm" height="21.0007cm" viewBox="0 0 116930 82680 ">
<title>SVG Picture created as STM32 Mini-NPTH-drl_map.svg date 2015/11/05 11:18:40 </title>
  <desc>Picture generated by PCBNEW </desc>
<g style="fill:#000000; fill-opacity:1;stroke:#000000; stroke-opacity:1;
stroke-linecap:round; stroke-linejoin:round; "
 transform="translate(0 0) scale(1 1)">
</g>
<g style="fill:#000000; fill-opacity:0.0; 
stroke:#000000; stroke-width:-0.000393701; stroke-opacity:1; 
stroke-linecap:round; stroke-linejoin:round;">
</g>
<g style="fill:#000000; fill-opacity:0.0; 
stroke:#000000; stroke-width:39.3701; stroke-opacity:1; 
stroke-linecap:round; stroke-linejoin:round;">
<path d="M54400 43650
L54450 43650
" />
<path d="M54400 23450
L54400 43650
" />
<path d="M61600 23450
L54400 23450
" />
<path d="M61600 43550
L61600 23450
" />
<path d="M61600 43650
L61600 43550
" />
<path d="M54450 43650
L61600 43650
" />
</g>
<g style="fill:#000000; fill-opacity:0.0; 
stroke:#000000; stroke-width:78.7402; stroke-opacity:1; 
stroke-linecap:round; stroke-linejoin:round;">
<path d="M56958 41583
L57312 41937
" />
<path d="M57312 41583
L56958 41937
" />
<path d="M58689 41583
L59043 41937
" />
<path d="M59043 41583
L58689 41937
" />
</g>
<g style="fill:#000000; fill-opacity:0.0; 
stroke:#000000; stroke-width:118.11; stroke-opacity:1; 
stroke-linecap:round; stroke-linejoin:round;">
<path d="M55448 45503
L55448 44322
L55730 44322
L55898 44378
L56011 44490
L56067 44603
L56123 44828
L56123 44997
L56067 45221
L56011 45334
L55898 45446
L55730 45503
L55448 45503
" />
<path d="M56630 45503
L56630 44715
" />
<path d="M56630 44940
L56686 44828
L56742 44772
L56855 44715
L56967 44715
" />
<path d="M57361 45503
L57361 44715
" />
<path d="M57361 44322
L57304 44378
L57361 44434
L57417 44378
L57361 44322
L57361 44434
" />
<path d="M58092 45503
L57979 45446
L57923 45334
L57923 44322
" />
<path d="M58711 45503
L58598 45446
L58542 45334
L58542 44322
" />
<path d="M60060 45503
L60060 44322
L60454 45165
L60848 44322
L60848 45503
" />
<path d="M61916 45503
L61916 44884
L61860 44772
L61748 44715
L61523 44715
L61410 44772
" />
<path d="M61916 45446
L61804 45503
L61523 45503
L61410 45446
L61354 45334
L61354 45221
L61410 45109
L61523 45053
L61804 45053
L61916 44997
" />
<path d="M62479 44715
L62479 45896
" />
<path d="M62479 44772
L62591 44715
L62816 44715
L62929 44772
L62985 44828
L63041 44940
L63041 45278
L62985 45390
L62929 45446
L62816 45503
L62591 45503
L62479 45446
" />
<path d="M63547 45390
L63604 45446
L63547 45503
L63491 45446
L63547 45390
L63547 45503
" />
<path d="M63547 44772
L63604 44828
L63547 44884
L63491 44828
L63547 44772
L63547 44884
" />
<path d="M54026 47272
L54380 47626
" />
<path d="M54380 47272
L54026 47626
" />
<path d="M55673 46802
L55786 46802
L55898 46858
L55955 46914
L56011 47027
L56067 47252
L56067 47533
L56011 47758
L55955 47871
L55898 47927
L55786 47983
L55673 47983
L55561 47927
L55505 47871
L55448 47758
L55392 47533
L55392 47252
L55448 47027
L55505 46914
L55561 46858
L55673 46802
" />
<path d="M56573 47871
L56630 47927
L56573 47983
L56517 47927
L56573 47871
L56573 47983
" />
<path d="M57192 47983
L57417 47983
L57529 47927
L57586 47871
L57698 47702
L57754 47477
L57754 47027
L57698 46914
L57642 46858
L57529 46802
L57304 46802
L57192 46858
L57136 46914
L57079 47027
L57079 47308
L57136 47421
L57192 47477
L57304 47533
L57529 47533
L57642 47477
L57698 47421
L57754 47308
" />
<path d="M58486 46802
L58598 46802
L58711 46858
L58767 46914
L58823 47027
L58879 47252
L58879 47533
L58823 47758
L58767 47871
L58711 47927
L58598 47983
L58486 47983
L58373 47927
L58317 47871
L58261 47758
L58204 47533
L58204 47252
L58261 47027
L58317 46914
L58373 46858
L58486 46802
" />
<path d="M59385 47983
L59385 47196
" />
<path d="M59385 47308
L59442 47252
L59554 47196
L59723 47196
L59835 47252
L59892 47364
L59892 47983
" />
<path d="M59892 47364
L59948 47252
L60060 47196
L60229 47196
L60342 47252
L60398 47364
L60398 47983
" />
<path d="M60960 47983
L60960 47196
" />
<path d="M60960 47308
L61016 47252
L61129 47196
L61298 47196
L61410 47252
L61466 47364
L61466 47983
" />
<path d="M61466 47364
L61523 47252
L61635 47196
L61804 47196
L61916 47252
L61973 47364
L61973 47983
" />
<path d="M64279 46746
L63266 48264
" />
<path d="M65797 46802
L65910 46802
L66022 46858
L66078 46914
L66135 47027
L66191 47252
L66191 47533
L66135 47758
L66078 47871
L66022 47927
L65910 47983
L65797 47983
L65685 47927
L65628 47871
L65572 47758
L65516 47533
L65516 47252
L65572 47027
L65628 46914
L65685 46858
L65797 46802
" />
<path d="M66697 47871
L66753 47927
L66697 47983
L66641 47927
L66697 47871
L66697 47983
" />
<path d="M67484 46802
L67597 46802
L67709 46858
L67766 46914
L67822 47027
L67878 47252
L67878 47533
L67822 47758
L67766 47871
L67709 47927
L67597 47983
L67484 47983
L67372 47927
L67316 47871
L67259 47758
L67203 47533
L67203 47252
L67259 47027
L67316 46914
L67372 46858
L67484 46802
" />
<path d="M68272 46802
L69003 46802
L68609 47252
L68778 47252
L68891 47308
L68947 47364
L69003 47477
L69003 47758
L68947 47871
L68891 47927
L68778 47983
L68441 47983
L68328 47927
L68272 47871
" />
<path d="M70072 46802
L69509 46802
L69453 47364
L69509 47308
L69622 47252
L69903 47252
L70015 47308
L70072 47364
L70128 47477
L70128 47758
L70072 47871
L70015 47927
L69903 47983
L69622 47983
L69509 47927
L69453 47871
" />
<path d="M70578 46802
L70578 47027
" />
<path d="M71028 46802
L71028 47027
" />
<path d="M72771 48433
L72715 48377
L72603 48208
L72546 48096
L72490 47927
L72434 47646
L72434 47421
L72490 47139
L72546 46971
L72603 46858
L72715 46689
L72771 46633
" />
<path d="M73165 46914
L73221 46858
L73334 46802
L73615 46802
L73727 46858
L73784 46914
L73840 47027
L73840 47139
L73784 47308
L73109 47983
L73840 47983
" />
<path d="M75246 47983
L75246 46802
" />
<path d="M75752 47983
L75752 47364
L75696 47252
L75583 47196
L75415 47196
L75302 47252
L75246 47308
" />
<path d="M76483 47983
L76371 47927
L76315 47871
L76258 47758
L76258 47421
L76315 47308
L76371 47252
L76483 47196
L76652 47196
L76765 47252
L76821 47308
L76877 47421
L76877 47758
L76821 47871
L76765 47927
L76652 47983
L76483 47983
" />
<path d="M77552 47983
L77439 47927
L77383 47814
L77383 46802
" />
<path d="M78452 47927
L78339 47983
L78114 47983
L78002 47927
L77946 47814
L77946 47364
L78002 47252
L78114 47196
L78339 47196
L78452 47252
L78508 47364
L78508 47477
L77946 47589
" />
<path d="M78958 47927
L79070 47983
L79295 47983
L79408 47927
L79464 47814
L79464 47758
L79408 47646
L79295 47589
L79127 47589
L79014 47533
L78958 47421
L78958 47364
L79014 47252
L79127 47196
L79295 47196
L79408 47252
" />
<path d="M79858 48433
L79914 48377
L80027 48208
L80083 48096
L80139 47927
L80195 47646
L80195 47421
L80139 47139
L80083 46971
L80027 46858
L79914 46689
L79858 46633
" />
</g> 
</svg>
