G04 CAM350 V9.5.1 (Build 211) Date:  Tue May 10 22:39:24 2016 *
G04 Database: (Untitled) *
G04 Layer 7: STM32Mini-F_Mas *
%FSLAX45Y45*%
%MOMM*%
%SFA1.000B1.000*%

%MIA0B0*%
%IPPOS*%
%ADD16R,2.19964X1.52400*%
%ADD17O,2.19964X1.52400*%
%ADD18R,0.90000X0.50000*%
%ADD71C,0.89916*%
%ADD20R,1.52400X1.99898*%
%ADD21O,1.52400X1.99898*%
%ADD30R,1.00076X1.00076*%
%ADD31R,0.79756X0.79756*%
%ADD32R,0.50000X0.90000*%
%ADD33R,2.19710X2.19710*%
%ADD34R,0.49784X2.19710*%
%LNSTM32Mini-F_Mas*%
%LPD*%
G54D30*
X14359382Y-8013700D03*
X15079218D03*
X14359382Y-7226300D03*
X15079218D03*
G54D16*
X13970000Y-10934700D03*
G54D17*
Y-10680700D03*
Y-10426700D03*
Y-10172700D03*
Y-9918700D03*
Y-9664700D03*
Y-9410700D03*
Y-9156700D03*
Y-8902700D03*
Y-8648700D03*
Y-8394700D03*
Y-8140700D03*
Y-7886700D03*
Y-7632700D03*
Y-7378700D03*
Y-7124700D03*
Y-6870700D03*
Y-6616700D03*
Y-6362700D03*
Y-6108700D03*
G54D16*
X15494200Y-10934700D03*
G54D17*
Y-10680700D03*
Y-10426700D03*
Y-10172700D03*
Y-9918700D03*
Y-9664700D03*
Y-9410700D03*
Y-9156700D03*
Y-8902700D03*
Y-8648700D03*
Y-8394700D03*
Y-8140700D03*
Y-7886700D03*
Y-7632700D03*
Y-7378700D03*
Y-7124700D03*
Y-6870700D03*
Y-6616700D03*
Y-6362700D03*
Y-6108700D03*
G54D31*
X14744700Y-8586470D03*
Y-8736330D03*
G54D32*
X15073560Y-9100820D03*
X15223560D03*
G54D20*
X14478000Y-6387592D03*
G54D21*
Y-6083808D03*
X14732000Y-6387592D03*
Y-6083808D03*
X14986000Y-6387592D03*
Y-6083808D03*
G54D33*
X15174976Y-10382250D03*
G54D34*
X14572234Y-10354310D03*
X14652244D03*
X14732000D03*
X14811756D03*
X14891766D03*
G54D71*
X14512290Y-10607040D03*
X14951964D03*
G54D33*
X14289024Y-10382250D03*
Y-10932160D03*
X15174976D03*
G54D18*
X14681200Y-6889820D03*
Y-6739820D03*
X14874240Y-6889820D03*
Y-6739820D03*
M02*
