G04 #@! TF.FileFunction,Soldermask,Bot*
%FSLAX46Y46*%
G04 Gerber Fmt 4.6, Leading zero omitted, Abs format (unit mm)*
G04 Created by KiCad (PCBNEW 4.0.0-rc1-stable) date 05/11/2015 13:36:29*
%MOMM*%
G01*
G04 APERTURE LIST*
%ADD10C,0.100000*%
%ADD11R,0.750000X0.800000*%
%ADD12R,1.300000X0.700000*%
%ADD13R,0.800100X0.800100*%
%ADD14R,3.657600X2.032000*%
%ADD15R,1.016000X2.032000*%
%ADD16R,2.199640X1.524000*%
%ADD17O,2.199640X1.524000*%
%ADD18R,0.900000X0.500000*%
%ADD19R,1.000760X0.599440*%
%ADD20R,1.524000X1.998980*%
%ADD21O,1.524000X1.998980*%
%ADD22C,0.899160*%
%ADD23R,1.200000X1.400000*%
G04 APERTURE END LIST*
D10*
D11*
X146812000Y-66814000D03*
X146812000Y-68314000D03*
X148590000Y-72124000D03*
X148590000Y-70624000D03*
D12*
X146431000Y-99375000D03*
X146431000Y-97475000D03*
D13*
X152461000Y-99425760D03*
X150561000Y-99425760D03*
X151511000Y-97426780D03*
D14*
X147066000Y-108458000D03*
D15*
X147066000Y-101854000D03*
X149352000Y-101854000D03*
X144780000Y-101854000D03*
D16*
X139700000Y-109347000D03*
D17*
X139700000Y-106807000D03*
X139700000Y-104267000D03*
X139700000Y-101727000D03*
X139700000Y-99187000D03*
X139700000Y-96647000D03*
X139700000Y-94107000D03*
X139700000Y-91567000D03*
X139700000Y-89027000D03*
X139700000Y-86487000D03*
X139700000Y-83947000D03*
X139700000Y-81407000D03*
X139700000Y-78867000D03*
X139700000Y-76327000D03*
X139700000Y-73787000D03*
X139700000Y-71247000D03*
X139700000Y-68707000D03*
X139700000Y-66167000D03*
X139700000Y-63627000D03*
X139700000Y-61087000D03*
D16*
X154942000Y-109347000D03*
D17*
X154942000Y-106807000D03*
X154942000Y-104267000D03*
X154942000Y-101727000D03*
X154942000Y-99187000D03*
X154942000Y-96647000D03*
X154942000Y-94107000D03*
X154942000Y-91567000D03*
X154942000Y-89027000D03*
X154942000Y-86487000D03*
X154942000Y-83947000D03*
X154942000Y-81407000D03*
X154942000Y-78867000D03*
X154942000Y-76327000D03*
X154942000Y-73787000D03*
X154942000Y-71247000D03*
X154942000Y-68707000D03*
X154942000Y-66167000D03*
X154942000Y-63627000D03*
X154942000Y-61087000D03*
D18*
X148463000Y-94373000D03*
X148463000Y-95873000D03*
X145288000Y-94373000D03*
X145288000Y-95873000D03*
X143256000Y-94373000D03*
X143256000Y-95873000D03*
X144780000Y-68822000D03*
X144780000Y-67322000D03*
X142494000Y-68822000D03*
X142494000Y-67322000D03*
X150749000Y-66687000D03*
X150749000Y-68187000D03*
X150749000Y-70497000D03*
X150749000Y-71997000D03*
D11*
X148717000Y-66814000D03*
X148717000Y-68314000D03*
D13*
X142306000Y-97424240D03*
X144206000Y-97424240D03*
X143256000Y-99423220D03*
D19*
X145120360Y-77152500D03*
X145120360Y-75247500D03*
X145120360Y-76200000D03*
X147233640Y-75247500D03*
X147233640Y-77152500D03*
D20*
X144780000Y-63875920D03*
D21*
X144780000Y-60838080D03*
X147320000Y-63875920D03*
X147320000Y-60838080D03*
X149860000Y-63875920D03*
X149860000Y-60838080D03*
D22*
X145122900Y-106070400D03*
X149519640Y-106070400D03*
D23*
X152565000Y-75354000D03*
X152565000Y-77554000D03*
X150965000Y-75354000D03*
X150965000Y-77554000D03*
D18*
X148717000Y-97929000D03*
X148717000Y-99429000D03*
X150749000Y-95873000D03*
X150749000Y-94373000D03*
D10*
G36*
X148769413Y-81788338D02*
X149688991Y-80868760D01*
X149900925Y-81080694D01*
X148981347Y-82000272D01*
X148769413Y-81788338D01*
X148769413Y-81788338D01*
G37*
G36*
X149123236Y-82142160D02*
X150042814Y-81222582D01*
X150254748Y-81434516D01*
X149335170Y-82354094D01*
X149123236Y-82142160D01*
X149123236Y-82142160D01*
G37*
G36*
X149477058Y-82495982D02*
X150396636Y-81576404D01*
X150608570Y-81788338D01*
X149688992Y-82707916D01*
X149477058Y-82495982D01*
X149477058Y-82495982D01*
G37*
G36*
X149829084Y-82848008D02*
X150748662Y-81928430D01*
X150960596Y-82140364D01*
X150041018Y-83059942D01*
X149829084Y-82848008D01*
X149829084Y-82848008D01*
G37*
G36*
X150182906Y-83201830D02*
X151102484Y-82282252D01*
X151314418Y-82494186D01*
X150394840Y-83413764D01*
X150182906Y-83201830D01*
X150182906Y-83201830D01*
G37*
G36*
X147707947Y-80726872D02*
X148627525Y-79807294D01*
X148839459Y-80019228D01*
X147919881Y-80938806D01*
X147707947Y-80726872D01*
X147707947Y-80726872D01*
G37*
G36*
X148061769Y-81080694D02*
X148981347Y-80161116D01*
X149193281Y-80373050D01*
X148273703Y-81292628D01*
X148061769Y-81080694D01*
X148061769Y-81080694D01*
G37*
G36*
X148415591Y-81434516D02*
X149335169Y-80514938D01*
X149547103Y-80726872D01*
X148627525Y-81646450D01*
X148415591Y-81434516D01*
X148415591Y-81434516D01*
G37*
G36*
X151598194Y-85816881D02*
X151810128Y-85604947D01*
X152729706Y-86524525D01*
X152517772Y-86736459D01*
X151598194Y-85816881D01*
X151598194Y-85816881D01*
G37*
G36*
X151244372Y-86170703D02*
X151456306Y-85958769D01*
X152375884Y-86878347D01*
X152163950Y-87090281D01*
X151244372Y-86170703D01*
X151244372Y-86170703D01*
G37*
G36*
X150890550Y-86524525D02*
X151102484Y-86312591D01*
X152022062Y-87232169D01*
X151810128Y-87444103D01*
X150890550Y-86524525D01*
X150890550Y-86524525D01*
G37*
G36*
X150536728Y-86878347D02*
X150748662Y-86666413D01*
X151668240Y-87585991D01*
X151456306Y-87797925D01*
X150536728Y-86878347D01*
X150536728Y-86878347D01*
G37*
G36*
X150182906Y-87232170D02*
X150394840Y-87020236D01*
X151314418Y-87939814D01*
X151102484Y-88151748D01*
X150182906Y-87232170D01*
X150182906Y-87232170D01*
G37*
G36*
X149829084Y-87585992D02*
X150041018Y-87374058D01*
X150960596Y-88293636D01*
X150748662Y-88505570D01*
X149829084Y-87585992D01*
X149829084Y-87585992D01*
G37*
G36*
X149477058Y-87938018D02*
X149688992Y-87726084D01*
X150608570Y-88645662D01*
X150396636Y-88857596D01*
X149477058Y-87938018D01*
X149477058Y-87938018D01*
G37*
G36*
X149123236Y-88291840D02*
X149335170Y-88079906D01*
X150254748Y-88999484D01*
X150042814Y-89211418D01*
X149123236Y-88291840D01*
X149123236Y-88291840D01*
G37*
G36*
X145800541Y-90414772D02*
X146720119Y-89495194D01*
X146932053Y-89707128D01*
X146012475Y-90626706D01*
X145800541Y-90414772D01*
X145800541Y-90414772D01*
G37*
G36*
X145446719Y-90060950D02*
X146366297Y-89141372D01*
X146578231Y-89353306D01*
X145658653Y-90272884D01*
X145446719Y-90060950D01*
X145446719Y-90060950D01*
G37*
G36*
X145092897Y-89707128D02*
X146012475Y-88787550D01*
X146224409Y-88999484D01*
X145304831Y-89919062D01*
X145092897Y-89707128D01*
X145092897Y-89707128D01*
G37*
G36*
X144739075Y-89353306D02*
X145658653Y-88433728D01*
X145870587Y-88645662D01*
X144951009Y-89565240D01*
X144739075Y-89353306D01*
X144739075Y-89353306D01*
G37*
G36*
X144385252Y-88999484D02*
X145304830Y-88079906D01*
X145516764Y-88291840D01*
X144597186Y-89211418D01*
X144385252Y-88999484D01*
X144385252Y-88999484D01*
G37*
G36*
X144031430Y-88645662D02*
X144951008Y-87726084D01*
X145162942Y-87938018D01*
X144243364Y-88857596D01*
X144031430Y-88645662D01*
X144031430Y-88645662D01*
G37*
G36*
X143679404Y-88293636D02*
X144598982Y-87374058D01*
X144810916Y-87585992D01*
X143891338Y-88505570D01*
X143679404Y-88293636D01*
X143679404Y-88293636D01*
G37*
G36*
X143325582Y-87939814D02*
X144245160Y-87020236D01*
X144457094Y-87232170D01*
X143537516Y-88151748D01*
X143325582Y-87939814D01*
X143325582Y-87939814D01*
G37*
G36*
X141910294Y-83909475D02*
X142122228Y-83697541D01*
X143041806Y-84617119D01*
X142829872Y-84829053D01*
X141910294Y-83909475D01*
X141910294Y-83909475D01*
G37*
G36*
X142264116Y-83555653D02*
X142476050Y-83343719D01*
X143395628Y-84263297D01*
X143183694Y-84475231D01*
X142264116Y-83555653D01*
X142264116Y-83555653D01*
G37*
G36*
X142617938Y-83201831D02*
X142829872Y-82989897D01*
X143749450Y-83909475D01*
X143537516Y-84121409D01*
X142617938Y-83201831D01*
X142617938Y-83201831D01*
G37*
G36*
X142971760Y-82848009D02*
X143183694Y-82636075D01*
X144103272Y-83555653D01*
X143891338Y-83767587D01*
X142971760Y-82848009D01*
X142971760Y-82848009D01*
G37*
G36*
X143325582Y-82494186D02*
X143537516Y-82282252D01*
X144457094Y-83201830D01*
X144245160Y-83413764D01*
X143325582Y-82494186D01*
X143325582Y-82494186D01*
G37*
G36*
X143679404Y-82140364D02*
X143891338Y-81928430D01*
X144810916Y-82848008D01*
X144598982Y-83059942D01*
X143679404Y-82140364D01*
X143679404Y-82140364D01*
G37*
G36*
X144031430Y-81788338D02*
X144243364Y-81576404D01*
X145162942Y-82495982D01*
X144951008Y-82707916D01*
X144031430Y-81788338D01*
X144031430Y-81788338D01*
G37*
G36*
X144385252Y-81434516D02*
X144597186Y-81222582D01*
X145516764Y-82142160D01*
X145304830Y-82354094D01*
X144385252Y-81434516D01*
X144385252Y-81434516D01*
G37*
G36*
X150536728Y-83555653D02*
X151456306Y-82636075D01*
X151668240Y-82848009D01*
X150748662Y-83767587D01*
X150536728Y-83555653D01*
X150536728Y-83555653D01*
G37*
G36*
X150890550Y-83909475D02*
X151810128Y-82989897D01*
X152022062Y-83201831D01*
X151102484Y-84121409D01*
X150890550Y-83909475D01*
X150890550Y-83909475D01*
G37*
G36*
X151244372Y-84263297D02*
X152163950Y-83343719D01*
X152375884Y-83555653D01*
X151456306Y-84475231D01*
X151244372Y-84263297D01*
X151244372Y-84263297D01*
G37*
G36*
X151598194Y-84617119D02*
X152517772Y-83697541D01*
X152729706Y-83909475D01*
X151810128Y-84829053D01*
X151598194Y-84617119D01*
X151598194Y-84617119D01*
G37*
G36*
X148769413Y-88645662D02*
X148981347Y-88433728D01*
X149900925Y-89353306D01*
X149688991Y-89565240D01*
X148769413Y-88645662D01*
X148769413Y-88645662D01*
G37*
G36*
X148415591Y-88999484D02*
X148627525Y-88787550D01*
X149547103Y-89707128D01*
X149335169Y-89919062D01*
X148415591Y-88999484D01*
X148415591Y-88999484D01*
G37*
G36*
X148061769Y-89353306D02*
X148273703Y-89141372D01*
X149193281Y-90060950D01*
X148981347Y-90272884D01*
X148061769Y-89353306D01*
X148061769Y-89353306D01*
G37*
G36*
X147707947Y-89707128D02*
X147919881Y-89495194D01*
X148839459Y-90414772D01*
X148627525Y-90626706D01*
X147707947Y-89707128D01*
X147707947Y-89707128D01*
G37*
G36*
X142971760Y-87585991D02*
X143891338Y-86666413D01*
X144103272Y-86878347D01*
X143183694Y-87797925D01*
X142971760Y-87585991D01*
X142971760Y-87585991D01*
G37*
G36*
X142617938Y-87232169D02*
X143537516Y-86312591D01*
X143749450Y-86524525D01*
X142829872Y-87444103D01*
X142617938Y-87232169D01*
X142617938Y-87232169D01*
G37*
G36*
X142264116Y-86878347D02*
X143183694Y-85958769D01*
X143395628Y-86170703D01*
X142476050Y-87090281D01*
X142264116Y-86878347D01*
X142264116Y-86878347D01*
G37*
G36*
X141910294Y-86524525D02*
X142829872Y-85604947D01*
X143041806Y-85816881D01*
X142122228Y-86736459D01*
X141910294Y-86524525D01*
X141910294Y-86524525D01*
G37*
G36*
X144739075Y-81080694D02*
X144951009Y-80868760D01*
X145870587Y-81788338D01*
X145658653Y-82000272D01*
X144739075Y-81080694D01*
X144739075Y-81080694D01*
G37*
G36*
X145092897Y-80726872D02*
X145304831Y-80514938D01*
X146224409Y-81434516D01*
X146012475Y-81646450D01*
X145092897Y-80726872D01*
X145092897Y-80726872D01*
G37*
G36*
X145446719Y-80373050D02*
X145658653Y-80161116D01*
X146578231Y-81080694D01*
X146366297Y-81292628D01*
X145446719Y-80373050D01*
X145446719Y-80373050D01*
G37*
G36*
X145800541Y-80019228D02*
X146012475Y-79807294D01*
X146932053Y-80726872D01*
X146720119Y-80938806D01*
X145800541Y-80019228D01*
X145800541Y-80019228D01*
G37*
M02*
