G04 #@! TF.FileFunction,Legend,Bot*
%FSLAX46Y46*%
G04 Gerber Fmt 4.6, Leading zero omitted, Abs format (unit mm)*
G04 Created by KiCad (PCBNEW 4.0.0-rc1-stable) date 05/11/2015 13:36:28*
%MOMM*%
G01*
G04 APERTURE LIST*
%ADD10C,0.100000*%
%ADD11C,0.150000*%
%ADD12C,0.304800*%
%ADD13C,0.149860*%
%ADD14C,0.127000*%
%ADD15C,0.203200*%
G04 APERTURE END LIST*
D10*
D11*
X146212000Y-67214000D02*
X146212000Y-67914000D01*
X147412000Y-67914000D02*
X147412000Y-67214000D01*
X149190000Y-71724000D02*
X149190000Y-71024000D01*
X147990000Y-71024000D02*
X147990000Y-71724000D01*
X145556000Y-97825000D02*
X145556000Y-99025000D01*
X147306000Y-99025000D02*
X147306000Y-97825000D01*
X150211840Y-97774760D02*
X150260100Y-97774760D01*
X153010820Y-98475800D02*
X153010820Y-97774760D01*
X153010820Y-97774760D02*
X152761900Y-97774760D01*
X150211840Y-97774760D02*
X150011180Y-97774760D01*
X150011180Y-97774760D02*
X150011180Y-98475800D01*
X143510000Y-103632000D02*
X143510000Y-100584000D01*
X143510000Y-100584000D02*
X150622000Y-100584000D01*
X150622000Y-100584000D02*
X150622000Y-103632000D01*
X145034000Y-109728000D02*
X149098000Y-109728000D01*
D12*
X138430000Y-59817000D02*
X138430000Y-110617000D01*
X140970000Y-110617000D02*
X140970000Y-59817000D01*
X140970000Y-59817000D02*
X138430000Y-59817000D01*
X140970000Y-108077000D02*
X138430000Y-108077000D01*
X138430000Y-110617000D02*
X140970000Y-110617000D01*
X153672000Y-59817000D02*
X153672000Y-110617000D01*
X156212000Y-110617000D02*
X156212000Y-59817000D01*
X156212000Y-59817000D02*
X153672000Y-59817000D01*
X156212000Y-108077000D02*
X153672000Y-108077000D01*
X153672000Y-110617000D02*
X156212000Y-110617000D01*
D11*
X149138000Y-95623000D02*
X149138000Y-94623000D01*
X147788000Y-94623000D02*
X147788000Y-95623000D01*
X145963000Y-95623000D02*
X145963000Y-94623000D01*
X144613000Y-94623000D02*
X144613000Y-95623000D01*
X143931000Y-95623000D02*
X143931000Y-94623000D01*
X142581000Y-94623000D02*
X142581000Y-95623000D01*
X144105000Y-67572000D02*
X144105000Y-68572000D01*
X145455000Y-68572000D02*
X145455000Y-67572000D01*
X141819000Y-67572000D02*
X141819000Y-68572000D01*
X143169000Y-68572000D02*
X143169000Y-67572000D01*
X151424000Y-67937000D02*
X151424000Y-66937000D01*
X150074000Y-66937000D02*
X150074000Y-67937000D01*
X151424000Y-71747000D02*
X151424000Y-70747000D01*
X150074000Y-70747000D02*
X150074000Y-71747000D01*
X148117000Y-67214000D02*
X148117000Y-67914000D01*
X149317000Y-67914000D02*
X149317000Y-67214000D01*
X144555160Y-99075240D02*
X144506900Y-99075240D01*
X141756180Y-98374200D02*
X141756180Y-99075240D01*
X141756180Y-99075240D02*
X142005100Y-99075240D01*
X144555160Y-99075240D02*
X144755820Y-99075240D01*
X144755820Y-99075240D02*
X144755820Y-98374200D01*
X149392000Y-99179000D02*
X149392000Y-98179000D01*
X148042000Y-98179000D02*
X148042000Y-99179000D01*
X150074000Y-94623000D02*
X150074000Y-95623000D01*
X151424000Y-95623000D02*
X151424000Y-94623000D01*
D13*
X147178112Y-79561235D02*
X147461888Y-79561235D01*
X147601980Y-79701327D02*
X147038020Y-79701327D01*
X146896132Y-79843215D02*
X147743868Y-79843215D01*
X147885756Y-79985103D02*
X146754244Y-79985103D01*
X148027644Y-80126991D02*
X147320000Y-79419347D01*
X147320000Y-79419347D02*
X146612356Y-80126991D01*
X146612356Y-80126991D02*
X148027644Y-80126991D01*
X152410009Y-85924644D02*
X153117653Y-85217000D01*
X153117653Y-85217000D02*
X152410009Y-84509356D01*
X146612356Y-90307009D02*
X147320000Y-91014653D01*
X147320000Y-91014653D02*
X148027644Y-90307009D01*
X142229991Y-84509356D02*
X141522347Y-85217000D01*
X141522347Y-85217000D02*
X142229991Y-85924644D01*
D14*
X147603981Y-81804503D02*
G75*
G03X147603981Y-81804503I-283981J0D01*
G01*
D11*
X147169143Y-69683334D02*
X147216762Y-69635715D01*
X147264381Y-69492858D01*
X147264381Y-69397620D01*
X147216762Y-69254762D01*
X147121524Y-69159524D01*
X147026286Y-69111905D01*
X146835810Y-69064286D01*
X146692952Y-69064286D01*
X146502476Y-69111905D01*
X146407238Y-69159524D01*
X146312000Y-69254762D01*
X146264381Y-69397620D01*
X146264381Y-69492858D01*
X146312000Y-69635715D01*
X146359619Y-69683334D01*
X147264381Y-70635715D02*
X147264381Y-70064286D01*
X147264381Y-70350000D02*
X146264381Y-70350000D01*
X146407238Y-70254762D01*
X146502476Y-70159524D01*
X146550095Y-70064286D01*
X148947143Y-73620334D02*
X148994762Y-73572715D01*
X149042381Y-73429858D01*
X149042381Y-73334620D01*
X148994762Y-73191762D01*
X148899524Y-73096524D01*
X148804286Y-73048905D01*
X148613810Y-73001286D01*
X148470952Y-73001286D01*
X148280476Y-73048905D01*
X148185238Y-73096524D01*
X148090000Y-73191762D01*
X148042381Y-73334620D01*
X148042381Y-73429858D01*
X148090000Y-73572715D01*
X148137619Y-73620334D01*
X148137619Y-74001286D02*
X148090000Y-74048905D01*
X148042381Y-74144143D01*
X148042381Y-74382239D01*
X148090000Y-74477477D01*
X148137619Y-74525096D01*
X148232857Y-74572715D01*
X148328095Y-74572715D01*
X148470952Y-74525096D01*
X149042381Y-73953667D01*
X149042381Y-74572715D01*
X146867571Y-95424667D02*
X146867571Y-95091333D01*
X147391381Y-95091333D02*
X146391381Y-95091333D01*
X146391381Y-95567524D01*
X147391381Y-96472286D02*
X147391381Y-95900857D01*
X147391381Y-96186571D02*
X146391381Y-96186571D01*
X146534238Y-96091333D01*
X146629476Y-95996095D01*
X146677095Y-95900857D01*
X151987238Y-101385619D02*
X152082476Y-101338000D01*
X152177714Y-101242762D01*
X152320571Y-101099905D01*
X152415810Y-101052286D01*
X152511048Y-101052286D01*
X152463429Y-101290381D02*
X152558667Y-101242762D01*
X152653905Y-101147524D01*
X152701524Y-100957048D01*
X152701524Y-100623714D01*
X152653905Y-100433238D01*
X152558667Y-100338000D01*
X152463429Y-100290381D01*
X152272952Y-100290381D01*
X152177714Y-100338000D01*
X152082476Y-100433238D01*
X152034857Y-100623714D01*
X152034857Y-100957048D01*
X152082476Y-101147524D01*
X152177714Y-101242762D01*
X152272952Y-101290381D01*
X152463429Y-101290381D01*
X151082476Y-101290381D02*
X151653905Y-101290381D01*
X151368191Y-101290381D02*
X151368191Y-100290381D01*
X151463429Y-100433238D01*
X151558667Y-100528476D01*
X151653905Y-100576095D01*
X147827905Y-104989381D02*
X147827905Y-105798905D01*
X147780286Y-105894143D01*
X147732667Y-105941762D01*
X147637429Y-105989381D01*
X147446952Y-105989381D01*
X147351714Y-105941762D01*
X147304095Y-105894143D01*
X147256476Y-105798905D01*
X147256476Y-104989381D01*
X146256476Y-105989381D02*
X146827905Y-105989381D01*
X146542191Y-105989381D02*
X146542191Y-104989381D01*
X146637429Y-105132238D01*
X146732667Y-105227476D01*
X146827905Y-105275095D01*
D15*
X142445619Y-60337096D02*
X141429619Y-60337096D01*
X141429619Y-60724143D01*
X141478000Y-60820905D01*
X141526381Y-60869286D01*
X141623143Y-60917667D01*
X141768286Y-60917667D01*
X141865048Y-60869286D01*
X141913429Y-60820905D01*
X141961810Y-60724143D01*
X141961810Y-60337096D01*
X142445619Y-61885286D02*
X142445619Y-61304715D01*
X142445619Y-61595001D02*
X141429619Y-61595001D01*
X141574762Y-61498239D01*
X141671524Y-61401477D01*
X141719905Y-61304715D01*
X153242619Y-60083096D02*
X152226619Y-60083096D01*
X152226619Y-60470143D01*
X152275000Y-60566905D01*
X152323381Y-60615286D01*
X152420143Y-60663667D01*
X152565286Y-60663667D01*
X152662048Y-60615286D01*
X152710429Y-60566905D01*
X152758810Y-60470143D01*
X152758810Y-60083096D01*
X152323381Y-61050715D02*
X152275000Y-61099096D01*
X152226619Y-61195858D01*
X152226619Y-61437762D01*
X152275000Y-61534524D01*
X152323381Y-61582905D01*
X152420143Y-61631286D01*
X152516905Y-61631286D01*
X152662048Y-61582905D01*
X153242619Y-61002334D01*
X153242619Y-61631286D01*
D11*
X148915381Y-92670334D02*
X148439190Y-92337000D01*
X148915381Y-92098905D02*
X147915381Y-92098905D01*
X147915381Y-92479858D01*
X147963000Y-92575096D01*
X148010619Y-92622715D01*
X148105857Y-92670334D01*
X148248714Y-92670334D01*
X148343952Y-92622715D01*
X148391571Y-92575096D01*
X148439190Y-92479858D01*
X148439190Y-92098905D01*
X148915381Y-93622715D02*
X148915381Y-93051286D01*
X148915381Y-93337000D02*
X147915381Y-93337000D01*
X148058238Y-93241762D01*
X148153476Y-93146524D01*
X148201095Y-93051286D01*
X145740381Y-92543334D02*
X145264190Y-92210000D01*
X145740381Y-91971905D02*
X144740381Y-91971905D01*
X144740381Y-92352858D01*
X144788000Y-92448096D01*
X144835619Y-92495715D01*
X144930857Y-92543334D01*
X145073714Y-92543334D01*
X145168952Y-92495715D01*
X145216571Y-92448096D01*
X145264190Y-92352858D01*
X145264190Y-91971905D01*
X144835619Y-92924286D02*
X144788000Y-92971905D01*
X144740381Y-93067143D01*
X144740381Y-93305239D01*
X144788000Y-93400477D01*
X144835619Y-93448096D01*
X144930857Y-93495715D01*
X145026095Y-93495715D01*
X145168952Y-93448096D01*
X145740381Y-92876667D01*
X145740381Y-93495715D01*
X143708381Y-92543334D02*
X143232190Y-92210000D01*
X143708381Y-91971905D02*
X142708381Y-91971905D01*
X142708381Y-92352858D01*
X142756000Y-92448096D01*
X142803619Y-92495715D01*
X142898857Y-92543334D01*
X143041714Y-92543334D01*
X143136952Y-92495715D01*
X143184571Y-92448096D01*
X143232190Y-92352858D01*
X143232190Y-91971905D01*
X142708381Y-92876667D02*
X142708381Y-93495715D01*
X143089333Y-93162381D01*
X143089333Y-93305239D01*
X143136952Y-93400477D01*
X143184571Y-93448096D01*
X143279810Y-93495715D01*
X143517905Y-93495715D01*
X143613143Y-93448096D01*
X143660762Y-93400477D01*
X143708381Y-93305239D01*
X143708381Y-93019524D01*
X143660762Y-92924286D01*
X143613143Y-92876667D01*
X145232381Y-70191334D02*
X144756190Y-69858000D01*
X145232381Y-69619905D02*
X144232381Y-69619905D01*
X144232381Y-70000858D01*
X144280000Y-70096096D01*
X144327619Y-70143715D01*
X144422857Y-70191334D01*
X144565714Y-70191334D01*
X144660952Y-70143715D01*
X144708571Y-70096096D01*
X144756190Y-70000858D01*
X144756190Y-69619905D01*
X144565714Y-71048477D02*
X145232381Y-71048477D01*
X144184762Y-70810381D02*
X144899048Y-70572286D01*
X144899048Y-71191334D01*
X142946381Y-70064334D02*
X142470190Y-69731000D01*
X142946381Y-69492905D02*
X141946381Y-69492905D01*
X141946381Y-69873858D01*
X141994000Y-69969096D01*
X142041619Y-70016715D01*
X142136857Y-70064334D01*
X142279714Y-70064334D01*
X142374952Y-70016715D01*
X142422571Y-69969096D01*
X142470190Y-69873858D01*
X142470190Y-69492905D01*
X141946381Y-70969096D02*
X141946381Y-70492905D01*
X142422571Y-70445286D01*
X142374952Y-70492905D01*
X142327333Y-70588143D01*
X142327333Y-70826239D01*
X142374952Y-70921477D01*
X142422571Y-70969096D01*
X142517810Y-71016715D01*
X142755905Y-71016715D01*
X142851143Y-70969096D01*
X142898762Y-70921477D01*
X142946381Y-70826239D01*
X142946381Y-70588143D01*
X142898762Y-70492905D01*
X142851143Y-70445286D01*
X152852381Y-67270334D02*
X152376190Y-66937000D01*
X152852381Y-66698905D02*
X151852381Y-66698905D01*
X151852381Y-67079858D01*
X151900000Y-67175096D01*
X151947619Y-67222715D01*
X152042857Y-67270334D01*
X152185714Y-67270334D01*
X152280952Y-67222715D01*
X152328571Y-67175096D01*
X152376190Y-67079858D01*
X152376190Y-66698905D01*
X151852381Y-68127477D02*
X151852381Y-67937000D01*
X151900000Y-67841762D01*
X151947619Y-67794143D01*
X152090476Y-67698905D01*
X152280952Y-67651286D01*
X152661905Y-67651286D01*
X152757143Y-67698905D01*
X152804762Y-67746524D01*
X152852381Y-67841762D01*
X152852381Y-68032239D01*
X152804762Y-68127477D01*
X152757143Y-68175096D01*
X152661905Y-68222715D01*
X152423810Y-68222715D01*
X152328571Y-68175096D01*
X152280952Y-68127477D01*
X152233333Y-68032239D01*
X152233333Y-67841762D01*
X152280952Y-67746524D01*
X152328571Y-67698905D01*
X152423810Y-67651286D01*
X152852381Y-71080334D02*
X152376190Y-70747000D01*
X152852381Y-70508905D02*
X151852381Y-70508905D01*
X151852381Y-70889858D01*
X151900000Y-70985096D01*
X151947619Y-71032715D01*
X152042857Y-71080334D01*
X152185714Y-71080334D01*
X152280952Y-71032715D01*
X152328571Y-70985096D01*
X152376190Y-70889858D01*
X152376190Y-70508905D01*
X151852381Y-71413667D02*
X151852381Y-72080334D01*
X152852381Y-71651762D01*
X147169143Y-71715334D02*
X147216762Y-71667715D01*
X147264381Y-71524858D01*
X147264381Y-71429620D01*
X147216762Y-71286762D01*
X147121524Y-71191524D01*
X147026286Y-71143905D01*
X146835810Y-71096286D01*
X146692952Y-71096286D01*
X146502476Y-71143905D01*
X146407238Y-71191524D01*
X146312000Y-71286762D01*
X146264381Y-71429620D01*
X146264381Y-71524858D01*
X146312000Y-71667715D01*
X146359619Y-71715334D01*
X146264381Y-72048667D02*
X146264381Y-72667715D01*
X146645333Y-72334381D01*
X146645333Y-72477239D01*
X146692952Y-72572477D01*
X146740571Y-72620096D01*
X146835810Y-72667715D01*
X147073905Y-72667715D01*
X147169143Y-72620096D01*
X147216762Y-72572477D01*
X147264381Y-72477239D01*
X147264381Y-72191524D01*
X147216762Y-72096286D01*
X147169143Y-72048667D01*
X142335238Y-101258619D02*
X142430476Y-101211000D01*
X142525714Y-101115762D01*
X142668571Y-100972905D01*
X142763810Y-100925286D01*
X142859048Y-100925286D01*
X142811429Y-101163381D02*
X142906667Y-101115762D01*
X143001905Y-101020524D01*
X143049524Y-100830048D01*
X143049524Y-100496714D01*
X143001905Y-100306238D01*
X142906667Y-100211000D01*
X142811429Y-100163381D01*
X142620952Y-100163381D01*
X142525714Y-100211000D01*
X142430476Y-100306238D01*
X142382857Y-100496714D01*
X142382857Y-100830048D01*
X142430476Y-101020524D01*
X142525714Y-101115762D01*
X142620952Y-101163381D01*
X142811429Y-101163381D01*
X142001905Y-100258619D02*
X141954286Y-100211000D01*
X141859048Y-100163381D01*
X141620952Y-100163381D01*
X141525714Y-100211000D01*
X141478095Y-100258619D01*
X141430476Y-100353857D01*
X141430476Y-100449095D01*
X141478095Y-100591952D01*
X142049524Y-101163381D01*
X141430476Y-101163381D01*
X143089381Y-75438095D02*
X143898905Y-75438095D01*
X143994143Y-75485714D01*
X144041762Y-75533333D01*
X144089381Y-75628571D01*
X144089381Y-75819048D01*
X144041762Y-75914286D01*
X143994143Y-75961905D01*
X143898905Y-76009524D01*
X143089381Y-76009524D01*
X143089381Y-76390476D02*
X143089381Y-77009524D01*
X143470333Y-76676190D01*
X143470333Y-76819048D01*
X143517952Y-76914286D01*
X143565571Y-76961905D01*
X143660810Y-77009524D01*
X143898905Y-77009524D01*
X143994143Y-76961905D01*
X144041762Y-76914286D01*
X144089381Y-76819048D01*
X144089381Y-76533333D01*
X144041762Y-76438095D01*
X143994143Y-76390476D01*
X149455095Y-65984381D02*
X149455095Y-64984381D01*
X149074142Y-64984381D01*
X148978904Y-65032000D01*
X148931285Y-65079619D01*
X148883666Y-65174857D01*
X148883666Y-65317714D01*
X148931285Y-65412952D01*
X148978904Y-65460571D01*
X149074142Y-65508190D01*
X149455095Y-65508190D01*
X148550333Y-64984381D02*
X147931285Y-64984381D01*
X148264619Y-65365333D01*
X148121761Y-65365333D01*
X148026523Y-65412952D01*
X147978904Y-65460571D01*
X147931285Y-65555810D01*
X147931285Y-65793905D01*
X147978904Y-65889143D01*
X148026523Y-65936762D01*
X148121761Y-65984381D01*
X148407476Y-65984381D01*
X148502714Y-65936762D01*
X148550333Y-65889143D01*
X149907524Y-75779381D02*
X149240857Y-76779381D01*
X149240857Y-75779381D02*
X149907524Y-76779381D01*
X148336095Y-76779381D02*
X148907524Y-76779381D01*
X148621810Y-76779381D02*
X148621810Y-75779381D01*
X148717048Y-75922238D01*
X148812286Y-76017476D01*
X148907524Y-76065095D01*
X151201381Y-92098905D02*
X150201381Y-92098905D01*
X150201381Y-92337000D01*
X150249000Y-92479858D01*
X150344238Y-92575096D01*
X150439476Y-92622715D01*
X150629952Y-92670334D01*
X150772810Y-92670334D01*
X150963286Y-92622715D01*
X151058524Y-92575096D01*
X151153762Y-92479858D01*
X151201381Y-92337000D01*
X151201381Y-92098905D01*
X150296619Y-93051286D02*
X150249000Y-93098905D01*
X150201381Y-93194143D01*
X150201381Y-93432239D01*
X150249000Y-93527477D01*
X150296619Y-93575096D01*
X150391857Y-93622715D01*
X150487095Y-93622715D01*
X150629952Y-93575096D01*
X151201381Y-93003667D01*
X151201381Y-93622715D01*
X152979381Y-94956334D02*
X152503190Y-94623000D01*
X152979381Y-94384905D02*
X151979381Y-94384905D01*
X151979381Y-94765858D01*
X152027000Y-94861096D01*
X152074619Y-94908715D01*
X152169857Y-94956334D01*
X152312714Y-94956334D01*
X152407952Y-94908715D01*
X152455571Y-94861096D01*
X152503190Y-94765858D01*
X152503190Y-94384905D01*
X152979381Y-95432524D02*
X152979381Y-95623000D01*
X152931762Y-95718239D01*
X152884143Y-95765858D01*
X152741286Y-95861096D01*
X152550810Y-95908715D01*
X152169857Y-95908715D01*
X152074619Y-95861096D01*
X152027000Y-95813477D01*
X151979381Y-95718239D01*
X151979381Y-95527762D01*
X152027000Y-95432524D01*
X152074619Y-95384905D01*
X152169857Y-95337286D01*
X152407952Y-95337286D01*
X152503190Y-95384905D01*
X152550810Y-95432524D01*
X152598429Y-95527762D01*
X152598429Y-95718239D01*
X152550810Y-95813477D01*
X152503190Y-95861096D01*
X152407952Y-95908715D01*
D13*
X150989536Y-84650168D02*
X151418450Y-85079082D01*
X151443680Y-85154773D01*
X151443680Y-85205234D01*
X151418450Y-85280925D01*
X151317529Y-85381845D01*
X151241839Y-85407075D01*
X151191378Y-85407075D01*
X151115687Y-85381845D01*
X150686773Y-84952931D01*
X150510161Y-85230464D02*
X150459701Y-85230464D01*
X150384010Y-85255694D01*
X150257859Y-85381845D01*
X150232629Y-85457536D01*
X150232629Y-85507996D01*
X150257859Y-85583687D01*
X150308320Y-85634148D01*
X150409241Y-85684608D01*
X151014766Y-85684608D01*
X150686773Y-86012601D01*
M02*
