<?xml version="1.0" standalone="no"?>
 <!DOCTYPE svg PUBLIC "-//W3C//DTD SVG 1.1//EN" 
 "http://www.w3.org/Graphics/SVG/1.1/DTD/svg11.dtd"> 
<svg xmlns="http://www.w3.org/2000/svg" version="1.1" 
    width="29.7002cm" height="21.0007cm" viewBox="0 0 116930 82680 ">
<title>SVG Picture created as STM32 Mini-drl_map.svg date 2015/11/05 11:18:40 </title>
  <desc>Picture generated by PCBNEW </desc>
<g style="fill:#000000; fill-opacity:1;stroke:#000000; stroke-opacity:1;
stroke-linecap:round; stroke-linejoin:round; "
 transform="translate(0 0) scale(1 1)">
</g>
<g style="fill:#000000; fill-opacity:0.0; 
stroke:#000000; stroke-width:-0.000393701; stroke-opacity:1; 
stroke-linecap:round; stroke-linejoin:round;">
</g>
<g style="fill:#000000; fill-opacity:0.0; 
stroke:#000000; stroke-width:39.3701; stroke-opacity:1; 
stroke-linecap:round; stroke-linejoin:round;">
<path d="M54400 43650
L54450 43650
" />
<path d="M54400 23450
L54400 43650
" />
<path d="M61600 23450
L54400 23450
" />
<path d="M61600 43550
L61600 23450
" />
<path d="M61600 43650
L61600 43550
" />
<path d="M54450 43650
L61600 43650
" />
</g>
<g style="fill:#000000; fill-opacity:0.0; 
stroke:#000000; stroke-width:78.7402; stroke-opacity:1; 
stroke-linecap:round; stroke-linejoin:round;">
<path d="M55635 39885
L55765 40015
" />
<path d="M55765 39885
L55635 40015
" />
<path d="M55935 40085
L56065 40215
" />
<path d="M56065 40085
L55935 40215
" />
<path d="M56185 36335
L56315 36465
" />
<path d="M56315 36335
L56185 36465
" />
<path d="M56235 39785
L56365 39915
" />
<path d="M56365 39785
L56235 39915
" />
<path d="M56435 36085
L56565 36215
" />
<path d="M56565 36085
L56435 36215
" />
<path d="M56685 36335
L56815 36465
" />
<path d="M56815 36335
L56685 36465
" />
<path d="M56885 33135
L57015 33265
" />
<path d="M57015 33135
L56885 33265
" />
<path d="M56935 36085
L57065 36215
" />
<path d="M57065 36085
L56935 36215
" />
<path d="M57275 27845
L57405 27975
" />
<path d="M57405 27845
L57275 27975
" />
<path d="M57535 36785
L57665 36915
" />
<path d="M57665 36785
L57535 36915
" />
<path d="M57585 37585
L57715 37715
" />
<path d="M57715 37585
L57585 37715
" />
<path d="M57635 33625
L57765 33755
" />
<path d="M57765 33625
L57635 33755
" />
<path d="M57885 36785
L58015 36915
" />
<path d="M58015 36785
L57885 36915
" />
<path d="M57935 37585
L58065 37715
" />
<path d="M58065 37585
L57935 37715
" />
<path d="M57985 35585
L58115 35715
" />
<path d="M58115 35585
L57985 35715
" />
<path d="M58735 32785
L58865 32915
" />
<path d="M58865 32785
L58735 32915
" />
<path d="M58875 33745
L59005 33875
" />
<path d="M59005 33745
L58875 33875
" />
<path d="M59185 30985
L59315 31115
" />
<path d="M59315 30985
L59185 31115
" />
<path d="M59185 36285
L59315 36415
" />
<path d="M59315 36285
L59185 36415
" />
<path d="M59285 28385
L59415 28515
" />
<path d="M59415 28385
L59285 28515
" />
<path d="M59435 36535
L59565 36665
" />
<path d="M59565 36535
L59435 36665
" />
<path d="M59535 35325
L59665 35455
" />
<path d="M59665 35325
L59535 35455
" />
<path d="M59785 31485
L59915 31615
" />
<path d="M59915 31485
L59785 31615
" />
<path d="M59895 26945
L60025 27075
" />
<path d="M60025 26945
L59895 27075
" />
<path d="M59935 37635
L60065 37765
" />
<path d="M60065 37635
L59935 37765
" />
<path d="M59985 40035
L60115 40165
" />
<path d="M60115 40035
L59985 40165
" />
<circle cx="55850" cy="26100" r="80" /> 
<circle cx="56050" cy="42250" r="80" /> 
<circle cx="56550" cy="42050" r="80" /> 
<circle cx="56900" cy="26050" r="80" /> 
<circle cx="56900" cy="30800" r="80" /> 
<circle cx="56950" cy="34000" r="80" /> 
<circle cx="57050" cy="39150" r="80" /> 
<circle cx="57300" cy="36600" r="80" /> 
<circle cx="57550" cy="30000" r="80" /> 
<circle cx="57700" cy="31000" r="80" /> 
<circle cx="57750" cy="28250" r="80" /> 
<circle cx="57800" cy="32700" r="80" /> 
<circle cx="57850" cy="28700" r="80" /> 
<circle cx="58100" cy="33400" r="80" /> 
<circle cx="58150" cy="41700" r="80" /> 
<circle cx="58200" cy="34800" r="80" /> 
<circle cx="58200" cy="36300" r="80" /> 
<circle cx="58200" cy="39600" r="80" /> 
<circle cx="58300" cy="25810" r="80" /> 
<circle cx="58300" cy="31050" r="80" /> 
<circle cx="58600" cy="36350" r="80" /> 
<circle cx="59000" cy="29850" r="80" /> 
<circle cx="59000" cy="33150" r="80" /> 
<circle cx="59250" cy="39500" r="80" /> 
<circle cx="59360" cy="27310" r="80" /> 
<circle cx="59380" cy="33550" r="80" /> 
<circle cx="59800" cy="32300" r="80" /> 
<circle cx="59850" cy="31100" r="80" /> 
<circle cx="60100" cy="32000" r="80" /> 
<path d="M55000 23853
L55000 24247
" />
<path d="M54803 24050
L55197 24050
" />
<path d="M55000 24853
L55000 25247
" />
<path d="M54803 25050
L55197 25050
" />
<path d="M55000 25853
L55000 26247
" />
<path d="M54803 26050
L55197 26050
" />
<path d="M55000 26853
L55000 27247
" />
<path d="M54803 27050
L55197 27050
" />
<path d="M55000 27853
L55000 28247
" />
<path d="M54803 28050
L55197 28050
" />
<path d="M55000 28853
L55000 29247
" />
<path d="M54803 29050
L55197 29050
" />
<path d="M55000 29853
L55000 30247
" />
<path d="M54803 30050
L55197 30050
" />
<path d="M55000 30853
L55000 31247
" />
<path d="M54803 31050
L55197 31050
" />
<path d="M55000 31853
L55000 32247
" />
<path d="M54803 32050
L55197 32050
" />
<path d="M55000 32853
L55000 33247
" />
<path d="M54803 33050
L55197 33050
" />
<path d="M55000 33853
L55000 34247
" />
<path d="M54803 34050
L55197 34050
" />
<path d="M55000 34853
L55000 35247
" />
<path d="M54803 35050
L55197 35050
" />
<path d="M55000 35853
L55000 36247
" />
<path d="M54803 36050
L55197 36050
" />
<path d="M55000 36853
L55000 37247
" />
<path d="M54803 37050
L55197 37050
" />
<path d="M55000 37853
L55000 38247
" />
<path d="M54803 38050
L55197 38050
" />
<path d="M55000 38853
L55000 39247
" />
<path d="M54803 39050
L55197 39050
" />
<path d="M55000 39853
L55000 40247
" />
<path d="M54803 40050
L55197 40050
" />
<path d="M55000 40853
L55000 41247
" />
<path d="M54803 41050
L55197 41050
" />
<path d="M55000 41853
L55000 42247
" />
<path d="M54803 42050
L55197 42050
" />
<path d="M55000 42853
L55000 43247
" />
<path d="M54803 43050
L55197 43050
" />
<path d="M57000 23853
L57000 24247
" />
<path d="M56803 24050
L57197 24050
" />
<path d="M57000 24853
L57000 25247
" />
<path d="M56803 25050
L57197 25050
" />
<path d="M58000 23853
L58000 24247
" />
<path d="M57803 24050
L58197 24050
" />
<path d="M58000 24853
L58000 25247
" />
<path d="M57803 25050
L58197 25050
" />
<path d="M59000 23853
L59000 24247
" />
<path d="M58803 24050
L59197 24050
" />
<path d="M59000 24853
L59000 25247
" />
<path d="M58803 25050
L59197 25050
" />
<path d="M61000 23853
L61000 24247
" />
<path d="M60803 24050
L61197 24050
" />
<path d="M61000 24853
L61000 25247
" />
<path d="M60803 25050
L61197 25050
" />
<path d="M61000 25853
L61000 26247
" />
<path d="M60803 26050
L61197 26050
" />
<path d="M61000 26853
L61000 27247
" />
<path d="M60803 27050
L61197 27050
" />
<path d="M61000 27853
L61000 28247
" />
<path d="M60803 28050
L61197 28050
" />
<path d="M61000 28853
L61000 29247
" />
<path d="M60803 29050
L61197 29050
" />
<path d="M61000 29853
L61000 30247
" />
<path d="M60803 30050
L61197 30050
" />
<path d="M61000 30853
L61000 31247
" />
<path d="M60803 31050
L61197 31050
" />
<path d="M61000 31853
L61000 32247
" />
<path d="M60803 32050
L61197 32050
" />
<path d="M61000 32853
L61000 33247
" />
<path d="M60803 33050
L61197 33050
" />
<path d="M61000 33853
L61000 34247
" />
<path d="M60803 34050
L61197 34050
" />
<path d="M61000 34853
L61000 35247
" />
<path d="M60803 35050
L61197 35050
" />
<path d="M61000 35853
L61000 36247
" />
<path d="M60803 36050
L61197 36050
" />
<path d="M61000 36853
L61000 37247
" />
<path d="M60803 37050
L61197 37050
" />
<path d="M61000 37853
L61000 38247
" />
<path d="M60803 38050
L61197 38050
" />
<path d="M61000 38853
L61000 39247
" />
<path d="M60803 39050
L61197 39050
" />
<path d="M61000 39853
L61000 40247
" />
<path d="M60803 40050
L61197 40050
" />
<path d="M61000 40853
L61000 41247
" />
<path d="M60803 41050
L61197 41050
" />
<path d="M61000 41853
L61000 42247
" />
<path d="M60803 42050
L61197 42050
" />
<path d="M61000 42853
L61000 43247
" />
<path d="M60803 43050
L61197 43050
" />
</g>
<g style="fill:#000000; fill-opacity:0.0; 
stroke:#000000; stroke-width:118.11; stroke-opacity:1; 
stroke-linecap:round; stroke-linejoin:round;">
<path d="M55448 45503
L55448 44322
L55730 44322
L55898 44378
L56011 44490
L56067 44603
L56123 44828
L56123 44997
L56067 45221
L56011 45334
L55898 45446
L55730 45503
L55448 45503
" />
<path d="M56630 45503
L56630 44715
" />
<path d="M56630 44940
L56686 44828
L56742 44772
L56855 44715
L56967 44715
" />
<path d="M57361 45503
L57361 44715
" />
<path d="M57361 44322
L57304 44378
L57361 44434
L57417 44378
L57361 44322
L57361 44434
" />
<path d="M58092 45503
L57979 45446
L57923 45334
L57923 44322
" />
<path d="M58711 45503
L58598 45446
L58542 45334
L58542 44322
" />
<path d="M60060 45503
L60060 44322
L60454 45165
L60848 44322
L60848 45503
" />
<path d="M61916 45503
L61916 44884
L61860 44772
L61748 44715
L61523 44715
L61410 44772
" />
<path d="M61916 45446
L61804 45503
L61523 45503
L61410 45446
L61354 45334
L61354 45221
L61410 45109
L61523 45053
L61804 45053
L61916 44997
" />
<path d="M62479 44715
L62479 45896
" />
<path d="M62479 44772
L62591 44715
L62816 44715
L62929 44772
L62985 44828
L63041 44940
L63041 45278
L62985 45390
L62929 45446
L62816 45503
L62591 45503
L62479 45446
" />
<path d="M63547 45390
L63604 45446
L63547 45503
L63491 45446
L63547 45390
L63547 45503
" />
<path d="M63547 44772
L63604 44828
L63547 44884
L63491 44828
L63547 44772
L63547 44884
" />
<path d="M54250 47384
L54380 47514
" />
<path d="M54380 47384
L54250 47514
" />
<path d="M55673 46802
L55786 46802
L55898 46858
L55955 46914
L56011 47027
L56067 47252
L56067 47533
L56011 47758
L55955 47871
L55898 47927
L55786 47983
L55673 47983
L55561 47927
L55505 47871
L55448 47758
L55392 47533
L55392 47252
L55448 47027
L55505 46914
L55561 46858
L55673 46802
" />
<path d="M56573 47871
L56630 47927
L56573 47983
L56517 47927
L56573 47871
L56573 47983
" />
<path d="M57023 46802
L57754 46802
L57361 47252
L57529 47252
L57642 47308
L57698 47364
L57754 47477
L57754 47758
L57698 47871
L57642 47927
L57529 47983
L57192 47983
L57079 47927
L57023 47871
" />
<path d="M58148 46802
L58879 46802
L58486 47252
L58654 47252
L58767 47308
L58823 47364
L58879 47477
L58879 47758
L58823 47871
L58767 47927
L58654 47983
L58317 47983
L58204 47927
L58148 47871
" />
<path d="M59385 47983
L59385 47196
" />
<path d="M59385 47308
L59442 47252
L59554 47196
L59723 47196
L59835 47252
L59892 47364
L59892 47983
" />
<path d="M59892 47364
L59948 47252
L60060 47196
L60229 47196
L60342 47252
L60398 47364
L60398 47983
" />
<path d="M60960 47983
L60960 47196
" />
<path d="M60960 47308
L61016 47252
L61129 47196
L61298 47196
L61410 47252
L61466 47364
L61466 47983
" />
<path d="M61466 47364
L61523 47252
L61635 47196
L61804 47196
L61916 47252
L61973 47364
L61973 47983
" />
<path d="M64279 46746
L63266 48264
" />
<path d="M65797 46802
L65910 46802
L66022 46858
L66078 46914
L66135 47027
L66191 47252
L66191 47533
L66135 47758
L66078 47871
L66022 47927
L65910 47983
L65797 47983
L65685 47927
L65628 47871
L65572 47758
L65516 47533
L65516 47252
L65572 47027
L65628 46914
L65685 46858
L65797 46802
" />
<path d="M66697 47871
L66753 47927
L66697 47983
L66641 47927
L66697 47871
L66697 47983
" />
<path d="M67484 46802
L67597 46802
L67709 46858
L67766 46914
L67822 47027
L67878 47252
L67878 47533
L67822 47758
L67766 47871
L67709 47927
L67597 47983
L67484 47983
L67372 47927
L67316 47871
L67259 47758
L67203 47533
L67203 47252
L67259 47027
L67316 46914
L67372 46858
L67484 46802
" />
<path d="M69003 47983
L68328 47983
" />
<path d="M68666 47983
L68666 46802
L68553 46971
L68441 47083
L68328 47139
" />
<path d="M69397 46802
L70128 46802
L69734 47252
L69903 47252
L70015 47308
L70072 47364
L70128 47477
L70128 47758
L70072 47871
L70015 47927
L69903 47983
L69565 47983
L69453 47927
L69397 47871
" />
<path d="M70578 46802
L70578 47027
" />
<path d="M71028 46802
L71028 47027
" />
<path d="M72771 48433
L72715 48377
L72603 48208
L72546 48096
L72490 47927
L72434 47646
L72434 47421
L72490 47139
L72546 46971
L72603 46858
L72715 46689
L72771 46633
" />
<path d="M73165 46914
L73221 46858
L73334 46802
L73615 46802
L73727 46858
L73784 46914
L73840 47027
L73840 47139
L73784 47308
L73109 47983
L73840 47983
" />
<path d="M74852 46802
L74627 46802
L74515 46858
L74459 46914
L74346 47083
L74290 47308
L74290 47758
L74346 47871
L74402 47927
L74515 47983
L74740 47983
L74852 47927
L74908 47871
L74965 47758
L74965 47477
L74908 47364
L74852 47308
L74740 47252
L74515 47252
L74402 47308
L74346 47364
L74290 47477
" />
<path d="M76371 47983
L76371 46802
" />
<path d="M76877 47983
L76877 47364
L76821 47252
L76708 47196
L76540 47196
L76427 47252
L76371 47308
" />
<path d="M77608 47983
L77496 47927
L77439 47871
L77383 47758
L77383 47421
L77439 47308
L77496 47252
L77608 47196
L77777 47196
L77889 47252
L77946 47308
L78002 47421
L78002 47758
L77946 47871
L77889 47927
L77777 47983
L77608 47983
" />
<path d="M78677 47983
L78564 47927
L78508 47814
L78508 46802
" />
<path d="M79577 47927
L79464 47983
L79239 47983
L79127 47927
L79070 47814
L79070 47364
L79127 47252
L79239 47196
L79464 47196
L79577 47252
L79633 47364
L79633 47477
L79070 47589
" />
<path d="M80083 47927
L80195 47983
L80420 47983
L80533 47927
L80589 47814
L80589 47758
L80533 47646
L80420 47589
L80252 47589
L80139 47533
L80083 47421
L80083 47364
L80139 47252
L80252 47196
L80420 47196
L80533 47252
" />
<path d="M80983 48433
L81039 48377
L81151 48208
L81208 48096
L81264 47927
L81320 47646
L81320 47421
L81264 47139
L81208 46971
L81151 46858
L81039 46689
L80983 46633
" />
<circle cx="54300.3" cy="49008.3" r="80" /> 
<path d="M55673 48361
L55786 48361
L55898 48417
L55955 48473
L56011 48586
L56067 48811
L56067 49092
L56011 49317
L55955 49430
L55898 49486
L55786 49542
L55673 49542
L55561 49486
L55505 49430
L55448 49317
L55392 49092
L55392 48811
L55448 48586
L55505 48473
L55561 48417
L55673 48361
" />
<path d="M56573 49430
L56630 49486
L56573 49542
L56517 49486
L56573 49430
L56573 49542
" />
<path d="M57642 48755
L57642 49542
" />
<path d="M57361 48305
L57079 49148
L57811 49148
" />
<path d="M58879 49542
L58204 49542
" />
<path d="M58542 49542
L58542 48361
L58429 48530
L58317 48642
L58204 48698
" />
<path d="M59385 49542
L59385 48755
" />
<path d="M59385 48867
L59442 48811
L59554 48755
L59723 48755
L59835 48811
L59892 48923
L59892 49542
" />
<path d="M59892 48923
L59948 48811
L60060 48755
L60229 48755
L60342 48811
L60398 48923
L60398 49542
" />
<path d="M60960 49542
L60960 48755
" />
<path d="M60960 48867
L61016 48811
L61129 48755
L61298 48755
L61410 48811
L61466 48923
L61466 49542
" />
<path d="M61466 48923
L61523 48811
L61635 48755
L61804 48755
L61916 48811
L61973 48923
L61973 49542
" />
<path d="M64279 48305
L63266 49823
" />
<path d="M65797 48361
L65910 48361
L66022 48417
L66078 48473
L66135 48586
L66191 48811
L66191 49092
L66135 49317
L66078 49430
L66022 49486
L65910 49542
L65797 49542
L65685 49486
L65628 49430
L65572 49317
L65516 49092
L65516 48811
L65572 48586
L65628 48473
L65685 48417
L65797 48361
" />
<path d="M66697 49430
L66753 49486
L66697 49542
L66641 49486
L66697 49430
L66697 49542
" />
<path d="M67484 48361
L67597 48361
L67709 48417
L67766 48473
L67822 48586
L67878 48811
L67878 49092
L67822 49317
L67766 49430
L67709 49486
L67597 49542
L67484 49542
L67372 49486
L67316 49430
L67259 49317
L67203 49092
L67203 48811
L67259 48586
L67316 48473
L67372 48417
L67484 48361
" />
<path d="M69003 49542
L68328 49542
" />
<path d="M68666 49542
L68666 48361
L68553 48530
L68441 48642
L68328 48698
" />
<path d="M70015 48361
L69790 48361
L69678 48417
L69622 48473
L69509 48642
L69453 48867
L69453 49317
L69509 49430
L69565 49486
L69678 49542
L69903 49542
L70015 49486
L70072 49430
L70128 49317
L70128 49036
L70072 48923
L70015 48867
L69903 48811
L69678 48811
L69565 48867
L69509 48923
L69453 49036
" />
<path d="M70578 48361
L70578 48586
" />
<path d="M71028 48361
L71028 48586
" />
<path d="M72771 49992
L72715 49936
L72603 49767
L72546 49655
L72490 49486
L72434 49205
L72434 48980
L72490 48698
L72546 48530
L72603 48417
L72715 48248
L72771 48192
" />
<path d="M73165 48473
L73221 48417
L73334 48361
L73615 48361
L73727 48417
L73784 48473
L73840 48586
L73840 48698
L73784 48867
L73109 49542
L73840 49542
" />
<path d="M74402 49542
L74627 49542
L74740 49486
L74796 49430
L74908 49261
L74965 49036
L74965 48586
L74908 48473
L74852 48417
L74740 48361
L74515 48361
L74402 48417
L74346 48473
L74290 48586
L74290 48867
L74346 48980
L74402 49036
L74515 49092
L74740 49092
L74852 49036
L74908 48980
L74965 48867
" />
<path d="M76371 49542
L76371 48361
" />
<path d="M76877 49542
L76877 48923
L76821 48811
L76708 48755
L76540 48755
L76427 48811
L76371 48867
" />
<path d="M77608 49542
L77496 49486
L77439 49430
L77383 49317
L77383 48980
L77439 48867
L77496 48811
L77608 48755
L77777 48755
L77889 48811
L77946 48867
L78002 48980
L78002 49317
L77946 49430
L77889 49486
L77777 49542
L77608 49542
" />
<path d="M78677 49542
L78564 49486
L78508 49373
L78508 48361
" />
<path d="M79577 49486
L79464 49542
L79239 49542
L79127 49486
L79070 49373
L79070 48923
L79127 48811
L79239 48755
L79464 48755
L79577 48811
L79633 48923
L79633 49036
L79070 49148
" />
<path d="M80083 49486
L80195 49542
L80420 49542
L80533 49486
L80589 49373
L80589 49317
L80533 49205
L80420 49148
L80252 49148
L80139 49092
L80083 48980
L80083 48923
L80139 48811
L80252 48755
L80420 48755
L80533 48811
" />
<path d="M80983 49992
L81039 49936
L81151 49767
L81208 49655
L81264 49486
L81320 49205
L81320 48980
L81264 48698
L81208 48530
L81151 48417
L81039 48248
L80983 48192
" />
<path d="M54183 50370
L54183 50764
" />
<path d="M53986 50567
L54380 50567
" />
<path d="M56067 51101
L55392 51101
" />
<path d="M55730 51101
L55730 49920
L55617 50089
L55505 50201
L55392 50257
" />
<path d="M56573 50989
L56630 51045
L56573 51101
L56517 51045
L56573 50989
L56573 51101
" />
<path d="M57361 49920
L57473 49920
L57586 49976
L57642 50033
L57698 50145
L57754 50370
L57754 50651
L57698 50876
L57642 50989
L57586 51045
L57473 51101
L57361 51101
L57248 51045
L57192 50989
L57136 50876
L57079 50651
L57079 50370
L57136 50145
L57192 50033
L57248 49976
L57361 49920
" />
<path d="M58486 49920
L58598 49920
L58711 49976
L58767 50033
L58823 50145
L58879 50370
L58879 50651
L58823 50876
L58767 50989
L58711 51045
L58598 51101
L58486 51101
L58373 51045
L58317 50989
L58261 50876
L58204 50651
L58204 50370
L58261 50145
L58317 50033
L58373 49976
L58486 49920
" />
<path d="M59385 51101
L59385 50314
" />
<path d="M59385 50426
L59442 50370
L59554 50314
L59723 50314
L59835 50370
L59892 50482
L59892 51101
" />
<path d="M59892 50482
L59948 50370
L60060 50314
L60229 50314
L60342 50370
L60398 50482
L60398 51101
" />
<path d="M60960 51101
L60960 50314
" />
<path d="M60960 50426
L61016 50370
L61129 50314
L61298 50314
L61410 50370
L61466 50482
L61466 51101
" />
<path d="M61466 50482
L61523 50370
L61635 50314
L61804 50314
L61916 50370
L61973 50482
L61973 51101
" />
<path d="M64279 49864
L63266 51382
" />
<path d="M65797 49920
L65910 49920
L66022 49976
L66078 50033
L66135 50145
L66191 50370
L66191 50651
L66135 50876
L66078 50989
L66022 51045
L65910 51101
L65797 51101
L65685 51045
L65628 50989
L65572 50876
L65516 50651
L65516 50370
L65572 50145
L65628 50033
L65685 49976
L65797 49920
" />
<path d="M66697 50989
L66753 51045
L66697 51101
L66641 51045
L66697 50989
L66697 51101
" />
<path d="M67484 49920
L67597 49920
L67709 49976
L67766 50033
L67822 50145
L67878 50370
L67878 50651
L67822 50876
L67766 50989
L67709 51045
L67597 51101
L67484 51101
L67372 51045
L67316 50989
L67259 50876
L67203 50651
L67203 50370
L67259 50145
L67316 50033
L67372 49976
L67484 49920
" />
<path d="M68272 49920
L69003 49920
L68609 50370
L68778 50370
L68891 50426
L68947 50482
L69003 50595
L69003 50876
L68947 50989
L68891 51045
L68778 51101
L68441 51101
L68328 51045
L68272 50989
" />
<path d="M69565 51101
L69790 51101
L69903 51045
L69959 50989
L70072 50820
L70128 50595
L70128 50145
L70072 50033
L70015 49976
L69903 49920
L69678 49920
L69565 49976
L69509 50033
L69453 50145
L69453 50426
L69509 50539
L69565 50595
L69678 50651
L69903 50651
L70015 50595
L70072 50539
L70128 50426
" />
<path d="M70578 49920
L70578 50145
" />
<path d="M71028 49920
L71028 50145
" />
<path d="M72771 51551
L72715 51495
L72603 51326
L72546 51214
L72490 51045
L72434 50764
L72434 50539
L72490 50257
L72546 50089
L72603 49976
L72715 49808
L72771 49751
" />
<path d="M73727 50314
L73727 51101
" />
<path d="M73446 49864
L73165 50707
L73896 50707
" />
<path d="M74852 49920
L74627 49920
L74515 49976
L74459 50033
L74346 50201
L74290 50426
L74290 50876
L74346 50989
L74402 51045
L74515 51101
L74740 51101
L74852 51045
L74908 50989
L74965 50876
L74965 50595
L74908 50482
L74852 50426
L74740 50370
L74515 50370
L74402 50426
L74346 50482
L74290 50595
" />
<path d="M76371 51101
L76371 49920
" />
<path d="M76877 51101
L76877 50482
L76821 50370
L76708 50314
L76540 50314
L76427 50370
L76371 50426
" />
<path d="M77608 51101
L77496 51045
L77439 50989
L77383 50876
L77383 50539
L77439 50426
L77496 50370
L77608 50314
L77777 50314
L77889 50370
L77946 50426
L78002 50539
L78002 50876
L77946 50989
L77889 51045
L77777 51101
L77608 51101
" />
<path d="M78677 51101
L78564 51045
L78508 50932
L78508 49920
" />
<path d="M79577 51045
L79464 51101
L79239 51101
L79127 51045
L79070 50932
L79070 50482
L79127 50370
L79239 50314
L79464 50314
L79577 50370
L79633 50482
L79633 50595
L79070 50707
" />
<path d="M80083 51045
L80195 51101
L80420 51101
L80533 51045
L80589 50932
L80589 50876
L80533 50764
L80420 50707
L80252 50707
L80139 50651
L80083 50539
L80083 50482
L80139 50370
L80252 50314
L80420 50314
L80533 50370
" />
<path d="M80983 51551
L81039 51495
L81151 51326
L81208 51214
L81264 51045
L81320 50764
L81320 50539
L81264 50257
L81208 50089
L81151 49976
L81039 49808
L80983 49751
" />
</g> 
</svg>
