G04 CAM350 V9.5.1 (Build 211) Date:  Tue May 10 22:39:24 2016 *
G04 Database: (Untitled) *
G04 Layer 4: STM32Mini-B_Sil *
%FSLAX45Y45*%
%MOMM*%
%SFA1.000B1.000*%

%MIA0B0*%
%IPPOS*%
%ADD25C,0.20320*%
%ADD28C,0.30480*%
%ADD29C,0.15000*%
%ADD72C,0.14986*%
%LNSTM32Mini-B_Sil*%
%LPD*%
G54D29*
X14621200Y-6721400D02*
G01Y-6791400D01*
X14741200D02*
G01Y-6721400D01*
X14919000Y-7172400D02*
G01Y-7102400D01*
X14799000D02*
G01Y-7172400D01*
X14555600Y-9782500D02*
G01Y-9902500D01*
X14730600D02*
G01Y-9782500D01*
X15021184Y-9777476D02*
G01X15026010D01*
X15301082Y-9847580D02*
G01Y-9777476D01*
Y-9777476D02*
G01X15276190D01*
X15021184D02*
G01X15001118D01*
Y-9777476D02*
G01Y-9847580D01*
X14351000Y-10363200D02*
G01Y-10058400D01*
Y-10058400D02*
G01X15062200D01*
Y-10058400D02*
G01Y-10363200D01*
X14503400Y-10972800D02*
G01X14909800D01*
G54D28*
X13843000Y-5981700D02*
G01Y-11061700D01*
X14097000D02*
G01Y-5981700D01*
Y-5981700D02*
G01X13843000D01*
X14097000Y-10807700D02*
G01X13843000D01*
Y-11061700D02*
G01X14097000D01*
X15367200Y-5981700D02*
G01Y-11061700D01*
X15621200D02*
G01Y-5981700D01*
Y-5981700D02*
G01X15367200D01*
X15621200Y-10807700D02*
G01X15367200D01*
Y-11061700D02*
G01X15621200D01*
G54D29*
X14913800Y-9562300D02*
G01Y-9462300D01*
X14778800D02*
G01Y-9562300D01*
X14596300D02*
G01Y-9462300D01*
X14461300D02*
G01Y-9562300D01*
X14393100D02*
G01Y-9462300D01*
X14258100D02*
G01Y-9562300D01*
X14410500Y-6757200D02*
G01Y-6857200D01*
X14545500D02*
G01Y-6757200D01*
X14181900D02*
G01Y-6857200D01*
X14316900D02*
G01Y-6757200D01*
X15142400Y-6793700D02*
G01Y-6693700D01*
X15007400D02*
G01Y-6793700D01*
X15142400Y-7174700D02*
G01Y-7074700D01*
X15007400D02*
G01Y-7174700D01*
X14811700Y-6721400D02*
G01Y-6791400D01*
X14931700D02*
G01Y-6721400D01*
X14455516Y-9907524D02*
G01X14450690D01*
X14175618Y-9837420D02*
G01Y-9907524D01*
Y-9907524D02*
G01X14200510D01*
X14455516D02*
G01X14475582D01*
Y-9907524D02*
G01Y-9837420D01*
X14939200Y-9917900D02*
G01Y-9817900D01*
X14804200D02*
G01Y-9917900D01*
X15007400Y-9462300D02*
G01Y-9562300D01*
X15142400D02*
G01Y-9462300D01*
G54D72*
X14717811Y-7956123D02*
G01X14746189D01*
X14760198Y-7970133D02*
G01X14703802D01*
X14689613Y-7984321D02*
G01X14774387D01*
X14788576Y-7998510D02*
G01X14675424D01*
X14802764Y-8012699D02*
G01X14732000Y-7941935D01*
Y-7941935D02*
G01X14661236Y-8012699D01*
Y-8012699D02*
G01X14802764D01*
X15241001Y-8592464D02*
G01X15311765Y-8521700D01*
Y-8521700D02*
G01X15241001Y-8450936D01*
X14661236Y-9030701D02*
G01X14732000Y-9101465D01*
Y-9101465D02*
G01X14802764Y-9030701D01*
X14222999Y-8450936D02*
G01X14152235Y-8521700D01*
Y-8521700D02*
G01X14222999Y-8592464D01*
G54D29*
X14716914Y-6968333D02*
G01X14721676Y-6963571D01*
X14726438Y-6949286*
Y-6939762*
X14721676Y-6925476*
X14712152Y-6915952*
X14702629Y-6911190*
X14683581Y-6906429*
X14669295*
X14650248Y-6911190*
X14640724Y-6915952*
X14631200Y-6925476*
X14626438Y-6939762*
Y-6949286*
X14631200Y-6963571*
X14635962Y-6968333*
X14726438Y-7063571D02*
G01Y-7006429D01*
Y-7035000D02*
G01X14626438D01*
X14640724Y-7025476*
X14650248Y-7015952*
X14655010Y-7006429*
X14894714Y-7362033D02*
G01X14899476Y-7357271D01*
X14904238Y-7342986*
Y-7333462*
X14899476Y-7319176*
X14889952Y-7309652*
X14880429Y-7304890*
X14861381Y-7300129*
X14847095*
X14828048Y-7304890*
X14818524Y-7309652*
X14809000Y-7319176*
X14804238Y-7333462*
Y-7342986*
X14809000Y-7357271*
X14813762Y-7362033*
Y-7400129D02*
G01X14809000Y-7404890D01*
X14804238Y-7414414*
Y-7438224*
X14809000Y-7447748*
X14813762Y-7452510*
X14823286Y-7457271*
X14832810*
X14847095Y-7452510*
X14904238Y-7395367*
Y-7457271*
X14686757Y-9542467D02*
G01Y-9509133D01*
X14739138D02*
G01X14639138D01*
Y-9556752*
X14739138Y-9647229D02*
G01Y-9590086D01*
Y-9618657D02*
G01X14639138D01*
X14653424Y-9609133*
X14662948Y-9599609*
X14667710Y-9590086*
X15198724Y-10138562D02*
G01X15208248Y-10133800D01*
X15217771Y-10124276*
X15232057Y-10109990*
X15241581Y-10105229*
X15251105*
X15246343Y-10129038D02*
G01X15255867Y-10124276D01*
X15265391Y-10114752*
X15270152Y-10095705*
Y-10062371*
X15265391Y-10043324*
X15255867Y-10033800*
X15246343Y-10029038*
X15227295*
X15217771Y-10033800*
X15208248Y-10043324*
X15203486Y-10062371*
Y-10095705*
X15208248Y-10114752*
X15217771Y-10124276*
X15227295Y-10129038*
X15246343*
X15108248D02*
G01X15165391D01*
X15136819D02*
G01Y-10029038D01*
X15146343Y-10043324*
X15155867Y-10052848*
X15165391Y-10057609*
X14782791Y-10498938D02*
G01Y-10579890D01*
X14778029Y-10589414*
X14773267Y-10594176*
X14763743Y-10598938*
X14744695*
X14735171Y-10594176*
X14730410Y-10589414*
X14725648Y-10579890*
Y-10498938*
X14625648Y-10598938D02*
G01X14682791D01*
X14654219D02*
G01Y-10498938D01*
X14663743Y-10513224*
X14673267Y-10522748*
X14682791Y-10527509*
G54D25*
X14244562Y-6033710D02*
G01X14142962D01*
Y-6072414*
X14147800Y-6082090*
X14152638Y-6086929*
X14162314Y-6091767*
X14176829*
X14186505Y-6086929*
X14191343Y-6082090*
X14196181Y-6072414*
Y-6033710*
X14244562Y-6188529D02*
G01Y-6130471D01*
Y-6159500D02*
G01X14142962D01*
X14157476Y-6149824*
X14167152Y-6140148*
X14171991Y-6130471*
X15324262Y-6008310D02*
G01X15222662D01*
Y-6047014*
X15227500Y-6056690*
X15232338Y-6061529*
X15242014Y-6066367*
X15256529*
X15266205Y-6061529*
X15271043Y-6056690*
X15275881Y-6047014*
Y-6008310*
X15232338Y-6105071D02*
G01X15227500Y-6109910D01*
X15222662Y-6119586*
Y-6143776*
X15227500Y-6153452*
X15232338Y-6158290*
X15242014Y-6163129*
X15251691*
X15266205Y-6158290*
X15324262Y-6100233*
Y-6163129*
G54D29*
X14891538Y-9267033D02*
G01X14843919Y-9233700D01*
X14891538Y-9209890D02*
G01X14791538D01*
Y-9247986*
X14796300Y-9257510*
X14801062Y-9262271*
X14810586Y-9267033*
X14824871*
X14834395Y-9262271*
X14839157Y-9257510*
X14843919Y-9247986*
Y-9209890*
X14891538Y-9362271D02*
G01Y-9305129D01*
Y-9333700D02*
G01X14791538D01*
X14805824Y-9324176*
X14815348Y-9314652*
X14820110Y-9305129*
X14574038Y-9254333D02*
G01X14526419Y-9221000D01*
X14574038Y-9197190D02*
G01X14474038D01*
Y-9235286*
X14478800Y-9244810*
X14483562Y-9249571*
X14493086Y-9254333*
X14507371*
X14516895Y-9249571*
X14521657Y-9244810*
X14526419Y-9235286*
Y-9197190*
X14483562Y-9292429D02*
G01X14478800Y-9297190D01*
X14474038Y-9306714*
Y-9330524*
X14478800Y-9340048*
X14483562Y-9344810*
X14493086Y-9349571*
X14502610*
X14516895Y-9344810*
X14574038Y-9287667*
Y-9349571*
X14370838Y-9254333D02*
G01X14323219Y-9221000D01*
X14370838Y-9197190D02*
G01X14270838D01*
Y-9235286*
X14275600Y-9244810*
X14280362Y-9249571*
X14289886Y-9254333*
X14304171*
X14313695Y-9249571*
X14318457Y-9244810*
X14323219Y-9235286*
Y-9197190*
X14270838Y-9287667D02*
G01Y-9349571D01*
X14308933Y-9316238*
Y-9330524*
X14313695Y-9340048*
X14318457Y-9344810*
X14327981Y-9349571*
X14351791*
X14361314Y-9344810*
X14366076Y-9340048*
X14370838Y-9330524*
Y-9301952*
X14366076Y-9292429*
X14361314Y-9287667*
X14523238Y-7019133D02*
G01X14475619Y-6985800D01*
X14523238Y-6961990D02*
G01X14423238D01*
Y-7000086*
X14428000Y-7009610*
X14432762Y-7014371*
X14442286Y-7019133*
X14456571*
X14466095Y-7014371*
X14470857Y-7009610*
X14475619Y-7000086*
Y-6961990*
X14456571Y-7104848D02*
G01X14523238D01*
X14418476Y-7081038D02*
G01X14489905Y-7057229D01*
Y-7119133*
X14294638Y-7006433D02*
G01X14247019Y-6973100D01*
X14294638Y-6949290D02*
G01X14194638D01*
Y-6987386*
X14199400Y-6996910*
X14204162Y-7001671*
X14213686Y-7006433*
X14227971*
X14237495Y-7001671*
X14242257Y-6996910*
X14247019Y-6987386*
Y-6949290*
X14194638Y-7096910D02*
G01Y-7049290D01*
X14242257Y-7044529*
X14237495Y-7049290*
X14232733Y-7058814*
Y-7082624*
X14237495Y-7092148*
X14242257Y-7096910*
X14251781Y-7101671*
X14275591*
X14285114Y-7096910*
X14289876Y-7092148*
X14294638Y-7082624*
Y-7058814*
X14289876Y-7049290*
X14285114Y-7044529*
X15285238Y-6727033D02*
G01X15237619Y-6693700D01*
X15285238Y-6669890D02*
G01X15185238D01*
Y-6707986*
X15190000Y-6717510*
X15194762Y-6722271*
X15204286Y-6727033*
X15218571*
X15228095Y-6722271*
X15232857Y-6717510*
X15237619Y-6707986*
Y-6669890*
X15185238Y-6812748D02*
G01Y-6793700D01*
X15190000Y-6784176*
X15194762Y-6779414*
X15209048Y-6769890*
X15228095Y-6765129*
X15266191*
X15275714Y-6769890*
X15280476Y-6774652*
X15285238Y-6784176*
Y-6803224*
X15280476Y-6812748*
X15275714Y-6817510*
X15266191Y-6822271*
X15242381*
X15232857Y-6817510*
X15228095Y-6812748*
X15223333Y-6803224*
Y-6784176*
X15228095Y-6774652*
X15232857Y-6769890*
X15242381Y-6765129*
X15285238Y-7108033D02*
G01X15237619Y-7074700D01*
X15285238Y-7050890D02*
G01X15185238D01*
Y-7088986*
X15190000Y-7098510*
X15194762Y-7103271*
X15204286Y-7108033*
X15218571*
X15228095Y-7103271*
X15232857Y-7098510*
X15237619Y-7088986*
Y-7050890*
X15185238Y-7141367D02*
G01Y-7208033D01*
X15285238Y-7165176*
X14716914Y-7171533D02*
G01X14721676Y-7166771D01*
X14726438Y-7152486*
Y-7142962*
X14721676Y-7128676*
X14712152Y-7119152*
X14702629Y-7114390*
X14683581Y-7109629*
X14669295*
X14650248Y-7114390*
X14640724Y-7119152*
X14631200Y-7128676*
X14626438Y-7142962*
Y-7152486*
X14631200Y-7166771*
X14635962Y-7171533*
X14626438Y-7204867D02*
G01Y-7266771D01*
X14664533Y-7233438*
Y-7247724*
X14669295Y-7257248*
X14674057Y-7262010*
X14683581Y-7266771*
X14707391*
X14716914Y-7262010*
X14721676Y-7257248*
X14726438Y-7247724*
Y-7219152*
X14721676Y-7209629*
X14716914Y-7204867*
X14233524Y-10125862D02*
G01X14243048Y-10121100D01*
X14252571Y-10111576*
X14266857Y-10097290*
X14276381Y-10092529*
X14285905*
X14281143Y-10116338D02*
G01X14290667Y-10111576D01*
X14300191Y-10102052*
X14304952Y-10083005*
Y-10049671*
X14300191Y-10030624*
X14290667Y-10021100*
X14281143Y-10016338*
X14262095*
X14252571Y-10021100*
X14243048Y-10030624*
X14238286Y-10049671*
Y-10083005*
X14243048Y-10102052*
X14252571Y-10111576*
X14262095Y-10116338*
X14281143*
X14200191Y-10025862D02*
G01X14195429Y-10021100D01*
X14185905Y-10016338*
X14162095*
X14152571Y-10021100*
X14147810Y-10025862*
X14143048Y-10035386*
Y-10044909*
X14147810Y-10059195*
X14204952Y-10116338*
X14143048*
X14308938Y-7543809D02*
G01X14389891D01*
X14399414Y-7548571*
X14404176Y-7553333*
X14408938Y-7562857*
Y-7581905*
X14404176Y-7591429*
X14399414Y-7596190*
X14389891Y-7600952*
X14308938*
Y-7639048D02*
G01Y-7700952D01*
X14347033Y-7667619*
Y-7681905*
X14351795Y-7691429*
X14356557Y-7696190*
X14366081Y-7700952*
X14389891*
X14399414Y-7696190*
X14404176Y-7691429*
X14408938Y-7681905*
Y-7653333*
X14404176Y-7643809*
X14399414Y-7639048*
X14945510Y-6598438D02*
G01Y-6498438D01*
X14907414*
X14897890Y-6503200*
X14893129Y-6507962*
X14888367Y-6517486*
Y-6531771*
X14893129Y-6541295*
X14897890Y-6546057*
X14907414Y-6550819*
X14945510*
X14855033Y-6498438D02*
G01X14793129D01*
X14826462Y-6536533*
X14812176*
X14802652Y-6541295*
X14797890Y-6546057*
X14793129Y-6555581*
Y-6579390*
X14797890Y-6588914*
X14802652Y-6593676*
X14812176Y-6598438*
X14840748*
X14850271Y-6593676*
X14855033Y-6588914*
X14990752Y-7577938D02*
G01X14924086Y-7677938D01*
Y-7577938D02*
G01X14990752Y-7677938D01*
X14833610D02*
G01X14890752D01*
X14862181D02*
G01Y-7577938D01*
X14871705Y-7592224*
X14881229Y-7601748*
X14890752Y-7606509*
X15120138Y-9209890D02*
G01X15020138D01*
Y-9233700*
X15024900Y-9247986*
X15034424Y-9257510*
X15043948Y-9262271*
X15062995Y-9267033*
X15077281*
X15096329Y-9262271*
X15105852Y-9257510*
X15115376Y-9247986*
X15120138Y-9233700*
Y-9209890*
X15029662Y-9305129D02*
G01X15024900Y-9309890D01*
X15020138Y-9319414*
Y-9343224*
X15024900Y-9352748*
X15029662Y-9357510*
X15039186Y-9362271*
X15048710*
X15062995Y-9357510*
X15120138Y-9300367*
Y-9362271*
X15297938Y-9495633D02*
G01X15250319Y-9462300D01*
X15297938Y-9438490D02*
G01X15197938D01*
Y-9476586*
X15202700Y-9486110*
X15207462Y-9490871*
X15216986Y-9495633*
X15231271*
X15240795Y-9490871*
X15245557Y-9486110*
X15250319Y-9476586*
Y-9438490*
X15297938Y-9543252D02*
G01Y-9562300D01*
X15293176Y-9571824*
X15288414Y-9576586*
X15274129Y-9586110*
X15255081Y-9590871*
X15216986*
X15207462Y-9586110*
X15202700Y-9581348*
X15197938Y-9571824*
Y-9552776*
X15202700Y-9543252*
X15207462Y-9538490*
X15216986Y-9533729*
X15240795*
X15250319Y-9538490*
X15255081Y-9543252*
X15259843Y-9552776*
Y-9571824*
X15255081Y-9581348*
X15250319Y-9586110*
X15240795Y-9590871*
G54D72*
X15098954Y-8465017D02*
G01X15141845Y-8507908D01*
X15144368Y-8515477*
Y-8520523*
X15141845Y-8528092*
X15131753Y-8538184*
X15124184Y-8540707*
X15119138*
X15111569Y-8538184*
X15068677Y-8495293*
X15051016Y-8523046D02*
G01X15045970D01*
X15038401Y-8525569*
X15025786Y-8538184*
X15023263Y-8545754*
Y-8550800*
X15025786Y-8558369*
X15030832Y-8563415*
X15040924Y-8568461*
X15101477*
X15068677Y-8601260*
M02*
