M48
;DRILL file {KiCad 4.0.0-rc1-stable} date 05/11/2015 13:36:15
;FORMAT={-:-/ absolute / metric / decimal}
FMAT,2
METRIC,TZ
T1C0.330
T2C0.406
T3C1.001
%
G90
G05
M71
T1
X141.478Y-101.473
X142.24Y-101.981
X142.875Y-92.456
X143.002Y-101.219
X143.51Y-91.821
X144.145Y-92.456
X144.653Y-84.328
X144.78Y-91.821
X145.644Y-70.891
X146.304Y-93.599
X146.431Y-95.631
X146.558Y-85.573
X147.193Y-93.599
X147.32Y-95.631
X147.447Y-90.551
X149.352Y-83.439
X149.708Y-85.877
X150.495Y-78.867
X150.495Y-92.329
X150.749Y-72.263
X151.13Y-92.964
X151.384Y-89.891
X152.019Y-80.137
X152.298Y-68.605
X152.4Y-95.758
X152.527Y-101.854
T2
X141.859Y-66.294
X142.367Y-107.315
X143.637Y-106.807
X144.526Y-66.167
X144.526Y-78.232
X144.653Y-86.36
X144.907Y-99.441
X145.542Y-92.964
X146.177Y-76.2
X146.558Y-78.74
X146.685Y-71.755
X146.812Y-83.058
X146.939Y-72.898
X147.574Y-84.836
X147.701Y-105.918
X147.828Y-88.392
X147.828Y-92.202
X147.828Y-100.584
X148.082Y-65.557
X148.082Y-78.867
X148.844Y-92.329
X149.86Y-75.819
X149.86Y-84.201
X150.495Y-100.33
X150.774Y-69.367
X150.825Y-85.217
X151.892Y-82.042
X152.019Y-78.994
X152.654Y-81.28
T3
X139.7Y-61.087
X139.7Y-63.627
X139.7Y-66.167
X139.7Y-68.707
X139.7Y-71.247
X139.7Y-73.787
X139.7Y-76.327
X139.7Y-78.867
X139.7Y-81.407
X139.7Y-83.947
X139.7Y-86.487
X139.7Y-89.027
X139.7Y-91.567
X139.7Y-94.107
X139.7Y-96.647
X139.7Y-99.187
X139.7Y-101.727
X139.7Y-104.267
X139.7Y-106.807
X139.7Y-109.347
X144.78Y-61.087
X144.78Y-63.627
X147.32Y-61.087
X147.32Y-63.627
X149.86Y-61.087
X149.86Y-63.627
X154.942Y-61.087
X154.942Y-63.627
X154.942Y-66.167
X154.942Y-68.707
X154.942Y-71.247
X154.942Y-73.787
X154.942Y-76.327
X154.942Y-78.867
X154.942Y-81.407
X154.942Y-83.947
X154.942Y-86.487
X154.942Y-89.027
X154.942Y-91.567
X154.942Y-94.107
X154.942Y-96.647
X154.942Y-99.187
X154.942Y-101.727
X154.942Y-104.267
X154.942Y-106.807
X154.942Y-109.347
T0
M30
